<?xml version="1.0" encoding="UTF-8" standalone="no"?>
<!DOCTYPE svg PUBLIC "-//W3C//DTD SVG 1.1//EN"
"http://www.w3.org/Graphics/SVG/1.1/DTD/svg11.dtd">
<svg viewBox="0 0 714 1017" version="1.1" xmlns="http://www.w3.org/2000/svg" xmlns:xlink="http://www.w3.org/1999/xlink">
<defs>
<style type="text/css"><![CDATA[
.g0_232{
fill: #F1EFEE;
}
.g1_232{
fill: #D0D1D0;
}
.g2_232{
fill: #D1D3D4;
}
.g3_232{
fill: none;
stroke: #D0D1D0;
stroke-width: 6.111;
stroke-linecap: butt;
stroke-linejoin: round;
stroke-miterlimit: 4;
}
]]></style>
</defs>
<image preserveAspectRatio="none" x="640" y="30" width="49" height="82" xlink:href="img/1.png"/>
<image preserveAspectRatio="none" x="514" y="861" width="202" height="159" xlink:href="img/2.png"/>
<path d="M99.6,129.9H615v26.6H99.6V129.9Z" class="g0_232"/>
<path d="M99.6,196.1H615v26.7H99.6V196.1Z" class="g0_232"/>
<path d="M99.6,293.9H615v72.9H99.6V293.9Z" class="g0_232"/>
<path d="M99.6,562.8H615V739.1H99.6V562.8Z" class="g0_232"/>
<path d="M99.6,880.6H615v26.6H99.6V880.6Z" class="g0_232"/>
<image preserveAspectRatio="none" x="620" y="130" width="52" height="52" xlink:href="img/3.png"/>
<image preserveAspectRatio="none" x="621" y="194" width="52" height="52" xlink:href="img/4.png"/>
<image preserveAspectRatio="none" x="620" y="294" width="52" height="52" xlink:href="img/5.png"/>
<image preserveAspectRatio="none" x="620" y="562" width="52" height="52" xlink:href="img/6.png"/>
<image preserveAspectRatio="none" x="622" y="860" width="52" height="52" xlink:href="img/7.png"/>
<path d="M388.5,74.5c-3.3,0,-5.9,-2.5,-5.9,-5.6c0,-3.2,2.6,-5.7,5.9,-5.7c3.3,0,6,2.5,6,5.7c0,3.1,-2.7,5.6,-6,5.6Z" class="g1_232"/>
<path d="M392.1,69.8H4.7V67.9H392.1v1.9Z" class="g1_232"/>
<path d="M654.9,48.9c0,0,-18.5,0,-18.5,15.4v7.2c0,0,0,15.4,18.5,15.4h60.2c0,0,18.5,0,18.5,-15.4V64.3c0,0,0,-15.4,-18.5,-15.4Z" class="g2_232"/>
<path d="M420,73.5v-2h-.3c-.4,0,-.7,-.1,-1,-.2c-.3,-.1,-.5,-.2,-.6,-.4c-.2,-.2,-.3,-.4,-.4,-.6c-.1,-.3,-.1,-.5,-.1,-.6v-.3c0,-.2,0,-.5,.1,-.7c0,-.3,.1,-.6,.2,-.9l-1.8,-.5c-.1,.3,-.2,.5,-.2,.8c-.1,.3,-.2,.6,-.3,.8c-.1,.3,-.2,.5,-.3,.8c-.2,.2,-.4,.4,-.6,.6c-.2,.2,-.6,.4,-.9,.5c-.4,.2,-.8,.3,-1.2,.4c-.4,.1,-.9,.2,-1.4,.2c-.5,0,-1.1,.1,-1.6,.1c-.7,0,-1.3,-.1,-1.8,-.1c-.5,-.1,-1,-.2,-1.5,-.3c-.4,-.1,-.8,-.2,-1.1,-.4c-.3,-.2,-.5,-.4,-.6,-.6c-.2,-.3,-.3,-.5,-.3,-.7c-.1,-.2,-.1,-.4,-.1,-.6c0,-.1,0,-.2,0,-.3c0,-.2,.1,-.5,.2,-.7c.1,-.3,.2,-.5,.4,-.8l-1.5,-.9c-.3,.3,-.4,.7,-.6,1.1c-.1,.5,-.2,.8,-.2,1.1c0,.3,0,.5,0,.6c0,.3,0,.6,.1,.9c.1,.4,.2,.9,.4,1.3c.5,.8,1.3,1.4,2.4,1.8c1.1,.4,2.5,.6,4.2,.6c2.9,0,5.1,-.6,6.5,-2c.2,.4,.4,.7,.6,.9c.3,.3,.5,.5,.8,.6c.3,.2,.6,.3,1,.4c.3,.1,.7,.1,1.2,.1h.3ZM408.7,64l-1.3,1.4l1.3,1.4l1.4,-1.4L408.7,64Zm3,0l-1.3,1.4l1.3,1.4l1.4,-1.4L411.7,64Zm14.9,7.5c-.2,0,-.4,-.1,-.6,-.2c-.1,-.1,-.3,-.2,-.4,-.4c-.1,-.2,-.2,-.3,-.2,-.5c-.1,-.2,-.1,-.4,-.2,-.6c0,-.3,0,-.5,0,-.7c0,-.2,-.1,-.4,-.1,-.6c0,-.2,0,-.3,-.1,-.5c0,-.2,-.1,-.4,-.1,-.6l-2,.5c.1,.5,.2,.9,.3,1.2c.1,.3,.1,.5,.1,.7c0,.3,0,.5,-.2,.7c-.1,.2,-.3,.4,-.5,.5c-.3,.2,-.6,.3,-1.1,.4c-.4,0,-.9,.1,-1.5,.1h-.3v2h.3c.3,0,.7,0,1.2,0c.4,0,.9,0,1.3,-.1c.4,-.1,.8,-.1,1.1,-.3c.4,-.1,.6,-.3,.8,-.5c.3,.3,.6,.5,.9,.7c.4,.1,.8,.2,1.3,.2h.2v-2h-.2Zm-2.2,6.1l1.3,-1.4l-1.3,-1.3L423,76.2l1.4,1.4Zm-3,0l1.3,-1.4l-1.3,-1.3L420,76.2l1.4,1.4Zm1.5,-.3l-1.3,1.2l1.3,1.3l1.2,-1.3l-1.2,-1.2Zm3.6,-3.8h1.6c.6,0,1.2,-.1,1.7,-.2c.6,-.1,1,-.3,1.4,-.6c.4,-.2,.7,-.6,1,-1c.2,-.4,.3,-1,.3,-1.6c0,-.3,0,-.7,-.1,-1c-.1,-.4,-.1,-.8,-.2,-1.1c-.1,-.4,-.3,-.7,-.4,-1.1c-.1,-.3,-.3,-.6,-.4,-.9l-1.8,.9c.1,.3,.2,.6,.4,.9c.1,.3,.2,.6,.3,.9c.1,.3,.2,.6,.2,.8c.1,.3,.1,.5,.1,.6c0,.3,-.1,.6,-.2,.7c-.2,.2,-.4,.3,-.6,.4c-.3,.1,-.5,.2,-.8,.2c-.3,0,-.6,.1,-.8,.1h-1.7v2Zm1.6,1l-1.4,1.4l1.4,1.3l1.3,-1.3l-1.3,-1.4Zm3,0l-1.4,1.4l1.4,1.3l1.3,-1.3l-1.3,-1.4Zm10.1,-3h-.3c-.2,0,-.4,-.1,-.6,-.2c-.2,-.1,-.4,-.2,-.5,-.5c-.2,-.2,-.4,-.5,-.6,-.9c-.1,-.4,-.3,-1,-.5,-1.6l-1.9,.8c.1,.3,.2,.6,.3,1c.1,.3,.2,.6,.3,.9c.1,.3,.2,.6,.3,.9c.1,.3,.1,.6,.1,.8c0,.3,-.1,.7,-.2,1c-.1,.3,-.3,.6,-.5,.9c-.2,.3,-.5,.6,-.8,.9c-.2,.3,-.6,.5,-.9,.8c-.3,.2,-.7,.5,-1.1,.7c-.4,.2,-.7,.4,-1.1,.6l.9,1.9c.7,-.4,1.3,-.8,2,-1.2c.6,-.5,1.2,-.9,1.7,-1.5c.5,-.5,.9,-1.1,1.3,-1.7c.3,-.6,.5,-1.3,.6,-1.9c.2,.1,.5,.2,.7,.3c.2,0,.4,0,.5,0h.2l.1,-2Zm-.4,2h2.7c.3,0,.6,-.1,.9,-.1c.3,-.1,.6,-.2,.9,-.3c.3,-.1,.5,-.3,.8,-.5c.2,-.2,.4,-.4,.6,-.7c.2,.3,.5,.5,.8,.7c.2,.2,.5,.4,.8,.5c.3,.2,.6,.3,.9,.3c.4,.1,.8,.1,1.2,.1h.2v-2h-.5c-.2,0,-.5,-.1,-.7,-.1c-.2,-.1,-.5,-.2,-.6,-.4c-.2,-.1,-.4,-.3,-.6,-.5c-.1,-.2,-.3,-.4,-.4,-.6c-.2,-.3,-.3,-.5,-.5,-.7c-.1,-.3,-.2,-.5,-.4,-.8c-.1,-.4,-.3,-.7,-.5,-1.1c-.2,-.3,-.4,-.7,-.7,-1c-.2,-.4,-.5,-.7,-.8,-1.1c-.3,-.3,-.7,-.7,-1.1,-1l6,-2.5l-.7,-1.8l-7,2.9l-.2,2.3c.3,.2,.5,.4,.8,.7c.2,.2,.5,.5,.8,.8c.2,.3,.4,.6,.7,.9c.2,.3,.4,.6,.6,.9c.1,.3,.3,.6,.4,.9c.1,.3,.1,.6,.1,.9c0,.1,0,.3,-.1,.4c-.1,.2,-.3,.3,-.4,.5c-.2,.1,-.4,.2,-.6,.3c-.3,0,-.6,.1,-.9,.1h-2.5v2Zm9.5,-2v2h.3c.4,0,.7,0,1,-.1c.2,-.1,.5,-.1,.7,-.3c.2,-.1,.4,-.2,.5,-.3c.1,-.2,.3,-.3,.4,-.5c.1,.2,.2,.4,.4,.5c.1,.2,.3,.3,.4,.4c.2,.2,.4,.2,.6,.3c.2,.1,.4,.1,.7,.1c.3,0,.6,0,.8,-.1c.3,-.1,.5,-.2,.7,-.3c.2,-.1,.3,-.2,.5,-.4c.1,-.1,.2,-.3,.4,-.5c.1,.2,.2,.4,.3,.5c.2,.2,.3,.3,.5,.4c.2,.1,.4,.2,.6,.3c.2,.1,.4,.1,.6,.1h.2c.5,0,1,-.1,1.4,-.2c.4,-.2,.8,-.4,1.1,-.7c.3,-.3,.5,-.6,.6,-1c.2,-.4,.3,-.8,.3,-1.3c0,-.3,-.1,-.7,-.1,-1c-.1,-.3,-.1,-.6,-.2,-.9c-.1,-.3,-.2,-.6,-.3,-.9c-.1,-.3,-.2,-.6,-.3,-.8c0,-.2,-.1,-.4,-.2,-.6c-.1,-.1,-.1,-.2,-.2,-.3l-1.7,1c.1,.2,.2,.4,.3,.7c.2,.3,.3,.6,.4,.9c.1,.3,.2,.6,.3,1c0,.3,.1,.6,.1,.9c0,.4,-.1,.7,-.4,.9c-.2,.2,-.5,.3,-.9,.3c-.2,0,-.4,-.1,-.5,-.2c-.1,0,-.3,-.1,-.3,-.2c-.1,-.2,-.2,-.3,-.2,-.4c0,-.2,0,-.3,0,-.4v-.1c0,-.3,0,-.5,0,-.7c0,-.2,.1,-.5,.1,-.7c0,-.2,.1,-.4,.1,-.5c0,-.2,.1,-.4,.1,-.5l-1.9,-.3c0,.2,-.1,.4,-.1,.7c-.1,.3,-.2,.6,-.2,.9c-.1,.3,-.2,.6,-.3,.8c-.1,.3,-.3,.6,-.4,.8c-.2,.2,-.4,.4,-.5,.5c-.2,.2,-.4,.2,-.7,.2c-.2,0,-.4,0,-.5,-.2c-.1,-.1,-.1,-.2,-.1,-.4c0,-.1,0,-.2,0,-.2c0,-.2,0,-.4,0,-.6c.1,-.2,.1,-.5,.2,-.8c.1,-.2,.1,-.5,.2,-.7c.1,-.2,.2,-.4,.2,-.6l-2,-.4c0,.2,-.1,.5,-.2,.8c-.1,.2,-.1,.5,-.3,.8c-.1,.3,-.2,.6,-.3,.8c-.1,.3,-.3,.5,-.5,.8c-.2,.2,-.4,.3,-.6,.5c-.2,.1,-.5,.2,-.8,.2h-.3Zm14.5,-10c0,.9,.1,1.8,.2,2.7c0,1,.1,2,.1,3.1c0,.5,0,1,0,1.5c0,1.4,0,2.9,-.1,4.7l2.1,-.3c0,-.4,0,-.9,0,-1.4c0,-.4,.1,-1,.1,-1.5c0,-.6,0,-1.1,0,-1.8c0,-.6,0,-1.3,0,-2.1c0,-.8,-.1,-1.8,-.1,-2.7c-.1,-.9,-.2,-1.9,-.3,-2.9l-2,.7Zm9.8,0c.1,.9,.1,1.8,.2,2.7c0,1,.1,2,.1,3.1c.1,.5,.1,1,.1,1.5c0,1.4,-.1,2.9,-.2,4.7l2.1,-.3c0,-.4,0,-.9,0,-1.4c.1,-.4,.1,-1,.1,-1.5c0,-.6,0,-1.1,0,-1.8c0,-.6,0,-1.3,0,-2.1c0,-.8,0,-1.8,-.1,-2.7c0,-.9,-.1,-1.9,-.3,-2.9l-2,.7Zm7.8,7c.1,.1,.2,.2,.4,.4c.1,.1,.3,.3,.4,.6c.1,.2,.2,.4,.3,.6c.1,.3,.2,.5,.2,.7c.1,.3,.1,.5,.2,.7c-.2,0,-.3,0,-.4,0c-.2,0,-.3,0,-.5,0c-.1,-.1,-.2,-.1,-.4,-.1c-.1,0,-.2,0,-.3,0c-.2,0,-.4,0,-.6,-.1c-.2,0,-.4,-.1,-.6,-.2c-.2,-.1,-.3,-.2,-.4,-.3c-.1,-.2,-.1,-.4,-.1,-.6c0,-.2,0,-.4,.1,-.6c.1,-.3,.2,-.5,.3,-.7c.2,-.1,.3,-.3,.5,-.4c.1,-.1,.3,-.2,.4,-.2c.2,0,.3,.1,.5,.2Zm-3.6,10.6c.6,-.1,1.2,-.3,1.8,-.5c.5,-.2,1.1,-.4,1.6,-.7c.5,-.3,1,-.7,1.4,-1.1c.5,-.4,.8,-.8,1.1,-1.3c.4,-.5,.6,-1.1,.8,-1.7c.1,-.6,.2,-1.2,.2,-1.9c0,-.4,0,-.9,-.1,-1.3c0,-.4,-.2,-.8,-.3,-1.2c-.1,-.4,-.3,-.8,-.5,-1.1c-.2,-.3,-.4,-.7,-.6,-.9c-.7,-.8,-1.5,-1.1,-2.3,-1.1c-.3,0,-.6,0,-.9,.2c-.3,.1,-.5,.2,-.7,.5c-.3,.2,-.5,.4,-.7,.7c-.1,.3,-.3,.5,-.4,.9c-.1,.3,-.2,.6,-.3,.9c0,.3,-.1,.6,-.1,.9c0,.5,.1,.9,.2,1.2c.1,.3,.3,.6,.5,.8c.3,.3,.5,.4,.8,.6c.3,.1,.7,.2,1,.3c.4,.1,.8,.1,1.2,.2c.4,0,.8,0,1.2,0c-.1,.4,-.2,.7,-.5,1.1c-.3,.3,-.7,.7,-1.2,1c-.4,.3,-1,.6,-1.6,.9c-.6,.2,-1.3,.4,-2.1,.6l.5,2Zm12.7,-7.6h-.4c-.2,0,-.3,-.1,-.5,-.1c-.2,0,-.3,-.1,-.4,-.2c-.1,-.1,-.2,-.2,-.2,-.4c0,-.1,-.1,-.3,-.1,-.5v-.1c0,-.2,0,-.3,0,-.5c0,-.2,0,-.3,.1,-.5c0,-.2,0,-.3,0,-.5c0,-.2,0,-.4,0,-.6c0,-.2,0,-.5,0,-.8c-.1,-.3,-.1,-.6,-.1,-.9c0,-.5,0,-1,0,-1.5c0,-.5,0,-1,-.1,-1.5c0,-.5,0,-1,-.1,-1.5c0,-.4,-.1,-.8,-.2,-1.1l-2,.6c.1,.3,.1,.6,.2,.9c0,.3,0,.7,.1,1c0,.4,0,.8,0,1.2c.1,.4,.1,.8,.1,1.2c0,.4,0,.8,0,1.2c0,.4,0,.7,0,1.1c0,.5,0,1,0,1.4c0,.4,0,.7,0,.8c0,1.1,.3,1.9,.8,2.5c.6,.5,1.4,.8,2.5,.8h.3v-2Zm-.3,2h1.7c1.1,0,2.1,-.1,3,-.4c1,-.2,1.9,-.5,2.8,-.8c.9,-.4,1.7,-.7,2.5,-1.1c.8,-.4,1.6,-.8,2.4,-1.2l.1,-2c-.4,0,-.8,-.1,-1.3,-.2c-.4,-.1,-.8,-.3,-1.2,-.4c-.4,-.2,-.8,-.4,-1.2,-.6c-.4,-.2,-.8,-.3,-1.2,-.5c-.4,-.2,-.8,-.3,-1.2,-.4c-.4,-.1,-.8,-.2,-1.2,-.2c-.4,0,-.8,.1,-1.1,.2c-.4,.2,-.7,.4,-1,.6c-.3,.2,-.6,.5,-.9,.8c-.2,.3,-.4,.6,-.6,.9l1.7,1.1c0,0,0,-.1,.1,-.2c0,-.1,.1,-.2,.2,-.3c0,-.1,.1,-.2,.3,-.3c.1,-.2,.2,-.3,.3,-.4c.2,-.1,.3,-.2,.5,-.2c.1,-.1,.3,-.1,.5,-.1c.3,0,.6,0,1,.1c.3,.2,.6,.3,1,.5c.3,.1,.7,.3,1.1,.5c.4,.1,.8,.3,1.3,.4c-.6,.2,-1.2,.5,-1.9,.8c-.6,.2,-1.3,.5,-1.9,.7c-.7,.2,-1.4,.4,-2.1,.5c-.7,.1,-1.3,.2,-2,.2h-1.7v2Zm6.6,1.1l-1.6,1.5l1.6,1.5l1.5,-1.5l-1.5,-1.5Zm30.4,-1.1v-2h-.3c-.4,0,-.7,-.1,-1,-.2c-.3,-.1,-.5,-.2,-.7,-.4c-.1,-.2,-.2,-.4,-.3,-.6c-.1,-.3,-.1,-.5,-.1,-.6v-.3c0,-.2,0,-.5,0,-.7c.1,-.3,.2,-.6,.3,-.9l-1.8,-.5c-.1,.3,-.2,.5,-.3,.8c0,.3,-.1,.6,-.2,.8c-.1,.3,-.2,.5,-.4,.8c-.1,.2,-.3,.4,-.5,.6c-.3,.2,-.6,.4,-.9,.5c-.4,.2,-.8,.3,-1.2,.4c-.5,.1,-.9,.2,-1.4,.2c-.6,0,-1.1,.1,-1.7,.1c-.6,0,-1.2,-.1,-1.7,-.1c-.6,-.1,-1,-.2,-1.5,-.3c-.4,-.1,-.8,-.2,-1.1,-.4c-.3,-.2,-.5,-.4,-.7,-.6c-.1,-.3,-.2,-.5,-.3,-.7c0,-.2,0,-.4,0,-.6c0,-.1,0,-.2,0,-.3c0,-.2,.1,-.5,.2,-.7c.1,-.3,.2,-.5,.4,-.8l-1.6,-.9c-.2,.3,-.4,.7,-.5,1.1c-.1,.5,-.2,.8,-.2,1.1c0,.3,-.1,.5,-.1,.6c0,.3,.1,.6,.1,.9c.1,.4,.3,.9,.5,1.3c.5,.8,1.3,1.4,2.4,1.8c1.1,.4,2.5,.6,4.1,.6c2.9,0,5.1,-.6,6.6,-2c.2,.4,.4,.7,.6,.9c.2,.3,.5,.5,.8,.6c.3,.2,.6,.3,1,.4c.3,.1,.7,.1,1.2,.1h.3ZM518,74.6l-1.5,1.5l1.5,1.5l1.5,-1.5L518,74.6Zm9.8,-1.1h.6c.7,0,1.2,-.1,1.6,-.2c.5,-.2,.8,-.4,1.1,-.7c.3,-.4,.5,-.7,.7,-1.2c.1,-.4,.2,-.9,.2,-1.4c0,-.2,0,-.4,0,-.6c-.1,-.2,-.1,-.4,-.1,-.8c0,-.3,0,-.6,0,-1.1c0,-.5,-.1,-1.1,-.1,-1.8c0,-1,-.1,-1.9,-.1,-2.7c-.1,-.8,-.1,-1.6,-.2,-2.2l-2,.5c0,0,0,.2,0,.4c.1,.3,.1,.6,.1,1.1c0,.4,.1,.8,.1,1.3c0,.6,0,1.1,.1,1.7c0,.6,0,1.2,.1,1.6c0,.5,0,.9,0,1.1c0,.3,0,.6,0,.7c0,.2,0,.4,0,.5c0,.3,0,.6,-.1,.8c0,.2,-.1,.4,-.2,.5c-.1,.2,-.2,.3,-.4,.4c-.2,0,-.5,.1,-.8,.1h-.6v2Zm9.9,-2h-.4c-.2,0,-.4,-.1,-.5,-.1c-.2,0,-.3,-.1,-.4,-.2c-.1,-.1,-.2,-.2,-.2,-.4c-.1,-.1,-.1,-.3,-.1,-.5v-.1c0,-.2,0,-.3,0,-.5c0,-.2,0,-.3,0,-.5c0,-.2,0,-.3,0,-.5c0,-.2,0,-.4,0,-.6c0,-.2,0,-.5,0,-.8c0,-.3,0,-.6,0,-.9c0,-.5,0,-1,0,-1.5c0,-.5,-.1,-1,-.1,-1.5c0,-.5,-.1,-1,-.1,-1.5c-.1,-.4,-.1,-.8,-.2,-1.1l-2,.6c.1,.3,.1,.6,.1,.9c.1,.3,.1,.7,.1,1c.1,.4,.1,.8,.1,1.2c0,.4,0,.8,0,1.2c.1,.4,.1,.8,.1,1.2c0,.4,0,.7,0,1.1c0,.5,0,1,0,1.4c0,.4,-.1,.7,-.1,.8c.1,1.1,.3,1.9,.9,2.5c.6,.5,1.4,.8,2.4,.8h.4v-2Zm-.4,2h1.8c1,0,2,-.1,3,-.4c1,-.2,1.9,-.5,2.8,-.8c.8,-.4,1.7,-.7,2.5,-1.1c.8,-.4,1.6,-.8,2.3,-1.2l.2,-2c-.4,0,-.9,-.1,-1.3,-.2c-.4,-.1,-.8,-.3,-1.2,-.4c-.4,-.2,-.8,-.4,-1.2,-.6c-.4,-.2,-.8,-.3,-1.2,-.5c-.4,-.2,-.8,-.3,-1.2,-.4c-.4,-.1,-.8,-.2,-1.2,-.2c-.4,0,-.8,.1,-1.2,.2c-.3,.2,-.7,.4,-1,.6c-.3,.2,-.5,.5,-.8,.8c-.2,.3,-.5,.6,-.6,.9l1.6,1.1c0,0,.1,-.1,.1,-.2c.1,-.1,.1,-.2,.2,-.3c.1,-.1,.2,-.2,.3,-.3c.1,-.2,.3,-.3,.4,-.4c.1,-.1,.3,-.2,.4,-.2c.2,-.1,.4,-.1,.6,-.1c.3,0,.6,0,.9,.1c.4,.2,.7,.3,1,.5c.4,.1,.8,.3,1.2,.5c.3,.1,.8,.3,1.2,.4c-.5,.2,-1.2,.5,-1.8,.8c-.6,.2,-1.3,.5,-2,.7c-.6,.2,-1.3,.4,-2,.5c-.7,.1,-1.4,.2,-2,.2h-1.8v2Zm6.6,1.1l-1.5,1.5l1.5,1.5l1.6,-1.5l-1.6,-1.5Zm21.2,-7.5c-.5,.3,-1,.7,-1.3,1.1c-.4,.5,-.7,1,-.9,1.6c-.2,.5,-.4,1.1,-.4,1.7c0,.5,.1,.9,.3,1.3c.1,.3,.3,.6,.6,.9c.3,.2,.6,.4,1,.5c.4,.1,.8,.3,1.3,.4c.1,0,.3,.1,.5,.1c.1,.1,.3,.1,.4,.1c.2,.1,.3,.1,.4,.2q.1,0,.1,.1c0,.2,-.1,.5,-.4,.7c-.3,.2,-.6,.4,-1.1,.6c-.4,.2,-1,.3,-1.6,.4c-.6,.1,-1.2,.2,-1.9,.2c-.7,0,-1.2,-.1,-1.7,-.2c-.5,-.2,-1,-.4,-1.3,-.7c-.4,-.3,-.6,-.6,-.8,-1c-.1,-.3,-.2,-.7,-.2,-1.1c0,-.2,0,-.3,0,-.5c.1,-.4,.1,-.7,.2,-1.1c.1,-.3,.1,-.7,.2,-1c.1,-.3,.2,-.7,.3,-1c.1,-.4,.2,-.7,.4,-1.1l-1.8,-.7c0,0,0,.1,-.1,.2c0,.2,-.1,.3,-.2,.6c0,.2,-.1,.5,-.2,.8c-.1,.3,-.2,.6,-.3,.9c-.1,.4,-.1,.7,-.2,1.1c-.1,.3,-.2,.7,-.2,1c0,.4,-.1,.7,-.1,1c0,.6,.1,1.1,.3,1.6c.2,.7,.6,1.3,1.1,1.8c.6,.5,1.2,.9,2,1.1c.8,.3,1.6,.4,2.6,.4c.4,0,.9,0,1.4,-.1c.5,0,1,-.1,1.5,-.2c.5,-.2,1,-.3,1.5,-.5c.4,-.3,.8,-.5,1.2,-.8c.3,-.3,.6,-.7,.8,-1.1c.3,-.5,.4,-1,.4,-1.5q0,-.1,0,-.2c0,-.3,0,-.6,-.2,-.9c-.1,-.2,-.3,-.5,-.6,-.6c-.2,-.2,-.5,-.3,-.9,-.4c-.3,-.1,-.6,-.2,-.9,-.3c-.3,0,-.5,-.1,-.8,-.1c-.2,-.1,-.4,-.2,-.6,-.2c-.2,-.1,-.3,-.2,-.4,-.4c-.2,-.1,-.2,-.3,-.2,-.5c0,-.2,0,-.4,.1,-.6c.1,-.2,.2,-.5,.4,-.7c.1,-.2,.3,-.4,.5,-.5c.2,-.2,.4,-.4,.6,-.5c.2,-.2,.4,-.3,.6,-.4c.2,-.1,.4,-.1,.6,-.1c.1,-.1,.3,-.1,.5,-.1c.1,0,.2,0,.4,0c.3,.1,.5,.2,.8,.3l.7,-1.9c-.2,-.1,-.4,-.2,-.6,-.3c-.3,-.1,-.5,-.1,-.7,-.2c-.2,0,-.4,0,-.6,0q-.1,0,-.2,0c-.2,0,-.5,0,-.7,.1c-.6,.1,-1.2,.4,-1.6,.7Zm9.9,4.4h-.4c-.2,0,-.4,-.1,-.5,-.1c-.2,0,-.3,-.1,-.4,-.2c-.1,-.1,-.2,-.2,-.2,-.4c-.1,-.1,-.1,-.3,-.1,-.5v-.1c0,-.2,0,-.3,0,-.5c0,-.2,0,-.3,0,-.5c0,-.2,0,-.3,0,-.5c0,-.2,0,-.4,0,-.6c0,-.2,0,-.5,0,-.8c0,-.3,0,-.6,0,-.9c0,-.5,0,-1,0,-1.5c0,-.5,0,-1,-.1,-1.5c0,-.5,-.1,-1,-.1,-1.5c-.1,-.4,-.1,-.8,-.2,-1.1l-2,.6c.1,.3,.1,.6,.2,.9c0,.3,0,.7,0,1c.1,.4,.1,.8,.1,1.2c0,.4,.1,.8,.1,1.2c0,.4,0,.8,0,1.2c0,.4,0,.7,0,1.1c0,.5,0,1,0,1.4c0,.4,0,.7,0,.8c0,1.1,.2,1.9,.8,2.5c.6,.5,1.4,.8,2.5,.8h.3v-2Zm-.3,2h.1c.8,0,1.6,0,2.3,-.1c.7,-.1,1.3,-.2,1.8,-.4c.2,.1,.4,.2,.7,.2c.2,.1,.5,.2,.8,.2c.3,.1,.5,.1,.8,.1c.3,0,.5,0,.8,0c.1,0,.3,0,.6,0c.2,0,.5,-.1,.7,-.1c.2,0,.5,-.1,.7,-.2c.2,0,.4,-.1,.6,-.2c.4,-.3,.8,-.6,1,-1c.3,-.4,.5,-.8,.6,-1.1c0,-.3,.1,-.6,.1,-.8c0,-.3,-.1,-.5,-.1,-.8c-.1,-.5,-.4,-.9,-.7,-1.3c-.2,-.3,-.4,-.5,-.6,-.7c-.3,-.1,-.5,-.3,-.8,-.5c-.3,-.2,-.7,-.3,-1,-.5c-.4,-.2,-.9,-.4,-1.3,-.6c-.3,-.1,-.5,-.2,-.8,-.4c-.3,-.1,-.6,-.2,-.8,-.4c-.3,-.1,-.6,-.2,-.8,-.4c-.3,-.1,-.5,-.2,-.7,-.3c-.2,-.1,-.4,-.2,-.5,-.2q-.2,-.1,-.3,-.1l-1.1,1.9c.1,.1,.2,.2,.3,.2c.1,0,.2,.1,.2,.1c-.3,.1,-.5,.3,-.7,.5c-.1,.3,-.3,.5,-.4,.8c-.2,.2,-.3,.5,-.3,.8c-.1,.3,-.1,.6,-.1,.9c0,.4,0,.8,.2,1.2c.1,.4,.3,.8,.6,1.1c-.2,0,-.4,0,-.5,0c-.2,0,-.3,0,-.4,0c-.2,.1,-.3,.1,-.4,.1c-.1,0,-.3,0,-.5,0h-.1v2Zm7.9,-5.1c0,-.1,0,-.2,0,-.3c.3,.2,.5,.3,.8,.4c.2,.2,.4,.4,.6,.5c.2,.2,.3,.4,.4,.6c.1,.2,.2,.3,.2,.5c0,.2,-.1,.4,-.2,.5c-.1,.2,-.3,.4,-.5,.5c-.2,.1,-.5,.2,-.8,.3c-.3,.1,-.6,.1,-.9,.1c-.1,0,-.2,0,-.3,0q-.1,0,-.2,0c.3,-.4,.5,-.9,.7,-1.3c.2,-.5,.2,-1,.2,-1.5c0,-.1,0,-.2,0,-.3Zm-2.9,-1.1c.2,.1,.4,.2,.5,.3c.2,.2,.3,.3,.3,.5c.1,.2,.2,.3,.2,.5c0,.1,0,.2,-.1,.3c0,.3,-.1,.6,-.2,.8c-.1,.2,-.2,.4,-.4,.6c-.2,.2,-.3,.3,-.5,.4c-.2,.1,-.4,.2,-.6,.2c-.2,0,-.3,-.1,-.5,-.2c-.1,-.1,-.2,-.3,-.3,-.4c-.2,-.2,-.2,-.3,-.3,-.5c-.1,-.2,-.1,-.4,-.2,-.5q0,-.1,0,-.2c0,-.2,.1,-.4,.1,-.6c.1,-.3,.2,-.5,.4,-.7c.2,-.2,.3,-.4,.5,-.5c.2,-.1,.4,-.2,.5,-.2q.1,0,.2,0c.1,.1,.3,.1,.4,.2Zm17.9,4.2h-.3c-.2,0,-.4,-.1,-.6,-.1c-.1,0,-.3,-.1,-.4,-.2c-.1,-.1,-.1,-.2,-.2,-.4c0,-.1,0,-.3,0,-.5v-.1c0,-.2,0,-.3,0,-.5c0,-.2,0,-.3,0,-.5c0,-.2,0,-.3,0,-.5c0,-.2,0,-.4,0,-.6c0,-.2,0,-.5,0,-.8c0,-.3,0,-.6,0,-.9c0,-.5,0,-1,0,-1.5c-.1,-.5,-.1,-1,-.1,-1.5c-.1,-.5,-.1,-1,-.2,-1.5c0,-.4,-.1,-.8,-.1,-1.1l-2,.6c0,.3,.1,.6,.1,.9c0,.3,.1,.7,.1,1c0,.4,.1,.8,.1,1.2c0,.4,0,.8,0,1.2c0,.4,0,.8,0,1.2c0,.4,0,.7,0,1.1c0,.5,0,1,0,1.4c0,.4,0,.7,0,.8c0,1.1,.3,1.9,.9,2.5c.5,.5,1.3,.8,2.4,.8h.3v-2Zm-.3,2h4.9c.5,0,1,0,1.4,-.1c.5,0,1,-.1,1.4,-.2c.6,.1,1.2,.2,1.7,.2c.5,.1,1,.1,1.4,.1h2.2v-2H608c.4,-.4,.6,-.9,.8,-1.3c.2,-.5,.3,-1,.3,-1.6q0,-.1,0,-.2c-.1,-.4,-.2,-.8,-.4,-1.2c-.1,-.3,-.4,-.6,-.6,-.9c-.3,-.2,-.6,-.4,-1,-.5c-.4,-.1,-.7,-.2,-1.2,-.2c-.4,0,-.7,0,-1.1,.1c-.4,.1,-.7,.3,-1.1,.5c-.3,.1,-.6,.3,-.9,.5c-.3,.3,-.6,.5,-.9,.7v-.6c0,-1.1,-.1,-2.1,-.1,-3.2c-.1,-1.1,-.2,-2.1,-.3,-3.1l-2.1,.5c0,.8,.1,1.6,.2,2.2c0,.6,.1,1.1,.1,1.5c0,.5,.1,.9,.1,1.2c0,.3,0,.7,0,1c0,.6,0,1.2,-.1,1.7c0,.5,0,.9,-.1,1.2c-.3,.4,-.5,.7,-.6,.9c-.2,.3,-.3,.5,-.4,.7l-.1,.1h-1.2v2Zm3.4,-2c.5,-.7,.9,-1.3,1.4,-1.8c.4,-.5,.9,-.9,1.3,-1.2c.4,-.3,.8,-.5,1.2,-.6c.3,-.1,.6,-.2,.9,-.2h.1c.3,0,.5,0,.7,.1c.2,0,.4,.1,.5,.2c.2,.1,.3,.2,.4,.3c.1,.2,.2,.3,.2,.5c0,0,0,.1,0,.1c0,.4,-.1,.7,-.3,1c-.2,.3,-.4,.5,-.7,.7c-.4,.2,-.8,.3,-1.2,.5c-.4,.1,-.8,.2,-1.3,.2c-.4,.1,-.9,.1,-1.3,.1c-.4,.1,-.8,.1,-1.1,.1h-.8Zm9.2,2h1.8c1,0,2,-.1,3,-.4c.9,-.2,1.9,-.5,2.7,-.8c.9,-.4,1.8,-.7,2.6,-1.1c.8,-.4,1.6,-.8,2.3,-1.2l.2,-2c-.5,0,-.9,-.1,-1.3,-.2c-.4,-.1,-.8,-.3,-1.2,-.4c-.4,-.2,-.8,-.4,-1.2,-.6c-.4,-.2,-.8,-.3,-1.2,-.5c-.4,-.2,-.8,-.3,-1.2,-.4c-.4,-.1,-.8,-.2,-1.3,-.2c-.4,0,-.7,.1,-1.1,.2c-.3,.2,-.7,.4,-1,.6c-.3,.2,-.6,.5,-.8,.8c-.3,.3,-.5,.6,-.7,.9l1.7,1.1c0,0,.1,-.1,.1,-.2c.1,-.1,.1,-.2,.2,-.3c.1,-.1,.2,-.2,.3,-.3c.1,-.2,.2,-.3,.4,-.4c.1,-.1,.3,-.2,.4,-.2c.2,-.1,.4,-.1,.5,-.1c.4,0,.7,0,1,.1c.3,.2,.7,.3,1,.5c.4,.1,.7,.3,1.1,.5c.4,.1,.9,.3,1.3,.4c-.6,.2,-1.2,.5,-1.8,.8c-.7,.2,-1.3,.5,-2,.7c-.7,.2,-1.3,.4,-2,.5c-.7,.1,-1.4,.2,-2,.2h-1.8v2Zm5.2,-11.8l-1.5,1.5l1.5,1.5l1.5,-1.5l-1.5,-1.5Z" class="g3_232"/>
</svg>