<?xml version="1.0" encoding="UTF-8" standalone="no"?>
<!DOCTYPE svg PUBLIC "-//W3C//DTD SVG 1.1//EN"
"http://www.w3.org/Graphics/SVG/1.1/DTD/svg11.dtd">
<svg viewBox="0 0 714 1017" version="1.1" xmlns="http://www.w3.org/2000/svg" xmlns:xlink="http://www.w3.org/1999/xlink">
<defs>
<style type="text/css"><![CDATA[
.g0_28{
fill: #D0D1D0;
}
.g1_28{
fill: #D1D3D4;
}
.g2_28{
fill: none;
stroke: #D0D1D0;
stroke-width: 6.111;
stroke-linecap: butt;
stroke-linejoin: round;
stroke-miterlimit: 4;
}
]]></style>
</defs>
<image preserveAspectRatio="none" x="640" y="30" width="49" height="82" xlink:href="img/1.png"/>
<image preserveAspectRatio="none" x="514" y="861" width="202" height="159" xlink:href="img/2.png"/>
<path d="M428.6,74.5c-3.3,0,-5.9,-2.5,-5.9,-5.6c0,-3.2,2.6,-5.7,5.9,-5.7c3.3,0,6,2.5,6,5.7c0,3.1,-2.7,5.6,-6,5.6Z" class="g0_28"/>
<path d="M426.1,69.9H4.7V67.8H426.1v2.1Z" class="g0_28"/>
<path d="M654.9,48.9c0,0,-18.5,0,-18.5,15.4v7.2c0,0,0,15.4,18.5,15.4h60.2c0,0,18.5,0,18.5,-15.4V64.3c0,0,0,-15.4,-18.5,-15.4Z" class="g1_28"/>
<path d="M454.3,64.9c-.5,.4,-.9,.7,-1.3,1.2c-.3,.5,-.6,1,-.8,1.5c-.3,.6,-.4,1.1,-.4,1.7c0,.6,.1,1,.2,1.3c.2,.4,.4,.7,.7,.9c.3,.2,.6,.4,1,.6c.4,.1,.8,.2,1.2,.3c.2,.1,.4,.1,.5,.2c.2,0,.4,0,.5,.1c.2,0,.3,.1,.4,.1q.1,.1,.1,.1c0,.3,-.2,.5,-.4,.7c-.3,.3,-.7,.5,-1.1,.7c-.5,.1,-1,.3,-1.6,.4c-.6,.1,-1.3,.2,-2,.2c-.6,0,-1.1,-.1,-1.6,-.3c-.6,-.1,-1,-.3,-1.3,-.6c-.4,-.3,-.7,-.6,-.8,-1c-.1,-.4,-.2,-.8,-.2,-1.1c0,-.2,0,-.4,0,-.5c.1,-.4,.1,-.8,.2,-1.1c0,-.4,.1,-.7,.2,-1c.1,-.4,.2,-.7,.3,-1.1c.1,-.3,.2,-.7,.3,-1.1l-1.7,-.7c0,0,0,.1,-.1,.3c-.1,.1,-.1,.3,-.2,.5c-.1,.3,-.1,.5,-.2,.8c-.1,.3,-.2,.6,-.3,1c-.1,.3,-.2,.7,-.2,1c-.1,.4,-.2,.7,-.2,1.1c-.1,.3,-.1,.6,-.1,1c0,.5,.1,1.1,.3,1.5c.2,.8,.6,1.4,1.1,1.9c.5,.5,1.2,.8,2,1.1c.7,.2,1.6,.4,2.5,.4c.5,0,1,-.1,1.5,-.1c.5,-.1,1,-.2,1.5,-.3c.5,-.1,1,-.3,1.4,-.5c.5,-.2,.9,-.5,1.3,-.8c.3,-.3,.6,-.7,.8,-1.1c.3,-.4,.4,-.9,.4,-1.5c0,0,0,-.1,0,-.1c0,-.4,0,-.7,-.2,-.9c-.1,-.3,-.3,-.5,-.6,-.7c-.3,-.1,-.6,-.3,-.9,-.4c-.3,-.1,-.6,-.1,-.9,-.2c-.3,-.1,-.6,-.1,-.8,-.2c-.2,0,-.4,-.1,-.6,-.2c-.2,-.1,-.4,-.2,-.5,-.3c-.1,-.1,-.1,-.3,-.1,-.5c0,-.2,0,-.5,.1,-.7c.1,-.2,.2,-.4,.4,-.6c.1,-.2,.3,-.4,.4,-.6c.2,-.2,.4,-.3,.6,-.5c.2,-.1,.4,-.2,.7,-.3c.2,-.1,.4,-.2,.5,-.2c.2,0,.4,0,.6,0c.1,0,.2,0,.3,0c.3,0,.6,.1,.9,.2l.7,-1.9c-.2,-.1,-.4,-.2,-.7,-.3c-.2,0,-.4,-.1,-.6,-.1c-.2,0,-.4,0,-.6,0q-.1,0,-.2,0c-.3,0,-.5,0,-.7,.1c-.6,.1,-1.2,.3,-1.7,.6Zm5.9,-5.6c.1,.9,.2,1.8,.2,2.8c.1,1,.1,2,.2,3.1c0,.4,0,1,0,1.5c0,1.3,-.1,2.9,-.2,4.6l2.1,-.3c0,-.4,.1,-.8,.1,-1.3c0,-.5,0,-1,0,-1.5c0,-.6,0,-1.2,0,-1.8c0,-.7,0,-1.4,0,-2.1c0,-.9,0,-1.8,-.1,-2.7c0,-.9,-.1,-1.9,-.2,-2.9l-2.1,.6Zm13.9,10.9c.2,0,.5,0,.8,-.1c.2,.3,.4,.6,.6,.7c.2,.2,.4,.3,.6,.4c.3,.1,.5,.1,.7,.1c.3,0,.6,.1,.8,.1h.2V69.3h-.2c-.1,0,-.3,0,-.4,0c-.1,0,-.2,-.1,-.3,-.1c-.1,0,-.2,-.1,-.3,-.2c0,-.1,-.1,-.2,-.1,-.3c-.1,0,-.1,-.1,-.1,-.2c0,-.1,-.1,-.3,-.1,-.5c-.1,-.3,-.1,-.6,-.2,-1c-.1,-.5,-.1,-1,-.2,-1.7c0,0,0,-.1,-.1,-.3c0,-.2,0,-.4,0,-.6c0,-.2,-.1,-.4,-.1,-.7c0,-.2,0,-.5,-.1,-.7c0,-.2,0,-.4,0,-.6c0,-.1,-.1,-.2,-.1,-.3l-2,.4l.1,1.2c-.2,.2,-.5,.3,-.8,.4c-.3,.2,-.6,.3,-.9,.5c-.3,.2,-.5,.4,-.8,.6c-.3,.3,-.5,.5,-.7,.8c-.2,.2,-.3,.5,-.5,.8c-.1,.3,-.1,.6,-.1,.9c0,.3,0,.6,.1,.9c.1,.2,.2,.4,.4,.6c.2,.2,.4,.4,.6,.5c.2,.1,.5,.2,.7,.3c.3,.1,.6,.2,.8,.2c.3,0,.6,0,.9,0c.2,0,.5,0,.8,0Zm-.4,-2c-.1,0,-.3,0,-.5,0c-.1,0,-.3,0,-.6,0c-.2,0,-.4,-.1,-.5,-.1c-.2,0,-.4,-.1,-.5,-.2c-.1,-.1,-.1,-.2,-.1,-.3c0,-.1,0,-.2,.1,-.4c.1,-.1,.2,-.3,.3,-.4c.1,-.1,.3,-.3,.5,-.4c.1,-.1,.3,-.2,.5,-.3c.2,-.2,.3,-.3,.5,-.4c.2,0,.3,-.1,.5,-.2c0,.3,0,.5,.1,.8c0,.2,0,.5,.1,.7c0,.2,0,.4,0,.6c.1,.2,.1,.4,.1,.5c-.1,.1,-.3,.1,-.5,.1Zm3.8,3.2h1.7c.6,0,1.1,-.1,1.7,-.2c.5,-.1,.9,-.3,1.3,-.6c.4,-.3,.7,-.6,1,-1.1c.2,-.4,.3,-.9,.3,-1.5c0,-.4,0,-.7,-.1,-1.1c0,-.3,-.1,-.7,-.2,-1.1c-.1,-.3,-.2,-.7,-.4,-1c-.1,-.4,-.2,-.7,-.4,-1l-1.8,.9c.1,.3,.3,.6,.4,.9c.1,.4,.2,.7,.3,1c.1,.3,.2,.6,.3,.8c0,.3,0,.5,0,.6c0,.3,0,.5,-.2,.7c-.2,.2,-.4,.3,-.6,.4c-.3,.1,-.5,.1,-.8,.2c-.3,0,-.6,0,-.8,0h-1.7v2.1Zm1.6,.9l-1.4,1.4l1.4,1.4l1.3,-1.4l-1.3,-1.4Zm3,.1l-1.4,1.3l1.4,1.4l1.4,-1.4l-1.4,-1.3Zm7.3,-3.1h-.3c-.2,0,-.4,0,-.6,0c-.1,-.1,-.2,-.2,-.3,-.3c-.1,-.1,-.2,-.2,-.3,-.3c0,-.2,0,-.3,0,-.5V68c0,-.1,0,-.3,0,-.4c0,-.2,0,-.4,0,-.5c0,-.2,0,-.4,0,-.5c0,-.2,0,-.4,0,-.6c0,-.3,0,-.5,0,-.9c0,-.3,0,-.6,0,-.8c0,-.5,0,-1,0,-1.5c-.1,-.6,-.1,-1.1,-.1,-1.6c-.1,-.5,-.1,-.9,-.1,-1.4c-.1,-.4,-.1,-.8,-.2,-1.1l-2,.6c0,.2,.1,.5,.1,.8c.1,.4,.1,.7,.1,1.1c0,.4,.1,.8,.1,1.2c0,.4,0,.8,0,1.2c0,.4,0,.8,.1,1.1c0,.4,0,.8,0,1.1c0,.6,0,1.1,-.1,1.5c0,.3,0,.6,0,.8c0,1.1,.3,1.9,.9,2.4c.5,.6,1.4,.9,2.4,.9h.3V69.3Zm-.3,2.1h1.7c.6,0,1.2,-.1,1.7,-.2c.5,-.1,1,-.3,1.4,-.6c.4,-.3,.7,-.6,.9,-1.1c.3,-.4,.4,-.9,.4,-1.5c0,-.4,-.1,-.7,-.1,-1.1c-.1,-.3,-.2,-.7,-.3,-1.1c-.1,-.3,-.2,-.7,-.3,-1c-.2,-.4,-.3,-.7,-.4,-1l-1.9,.9c.2,.3,.3,.6,.4,.9c.2,.4,.3,.7,.4,1c.1,.3,.2,.6,.2,.8c.1,.3,.1,.5,.1,.6c0,.3,-.1,.5,-.2,.7c-.2,.2,-.4,.3,-.7,.4c-.2,.1,-.5,.1,-.8,.2c-.3,0,-.5,0,-.8,0h-1.7v2.1Zm4.8,4.1l1.3,-1.4l-1.4,-1.4l-1.3,1.4l1.4,1.4Zm-3.1,-.1l1.4,-1.3l-1.4,-1.4l-1.3,1.4l1.3,1.3Zm1.5,-.3l-1.2,1.3l1.2,1.2l1.3,-1.2l-1.3,-1.3Zm27.9,-3.7V69.3h-.3c-.4,0,-.7,0,-1,-.1c-.3,-.1,-.5,-.3,-.6,-.5c-.2,-.1,-.3,-.3,-.4,-.6c-.1,-.2,-.1,-.4,-.1,-.5v-.3c0,-.3,0,-.5,.1,-.8c0,-.3,.1,-.6,.2,-.8l-1.8,-.5c-.1,.2,-.2,.5,-.2,.8c-.1,.2,-.2,.5,-.3,.8c-.1,.2,-.2,.5,-.3,.7c-.2,.3,-.4,.5,-.6,.7c-.3,.2,-.6,.3,-.9,.5c-.4,.1,-.8,.3,-1.2,.4c-.4,0,-.9,.1,-1.4,.2c-.5,0,-1.1,0,-1.6,0c-.7,0,-1.3,0,-1.8,-.1c-.5,0,-1,-.1,-1.5,-.2c-.4,-.1,-.8,-.3,-1.1,-.4c-.3,-.2,-.5,-.4,-.6,-.7c-.2,-.2,-.3,-.5,-.3,-.7c-.1,-.2,-.1,-.4,-.1,-.5c0,-.1,0,-.2,0,-.3c0,-.3,.1,-.5,.2,-.8c.1,-.2,.2,-.5,.4,-.7l-1.6,-1c-.2,.4,-.3,.8,-.5,1.2c-.1,.4,-.2,.8,-.2,1c0,.3,0,.5,0,.6c0,.3,0,.7,.1,1c0,.4,.2,.8,.4,1.2c.5,.8,1.3,1.5,2.4,1.9c1.1,.4,2.5,.6,4.2,.6c2.9,0,5.1,-.7,6.5,-2c.2,.3,.4,.6,.6,.9c.2,.2,.5,.4,.8,.6c.3,.2,.6,.3,1,.3c.3,.1,.7,.2,1.2,.2h.3ZM508.9,62l-1.4,1.4l1.4,1.3l1.4,-1.3L508.9,62Zm3,0l-1.4,1.4l1.4,1.3l1.4,-1.3L511.9,62Zm-1.5,.3l1.3,-1.2l-1.3,-1.3l-1.2,1.3l1.2,1.2Zm9.5,9.1h1.7c1,-.1,2,-.2,3,-.4c1,-.2,1.9,-.5,2.8,-.9c.8,-.3,1.7,-.7,2.5,-1.1c.8,-.4,1.6,-.7,2.3,-1.1l.2,-2.1c-.4,0,-.9,0,-1.3,-.1c-.4,-.2,-.8,-.3,-1.2,-.5c-.4,-.1,-.8,-.3,-1.2,-.5c-.4,-.2,-.8,-.4,-1.2,-.5c-.4,-.2,-.8,-.3,-1.2,-.5c-.4,-.1,-.8,-.1,-1.2,-.1c-.4,0,-.8,.1,-1.2,.2c-.3,.1,-.6,.3,-1,.6c-.3,.2,-.5,.5,-.8,.8c-.2,.3,-.5,.6,-.6,.9l1.6,1.1c0,-.1,.1,-.1,.1,-.2c.1,-.1,.2,-.2,.2,-.3c.1,-.1,.2,-.3,.3,-.4c.1,-.1,.3,-.2,.4,-.3c.1,-.1,.3,-.2,.4,-.3c.2,0,.4,-.1,.6,-.1c.3,0,.6,.1,.9,.2c.4,.1,.7,.3,1,.4c.4,.2,.8,.3,1.2,.5c.4,.2,.8,.3,1.2,.4c-.5,.3,-1.1,.6,-1.8,.8c-.6,.3,-1.3,.5,-2,.7c-.6,.2,-1.3,.4,-2,.5c-.7,.2,-1.4,.2,-2,.2h-1.7v2.1Zm17.9,-2.1h-.4c-.2,0,-.3,0,-.5,0c-.2,-.1,-.3,-.2,-.4,-.3c-.1,-.1,-.2,-.2,-.2,-.3c0,-.2,-.1,-.3,-.1,-.5V68c0,-.1,0,-.3,0,-.4c0,-.2,0,-.4,.1,-.5c0,-.2,0,-.4,0,-.5c0,-.2,0,-.4,0,-.6c0,-.3,0,-.5,0,-.9c-.1,-.3,-.1,-.6,-.1,-.8c0,-.5,0,-1,0,-1.5c0,-.6,0,-1.1,-.1,-1.6c0,-.5,0,-.9,-.1,-1.4c0,-.4,-.1,-.8,-.2,-1.1l-2,.6c.1,.2,.1,.5,.2,.8c0,.4,0,.7,.1,1.1c0,.4,0,.8,0,1.2c.1,.4,.1,.8,.1,1.2c0,.4,0,.8,0,1.1c0,.4,0,.8,0,1.1c0,.6,0,1.1,0,1.5c0,.3,0,.6,0,.8c0,1.1,.3,1.9,.8,2.4c.6,.6,1.4,.9,2.5,.9h.3V69.3Zm5.5,0c-.3,0,-.4,0,-.6,-.1c-.1,-.2,-.2,-.3,-.3,-.4c-.1,-.2,-.1,-.4,-.2,-.6c0,-.2,0,-.4,0,-.5c-.1,-.3,-.1,-.6,-.1,-.8c0,-.2,0,-.4,-.1,-.6c0,-.1,0,-.3,-.1,-.5c0,-.2,-.1,-.4,-.1,-.6l-2,.5c.1,.5,.2,.9,.3,1.2c.1,.3,.1,.6,.1,.7c0,.6,-.2,1,-.6,1.3c-.4,.3,-1,.4,-1.8,.4h-.3v2.1h.3c.7,0,1.4,-.1,1.9,-.3c.5,-.1,1,-.3,1.3,-.6c.3,.2,.6,.4,.9,.6c.4,.2,.8,.3,1.4,.3h.1V69.3h-.1Zm-3,3.1L538.8,74l1.5,1.5L541.9,74l-1.6,-1.6Zm2.8,-3.1v2.1h.2c.6,0,1.1,-.2,1.6,-.4c.5,-.2,1,-.5,1.4,-.9c.1,.1,.2,.1,.4,.2c.1,.1,.3,.2,.4,.3c.1,.1,.3,.1,.4,.2c.2,.1,.3,.1,.4,.2c.2,.1,.5,.1,.7,.2c.3,.1,.5,.1,.8,.1c.2,0,.5,-.1,.7,-.1c.2,-.1,.5,-.2,.7,-.4c.2,-.1,.4,-.3,.5,-.5c.2,-.2,.3,-.4,.4,-.7c.1,-.2,.2,-.5,.2,-.7c.1,-.3,.1,-.6,.1,-.8c0,-.3,0,-.6,-.1,-.9c-.1,-.3,-.1,-.6,-.2,-.9c-.2,-.3,-.3,-.5,-.5,-.8c-.1,-.2,-.3,-.4,-.6,-.6c-.2,-.2,-.4,-.3,-.7,-.4c-.3,-.1,-.6,-.2,-1,-.2c-.3,0,-.7,.1,-1,.2c-.2,.2,-.5,.4,-.7,.6c-.2,.3,-.4,.5,-.6,.8c-.2,.4,-.4,.7,-.5,1c-.2,.3,-.3,.6,-.5,.8c-.2,.3,-.3,.6,-.6,.8c-.2,.3,-.4,.5,-.7,.6c-.3,.1,-.7,.2,-1,.2h-.2ZM548,67.4c.1,-.3,.2,-.5,.3,-.6c.1,-.2,.2,-.3,.3,-.4c.1,0,.1,-.1,.2,-.1c.1,0,.2,0,.2,0c.2,0,.3,0,.5,.1c.2,.1,.3,.2,.5,.4c.1,.2,.2,.4,.3,.6c.1,.3,.2,.5,.2,.8c0,.2,-.1,.3,-.1,.4c0,.1,-.1,.2,-.1,.3c-.1,.1,-.1,.2,-.2,.3c0,0,-.1,0,-.1,.1c-.1,0,-.2,0,-.3,0c-.1,0,-.2,0,-.3,-.1c-.3,0,-.5,-.1,-.7,-.2c-.3,-.1,-.5,-.2,-.7,-.3c-.2,-.1,-.4,-.2,-.5,-.3c.2,-.4,.3,-.7,.5,-1Zm14.7,-1.1c.1,.1,.3,.3,.4,.4c.1,.2,.3,.4,.4,.6c.1,.2,.2,.4,.3,.7c.1,.2,.2,.4,.3,.7c0,.2,.1,.4,.1,.6c-.1,0,-.3,0,-.4,0c-.2,0,-.3,0,-.4,0c-.2,0,-.3,0,-.4,0c-.2,0,-.3,0,-.4,0c-.2,0,-.4,-.1,-.6,-.1c-.2,-.1,-.4,-.1,-.6,-.2c-.1,-.1,-.3,-.2,-.4,-.4c-.1,-.1,-.1,-.3,-.1,-.5c0,-.2,0,-.5,.1,-.7c.1,-.2,.2,-.4,.3,-.6c.2,-.2,.3,-.3,.5,-.4c.1,-.2,.3,-.2,.4,-.2c.2,0,.3,0,.5,.1Zm-3.6,10.6c.6,-.1,1.2,-.2,1.8,-.4c.6,-.2,1.1,-.5,1.6,-.8c.6,-.3,1,-.6,1.5,-1c.4,-.4,.8,-.9,1.1,-1.4c.3,-.5,.5,-1,.7,-1.6c.2,-.6,.2,-1.3,.2,-1.9c0,-.5,0,-.9,-.1,-1.3c0,-.5,-.1,-.9,-.3,-1.2c-.1,-.4,-.3,-.8,-.5,-1.1c-.2,-.4,-.4,-.7,-.6,-1c-.7,-.7,-1.5,-1.1,-2.3,-1.1c-.3,0,-.6,.1,-.9,.2c-.2,.1,-.5,.3,-.7,.5c-.3,.2,-.5,.5,-.6,.7c-.2,.3,-.4,.6,-.5,.9c-.1,.3,-.2,.6,-.2,.9c-.1,.4,-.1,.7,-.1,1c0,.4,0,.8,.1,1.1c.2,.4,.3,.6,.6,.9c.2,.2,.4,.4,.7,.5c.3,.2,.7,.3,1,.4c.4,0,.8,.1,1.2,.1c.4,0,.8,.1,1.3,.1c-.1,.3,-.3,.7,-.6,1c-.3,.4,-.7,.7,-1.1,1.1c-.5,.3,-1,.6,-1.7,.8c-.6,.3,-1.3,.5,-2.1,.6l.5,2Zm21,-.4c.4,-.1,.9,-.2,1.3,-.3c.5,-.1,.9,-.3,1.3,-.5c.5,-.2,.9,-.4,1.2,-.7c.4,-.3,.6,-.6,.9,-.9c.2,-.4,.3,-.8,.3,-1.3c0,-.2,0,-.4,-.1,-.7c-.1,-.2,-.2,-.5,-.4,-.7h1.5V69.3h-6.4l-.2,2c.3,.1,.7,.1,1,.2c.4,.1,.8,.1,1.1,.3c.3,.1,.5,.2,.7,.3c.3,.1,.4,.2,.6,.3c.2,.1,.3,.1,.4,.2c.1,.1,.1,.2,.1,.2c0,.2,-.1,.4,-.2,.6c-.2,.2,-.5,.3,-.8,.4c-.2,.2,-.6,.3,-.9,.4c-.4,0,-.7,.1,-1.1,.2c-.3,0,-.6,.1,-.9,.1c-.3,0,-.5,0,-.6,0c-.3,0,-.6,0,-.9,0c-.4,0,-.7,-.1,-1.1,-.1c-.3,-.1,-.6,-.2,-1,-.4c-.3,-.1,-.5,-.3,-.7,-.6c-.2,-.3,-.3,-.5,-.4,-.8c-.1,-.3,-.2,-.7,-.2,-1.1c0,-.3,.1,-.6,.1,-1c0,-.3,.1,-.7,.2,-1.1c0,-.4,.2,-.8,.3,-1.2c.1,-.5,.3,-1,.5,-1.5l-1.6,-.8c-.2,.5,-.4,1.1,-.6,1.5c-.1,.5,-.3,1,-.4,1.4c-.1,.4,-.1,.8,-.2,1.2c0,.4,-.1,.7,-.1,1.1c0,.2,0,.4,0,.6c0,.6,.1,1.3,.3,1.8c.3,.7,.7,1.2,1.2,1.7c.6,.5,1.2,.8,2,1c.8,.2,1.6,.4,2.6,.4c.3,0,.7,-.1,1.2,-.1Zm5.6,-5.1h1.7c.6,0,1.2,-.1,1.7,-.2c.6,-.1,1,-.3,1.4,-.6c.4,-.3,.7,-.6,.9,-1.1c.3,-.4,.4,-.9,.4,-1.5c0,-.4,0,-.7,-.1,-1.1c-.1,-.3,-.2,-.7,-.3,-1.1c-.1,-.3,-.2,-.7,-.3,-1c-.1,-.4,-.3,-.7,-.4,-1l-1.9,.9c.2,.3,.3,.6,.5,.9c.1,.4,.2,.7,.3,1c.1,.3,.2,.6,.2,.8c.1,.3,.1,.5,.1,.6c0,.3,-.1,.5,-.2,.7c-.2,.2,-.4,.3,-.6,.4c-.3,.1,-.6,.1,-.8,.2c-.3,0,-.6,0,-.9,0h-1.7v2.1Zm1.6,.9L586,73.7l1.4,1.4l1.3,-1.4l-1.4,-1.4Zm3.1,.1L589,73.7l1.4,1.4l1.3,-1.4l-1.3,-1.3Zm7.3,-3.1h-.3c-.2,0,-.4,0,-.6,0c-.1,-.1,-.3,-.2,-.4,-.3c-.1,-.1,-.1,-.2,-.2,-.3c0,-.2,0,-.3,0,-.5V68c0,-.1,0,-.3,0,-.4c0,-.2,0,-.4,0,-.5c0,-.2,0,-.4,0,-.5c0,-.2,0,-.4,0,-.6c0,-.3,0,-.5,0,-.9c0,-.3,0,-.6,0,-.8c0,-.5,0,-1,-.1,-1.5c0,-.6,0,-1.1,0,-1.6c-.1,-.5,-.1,-.9,-.2,-1.4c0,-.4,-.1,-.8,-.1,-1.1l-2,.6c0,.2,.1,.5,.1,.8c0,.4,.1,.7,.1,1.1c0,.4,0,.8,.1,1.2c0,.4,0,.8,0,1.2c0,.4,0,.8,0,1.1c0,.4,0,.8,0,1.1c0,.6,0,1.1,0,1.5c0,.3,0,.6,0,.8c0,1.1,.3,1.9,.8,2.4c.6,.6,1.4,.9,2.5,.9h.3V69.3Zm5.5,0c-.2,0,-.4,0,-.6,-.1c-.1,-.2,-.2,-.3,-.3,-.4c-.1,-.2,-.1,-.4,-.1,-.6c-.1,-.2,-.1,-.4,-.1,-.5c0,-.3,-.1,-.6,-.1,-.8c0,-.2,0,-.4,-.1,-.6c0,-.1,0,-.3,-.1,-.5c0,-.2,-.1,-.4,-.1,-.6l-2,.5c.2,.5,.3,.9,.3,1.2c.1,.3,.1,.6,.1,.7c0,.6,-.2,1,-.6,1.3c-.4,.3,-1,.4,-1.8,.4h-.3v2.1h.3c.7,0,1.4,-.1,1.9,-.3c.5,-.1,1,-.3,1.3,-.6c.3,.2,.6,.4,1,.6c.3,.2,.8,.3,1.3,.3h.1V69.3h-.1Zm-3.3,-8.4l-1.5,1.6l1.5,1.5l1.6,-1.5l-1.6,-1.6Zm3.1,8.4v2.1h.3c.4,0,.7,-.1,1,-.1c.3,-.1,.5,-.2,.7,-.3c.2,-.1,.4,-.2,.5,-.4c.2,-.1,.3,-.2,.4,-.4c.1,.2,.2,.3,.4,.5c.1,.1,.3,.3,.4,.4c.2,.1,.4,.2,.6,.3c.2,0,.4,.1,.7,.1c.3,0,.6,-.1,.8,-.2c.3,0,.5,-.1,.7,-.2c.2,-.1,.3,-.3,.5,-.4c.1,-.2,.3,-.3,.4,-.5c.1,.2,.2,.3,.3,.5c.2,.1,.3,.3,.5,.4c.2,.1,.4,.2,.6,.3c.2,0,.4,.1,.7,.1h.1c.5,0,1,-.1,1.4,-.3c.4,-.1,.8,-.3,1.1,-.6c.3,-.3,.5,-.6,.7,-1c.1,-.4,.2,-.9,.2,-1.4c0,-.3,0,-.6,-.1,-.9c0,-.4,-.1,-.7,-.2,-1c-.1,-.3,-.2,-.6,-.3,-.9c-.1,-.3,-.2,-.5,-.2,-.7c-.1,-.3,-.2,-.4,-.3,-.6c-.1,-.2,-.1,-.3,-.1,-.3l-1.8,.9c.1,.2,.2,.5,.4,.7c.1,.3,.2,.6,.3,.9c.1,.4,.2,.7,.3,1c.1,.4,.1,.7,.1,1c0,.3,-.1,.6,-.4,.8c-.2,.2,-.5,.3,-.9,.3c-.2,0,-.4,0,-.5,-.1c-.1,-.1,-.2,-.2,-.3,-.3c-.1,-.1,-.2,-.2,-.2,-.4c0,-.1,0,-.2,0,-.4v-.1c0,-.2,0,-.4,0,-.7c.1,-.2,.1,-.4,.1,-.6c.1,-.2,.1,-.4,.1,-.6c0,-.1,.1,-.3,.1,-.4l-1.9,-.4c0,.2,-.1,.5,-.1,.8c-.1,.3,-.1,.5,-.2,.8c-.1,.3,-.2,.6,-.3,.9c-.1,.3,-.3,.5,-.4,.8c-.2,.2,-.3,.4,-.5,.5c-.2,.1,-.4,.2,-.7,.2c-.2,0,-.4,-.1,-.5,-.2c-.1,-.1,-.1,-.3,-.1,-.4c0,-.1,0,-.2,0,-.3c0,-.1,0,-.3,0,-.5c.1,-.3,.1,-.5,.2,-.8c.1,-.3,.1,-.5,.2,-.7c.1,-.3,.2,-.5,.2,-.6l-2,-.4c0,.2,-.1,.4,-.2,.7c0,.3,-.1,.6,-.2,.9c-.1,.2,-.3,.5,-.4,.8c-.1,.3,-.3,.5,-.5,.7c-.1,.2,-.3,.4,-.6,.5c-.2,.2,-.5,.2,-.8,.2H603Zm6,-9l-1.4,1.4l1.4,1.4l1.4,-1.4L609,60.3Zm3,.1l-1.4,1.3l1.4,1.4l1.4,-1.4L612,60.4Zm-1.5,.3l1.2,-1.3l-1.2,-1.2l-1.2,1.2l1.2,1.3Zm7.8,-.2c.1,1.3,.2,3,.3,5.1c.1,.6,.1,1.3,.1,2c0,.2,0,.4,0,.7c-.1,.9,-.1,1.9,-.2,3l2.1,-.3c.1,-.7,.1,-1.5,.1,-2.2c0,-.8,0,-1.5,0,-2.1c0,-.6,0,-1.2,0,-1.9c0,-.9,0,-1.7,-.1,-2.5c-.1,-.8,-.1,-1.6,-.3,-2.4l-2,.6Zm-.9,-1.2c.1,0,.1,-.1,.1,-.2c0,-.2,.1,-.3,.1,-.4c.1,-.1,.1,-.2,.2,-.3c.1,-.1,.2,-.1,.3,-.1h.1c.2,0,.4,0,.5,.1c.2,0,.4,.1,.5,.1c.2,.1,.3,.1,.5,.2c.2,0,.4,.1,.6,.1c.2,0,.4,-.1,.6,-.1c.2,-.1,.4,-.2,.5,-.3c.2,-.1,.4,-.2,.5,-.3c.1,-.2,.2,-.3,.3,-.4c.1,-.1,.2,-.2,.3,-.2c0,-.1,0,-.2,0,-.2l-1.1,-.7c-.1,.2,-.3,.4,-.4,.5c-.1,.1,-.2,.2,-.4,.2c-.1,.1,-.2,.1,-.3,.1c0,0,-.1,0,-.2,0c-.2,0,-.4,-.1,-.6,-.2c-.2,-.1,-.3,-.1,-.5,-.2c-.2,-.1,-.5,-.1,-.7,-.1c-.2,0,-.5,.1,-.7,.2c-.2,.1,-.5,.2,-.6,.4c-.2,.2,-.4,.4,-.5,.7c-.2,.2,-.3,.5,-.3,.7l1.2,.4Z" class="g2_28"/>
</svg>