<?xml version="1.0" encoding="UTF-8" standalone="no"?>
<!DOCTYPE svg PUBLIC "-//W3C//DTD SVG 1.1//EN"
"http://www.w3.org/Graphics/SVG/1.1/DTD/svg11.dtd">
<svg viewBox="0 0 714 1017" version="1.1" xmlns="http://www.w3.org/2000/svg" xmlns:xlink="http://www.w3.org/1999/xlink">
<defs>
<style type="text/css"><![CDATA[
.g0_247{
fill: #D1D3D4;
}
.g1_247{
fill: none;
stroke: #000000;
stroke-width: 1.527;
stroke-linecap: butt;
stroke-linejoin: miter;
}
.g2_247{
fill: none;
stroke: #000000;
stroke-width: 1.145;
stroke-linecap: butt;
stroke-linejoin: miter;
}
.g3_247{
fill: #D0D1D0;
}
]]></style>
</defs>
<image preserveAspectRatio="none" x="34" y="28" width="49" height="82" xlink:href="img/1.png"/>
<path d="M2.6,48.9c0,0,-18.4,0,-18.4,15.4v7.2c0,0,0,15.4,18.4,15.4H62.8c0,0,18.5,0,18.5,-15.4V64.3c0,0,0,-15.4,-18.5,-15.4Z" class="g0_247"/>
<image preserveAspectRatio="none" x="0" y="861" width="201" height="159" xlink:href="img/2.png"/>
<path d="M485.7,130.7H615m-.8,32.3V131.4m-256.9,-.7H485.7m0,32.3V131.4m-256.9,-.7H357.3m0,32.3V131.4M99.6,130.7H228.8m0,32.3V131.4M100.4,163V131.4m385.3,32.4H615m-.8,32.3V164.5m-256.9,-.7H485.7m0,32.3V164.5m-256.9,-.7H357.3m0,32.3V164.5M99.6,163.8H228.8m0,32.3V164.5M100.4,196.1V164.5m385.3,32.4H615m-.8,32.3V197.6m-256.9,-.7H485.7m0,32.3V197.6m-256.9,-.7H357.3m0,32.3V197.6M99.6,196.9H228.8m0,32.3V197.6M100.4,229.2V197.6M485.7,230H615m-.8,32.3V230.7M357.3,230H485.7m0,32.3V230.7M228.8,230H357.3m0,32.3V230.7M99.6,230H228.8m0,32.3V230.7M100.4,262.3V230.7m385.3,32.4H615m-.8,32.3V263.8m-256.9,-.7H485.7m0,32.3V263.8m-256.9,-.7H357.3m0,32.3V263.8M99.6,263.1H228.8m0,32.3V263.8M100.4,295.4V263.8m385.3,32.3H615m-.8,32.4V296.9m-256.9,-.8H485.7m0,32.4V296.9m-256.9,-.8H357.3m0,32.4V296.9M99.6,296.1H228.8m0,32.4V296.9M100.4,328.5V296.9m385.3,32.3H615m-.8,32.4V330m-256.9,-.8H485.7m0,32.4V330m-256.9,-.8H357.3m0,32.4V330M99.6,329.2H228.8m0,32.4V330M100.4,361.6V330m385.3,32.3H615m-257.7,0H485.7m-256.9,0H357.3m-257.7,0H228.8" class="g1_247"/>
<path d="M443.1,385.3H615m-.6,32.5V385.9m-342.6,-.6H443.1m0,32.5V385.9M100,385.3H271.8M100.6,417.8V385.9m342.5,32.5H615m-.6,33.1V419m-342.6,-.6H443.1m0,32.3V419M100,418.4H271.8M100.6,451.5V419m513.8,65V451.5M443.1,484V452.3M100.6,484V451.5m342.5,33.1H615m-.6,33.1V485.2m-342.6,-.6H443.1m0,32.3V485.2M100,484.6H271.8M100.6,517.7V485.2m513.8,65V517.7M443.1,550.2V518.5M100.6,550.2V517.7m342.5,33.1H615m-.6,33.1V551.4m-342.6,-.6H443.1m0,32.3V551.4M100,550.8H271.8M100.6,583.9V551.4m513.8,65V583.9M443.1,616.4V584.6M100.6,616.4V583.9M443.1,617H615m-.6,33.1V617.5M271.8,617H443.1m0,32.3V617.5M100,617H271.8M100.6,650.1V617.5m513.8,65.1V650.1M443.1,682.6V650.8M100.6,682.6V650.1m342.5,33H615m-.6,33.1V683.7m-342.6,-.6H443.1m0,32.4V683.7M100,683.1H271.8M100.6,716.2V683.7m513.8,65.1V716.2M443.1,748.8V717M100.6,748.8V716.2m342.5,33.1H615m-.6,33.1V749.9m-342.6,-.6H443.1m0,32.4V749.9M100,749.3H271.8M100.6,782.4V749.9m513.8,65V782.4M443.1,814.9V783.2M100.6,814.9V782.4m342.5,33.1H615m-.6,33.1V816.1m-342.6,-.6H443.1m0,32.3V816.1M100,815.5H271.8M100.6,848.6V816.1m513.8,65V848.6M443.1,881.1V849.4M100.6,881.1V848.6m342.5,33.1H615m-343.2,0H443.1m-343.1,0H271.8" class="g2_247"/>
<path d="M271.8,417.8V385.9m0,64.8V419m171.3,32.5H613.8m-342,0H443.1m-342,0H271.8m0,32.5V452.3m0,64.6V485.2m171.3,32.5H613.8m-342,0H443.1m-342,0H271.8m0,32.5V518.5m0,64.6V551.4m171.3,32.5H613.8m-342,0H443.1m-342,0H271.8m0,32.5V584.6m0,64.7V617.5m171.3,32.6H613.8m-342,0H443.1m-342,0H271.8m0,32.5V650.8m0,64.7V683.7m171.3,32.5H613.8m-342,0H443.1m-342,0H271.8m0,32.6V717m0,64.7V749.9m171.3,32.5H613.8m-342,0H443.1m-342,0H271.8m0,32.5V783.2m0,64.6V816.1m171.3,32.5H613.8m-342,0H443.1m-342,0H271.8m0,32.5V849.4" class="g1_247"/>
<path d="M216.2,74.5c3.3,0,6,-2.5,6,-5.6c0,-3.2,-2.7,-5.7,-6,-5.7c-3.3,0,-5.9,2.5,-5.9,5.7c0,3.1,2.6,5.6,5.9,5.6Z" class="g3_247"/>
<path d="M221.2,69.8H709.7V67.9H221.2v1.9Z" class="g3_247"/>
</svg>