<?xml version="1.0" encoding="UTF-8" standalone="no"?>
<!DOCTYPE svg PUBLIC "-//W3C//DTD SVG 1.1//EN"
"http://www.w3.org/Graphics/SVG/1.1/DTD/svg11.dtd">
<svg viewBox="0 0 714 1017" version="1.1" xmlns="http://www.w3.org/2000/svg" xmlns:xlink="http://www.w3.org/1999/xlink">
<defs>
<style type="text/css"><![CDATA[
.g0_244{
fill: none;
stroke: #999999;
stroke-width: 1.527;
stroke-linecap: butt;
stroke-linejoin: miter;
}
.g1_244{
fill: none;
stroke: #666666;
stroke-width: 2.291;
stroke-linecap: butt;
stroke-linejoin: miter;
}
.g2_244{
fill: #D0D1D0;
}
.g3_244{
fill: #D1D3D4;
}
.g4_244{
fill: none;
stroke: #D0D1D0;
stroke-width: 6.111;
stroke-linecap: butt;
stroke-linejoin: round;
stroke-miterlimit: 4;
}
]]></style>
</defs>
<image preserveAspectRatio="none" x="640" y="30" width="49" height="82" xlink:href="img/1.png"/>
<image preserveAspectRatio="none" x="514" y="861" width="202" height="159" xlink:href="img/2.png"/>
<path d="M614.2,168.9V131.4m-134.1,-.7H615m-515.4,0H480.1" class="g0_244"/>
<path d="M480.9,168.9H613.4m-512.3,0H479.4" class="g1_244"/>
<path d="M614.2,225.7V168.9m0,94.9V227.2m0,94.2v-56m0,94.2V322.9m0,74.9V361.1m0,74.9V399.3m0,74.9V437.5m0,74.9V475.7m0,74.9V513.9m0,74.8V552.1m0,74.8V590.3m0,74.8V628.5m0,74.8V666.7m0,74.8V704.9m0,74.8V743.1m0,74.8V781.2m0,74.9V819.4m0,74.9V857.6M480.1,226.4H615m-515.4,0H480.1m0,38.2H615m-515.4,0H480.1m0,57.5H615m-515.4,0H480.1m0,38.2H615m-515.4,0H480.1m0,38.2H615m-515.4,0H480.1m0,38.2H615m-515.4,0H480.1m0,38.2H615m-515.4,0H480.1m0,38.2H615m-515.4,0H480.1m0,38.2H615m-515.4,0H480.1m0,38.2H615m-515.4,0H480.1m0,38.2H615m-515.4,0H480.1m0,38.2H615m-515.4,0H480.1m0,38.2H615m-515.4,0H480.1m0,38.2H615m-515.4,0H480.1m0,38.2H615m-515.4,0H480.1m0,38.2H615m-515.4,0H480.1m0,38.2H615m-515.4,0H480.1m0,38.2H615m-515.4,0H480.1m0,-726.2V131.4M100.4,168.9V131.4m379.7,94.3V168.9M100.4,225.7V168.9m379.7,94.9V227.2M100.4,263.8V227.2m379.7,94.2v-56m-379.7,56v-56m379.7,94.2V322.9M100.4,359.6V322.9m379.7,74.9V361.1M100.4,397.8V361.1M480.1,436V399.3M100.4,436V399.3m379.7,74.9V437.5M100.4,474.2V437.5m379.7,74.9V475.7M100.4,512.4V475.7m379.7,74.9V513.9M100.4,550.6V513.9m379.7,74.8V552.1M100.4,588.7V552.1m379.7,74.8V590.3M100.4,626.9V590.3m379.7,74.8V628.5M100.4,665.1V628.5m379.7,74.8V666.7M100.4,703.3V666.7m379.7,74.8V704.9M100.4,741.5V704.9m379.7,74.8V743.1M100.4,779.7V743.1m379.7,74.8V781.2M100.4,817.9V781.2m379.7,74.9V819.4M100.4,856.1V819.4m379.7,74.9V857.6M100.4,894.3V857.6" class="g0_244"/>
<path d="M422.8,74.5c-3.3,0,-6,-2.5,-6,-5.6c0,-3.2,2.7,-5.7,6,-5.7c3.3,0,5.9,2.5,5.9,5.7c0,3.1,-2.6,5.6,-5.9,5.6Z" class="g2_244"/>
<path d="M421.4,69.8H4.7V67.9H421.4v1.9Z" class="g2_244"/>
<path d="M654.9,48.9c0,0,-18.5,0,-18.5,15.4v7.2c0,0,0,15.4,18.5,15.4h60.2c0,0,18.5,0,18.5,-15.4V64.3c0,0,0,-15.4,-18.5,-15.4Z" class="g3_244"/>
<path d="M447.2,64.9c-.4,.3,-.9,.7,-1.2,1.2c-.4,.4,-.7,.9,-.9,1.5c-.2,.5,-.4,1.1,-.4,1.7c0,.5,.1,1,.2,1.3c.2,.4,.4,.7,.7,.9c.3,.2,.6,.4,1,.5c.4,.2,.8,.3,1.2,.4c.2,.1,.4,.1,.5,.1c.2,.1,.4,.1,.5,.2c.2,0,.3,0,.4,.1c.1,0,.1,.1,.1,.1c0,.3,-.2,.5,-.4,.7c-.3,.2,-.7,.5,-1.1,.6c-.4,.2,-1,.4,-1.6,.5c-.6,.1,-1.3,.1,-2,.1c-.6,0,-1.1,0,-1.6,-.2c-.5,-.1,-1,-.3,-1.3,-.6c-.4,-.3,-.6,-.7,-.8,-1c-.1,-.4,-.2,-.8,-.2,-1.2c0,-.1,0,-.3,0,-.5c.1,-.3,.1,-.7,.2,-1c.1,-.4,.1,-.7,.2,-1.1c.1,-.3,.2,-.6,.3,-1c.1,-.3,.2,-.7,.4,-1.1l-1.8,-.7c0,0,0,.1,-.1,.2c0,.2,-.1,.4,-.2,.6c-.1,.2,-.1,.5,-.2,.8c-.1,.3,-.2,.6,-.3,1c-.1,.3,-.2,.6,-.2,1c-.1,.4,-.2,.7,-.2,1.1c-.1,.3,-.1,.6,-.1,.9c0,.6,.1,1.1,.3,1.6c.2,.8,.6,1.4,1.1,1.9c.6,.4,1.2,.8,2,1.1c.8,.2,1.6,.3,2.5,.3c.5,0,1,0,1.5,0c.5,-.1,1,-.2,1.5,-.3c.5,-.1,1,-.3,1.4,-.5c.5,-.2,.9,-.5,1.3,-.8c.3,-.3,.6,-.7,.8,-1.1c.3,-.4,.4,-.9,.4,-1.5c0,0,0,-.1,0,-.1c0,-.4,0,-.7,-.2,-.9c-.1,-.3,-.3,-.5,-.6,-.7c-.3,-.2,-.5,-.3,-.9,-.4c-.3,-.1,-.6,-.2,-.9,-.2c-.3,-.1,-.5,-.2,-.8,-.2c-.2,-.1,-.4,-.1,-.6,-.2c-.2,-.1,-.3,-.2,-.5,-.3c-.1,-.2,-.1,-.3,-.1,-.6c0,-.2,0,-.4,.1,-.6c.1,-.2,.2,-.4,.4,-.6c.1,-.2,.3,-.4,.5,-.6c.1,-.2,.3,-.4,.5,-.5c.3,-.1,.5,-.3,.7,-.3c.2,-.1,.4,-.2,.5,-.2c.2,0,.4,0,.6,0c.1,0,.2,0,.3,0c.3,0,.6,.1,.9,.2l.7,-1.9c-.2,-.1,-.4,-.2,-.6,-.3c-.3,-.1,-.5,-.1,-.7,-.1c-.2,-.1,-.4,-.1,-.6,-.1q-.1,0,-.2,0c-.3,.1,-.5,.1,-.7,.1c-.6,.2,-1.2,.4,-1.7,.7Zm5.4,5.3c.2,.1,.5,.3,.9,.4c.3,.2,.6,.3,1,.4c.3,.2,.7,.3,1,.3c.4,.1,.7,.1,1.1,.1c.1,0,.2,0,.3,0c.5,0,1,-.1,1.5,-.2c.5,-.2,.9,-.5,1.3,-.8c.3,-.4,.6,-.8,.7,-1.1c.1,-.4,.1,-.7,.1,-1c0,-.3,0,-.6,-.1,-.9c-.1,-.5,-.3,-1,-.6,-1.5c-.3,-.5,-.7,-1,-1.1,-1.5c-.4,-.5,-.8,-.9,-1.3,-1.4c-.5,-.4,-1,-.8,-1.4,-1.1l-1.2,1.8c.2,.1,.5,.3,.8,.6c.3,.2,.6,.4,.9,.7c.3,.3,.6,.6,.8,.9c.3,.3,.5,.6,.7,.9c.2,.3,.4,.5,.5,.8c.1,.3,.2,.5,.2,.7c0,.2,0,.3,-.1,.5c-.1,.1,-.2,.2,-.3,.2c-.1,.1,-.3,.2,-.4,.2c-.2,0,-.3,.1,-.5,.1c-.1,0,-.2,0,-.4,0c-.1,0,-.2,0,-.3,0c-.2,0,-.5,0,-.8,-.1c-.3,-.1,-.6,-.1,-.9,-.2c-.3,-.2,-.6,-.3,-.9,-.4c-.3,-.1,-.5,-.3,-.7,-.4l-.8,2Zm15.1,-.9h-.3c-.2,0,-.4,0,-.6,-.1c-.2,-.1,-.3,-.3,-.5,-.5c-.2,-.3,-.4,-.6,-.5,-1c-.2,-.4,-.4,-.9,-.6,-1.5l-1.9,.8c.1,.3,.2,.6,.3,.9c.1,.3,.3,.6,.4,.9c.1,.4,.2,.7,.2,.9c.1,.3,.1,.6,.1,.8c0,.4,0,.7,-.2,1c-.1,.3,-.2,.7,-.5,1c-.2,.3,-.4,.5,-.7,.8c-.3,.3,-.6,.6,-1,.8c-.3,.3,-.7,.5,-1.1,.7c-.3,.3,-.7,.5,-1.1,.7l.9,1.8c.7,-.3,1.4,-.7,2,-1.2c.6,-.4,1.2,-.9,1.7,-1.4c.5,-.6,1,-1.2,1.3,-1.8c.3,-.6,.5,-1.2,.6,-1.9c.3,.2,.5,.3,.7,.3c.2,0,.4,0,.5,0h.3v-2Zm-.3,2h1.2c.6,0,1.2,0,1.7,-.2c.5,-.1,.9,-.3,1.3,-.6c.3,-.2,.6,-.6,.8,-1c.2,-.4,.3,-1,.3,-1.5c0,-.4,0,-.7,-.1,-1.1c0,-.4,-.1,-.7,-.2,-1.1c-.1,-.3,-.2,-.7,-.4,-1c-.1,-.4,-.2,-.7,-.4,-1l-1.8,.9c.1,.3,.3,.6,.4,.9c.1,.3,.2,.7,.3,1c.1,.3,.2,.5,.3,.8c0,.2,.1,.4,.1,.6c0,.3,-.1,.5,-.2,.7c-.2,.1,-.4,.3,-.6,.4c-.2,.1,-.4,.1,-.7,.2c-.2,0,-.5,0,-.8,0h-1.2v2Zm2.5,1.1l-1.5,1.5l1.5,1.6l1.6,-1.6l-1.6,-1.5Zm5.8,-5.7c0,.2,.1,.5,.2,.8c.1,.3,.2,.6,.3,.9c.1,.4,.2,.7,.3,1c0,.4,.1,.7,.1,1c0,.3,-.1,.6,-.2,.9c-.1,.4,-.3,.7,-.5,1c-.2,.3,-.4,.6,-.7,.9c-.3,.2,-.6,.5,-.9,.8c-.4,.2,-.7,.5,-1.1,.7c-.4,.2,-.7,.4,-1.1,.6l.9,1.8c.5,-.2,.9,-.5,1.4,-.8c.5,-.3,.9,-.6,1.3,-.9c.4,-.4,.8,-.7,1.2,-1.1c.3,-.4,.6,-.8,.9,-1.2c.2,-.4,.4,-.9,.6,-1.3c.1,-.5,.2,-.9,.2,-1.4c0,-.4,0,-.7,-.1,-1.1c0,-.4,-.1,-.7,-.2,-1.1c-.1,-.4,-.2,-.7,-.3,-1.1c-.1,-.4,-.2,-.7,-.3,-1.1l-2,.7Zm8.5,2.6h-.3c-.2,0,-.4,0,-.6,-.1c-.1,0,-.2,-.1,-.3,-.2c-.1,-.1,-.2,-.2,-.3,-.3c0,-.2,0,-.4,0,-.6V68c0,-.2,0,-.3,0,-.5c0,-.1,0,-.3,0,-.5c0,-.1,0,-.3,0,-.5c0,-.2,0,-.3,0,-.5c0,-.3,0,-.6,0,-.9c0,-.3,0,-.6,0,-.9c0,-.4,0,-.9,0,-1.5c-.1,-.5,-.1,-1,-.1,-1.5c-.1,-.5,-.1,-1,-.1,-1.4c-.1,-.5,-.1,-.8,-.2,-1.1l-2,.6c0,.2,.1,.5,.1,.8c.1,.3,.1,.7,.1,1.1c0,.3,.1,.7,.1,1.1c0,.4,0,.8,0,1.2c0,.4,0,.8,.1,1.2c0,.4,0,.8,0,1.1c0,.6,0,1,-.1,1.4c0,.4,0,.7,0,.9c0,1.1,.3,1.9,.9,2.4c.5,.6,1.3,.8,2.4,.8h.3v-2Zm-.3,2h2.7c.5,0,1,0,1.5,-.2c.4,-.2,.8,-.4,1.2,-.8c.4,-.3,.6,-.7,.8,-1.1c.3,-.5,.4,-1,.4,-1.5c0,-.3,-.1,-.6,-.1,-1c-.1,-.3,-.2,-.7,-.4,-1c-.1,-.4,-.3,-.8,-.6,-1.2c-.3,-.4,-.6,-.8,-.9,-1.2c-.3,-.3,-.5,-.5,-.8,-.8c-.2,-.2,-.4,-.4,-.7,-.6l5.2,-2.3l-.8,-1.9l-6.3,2.9l-.2,1.9c.5,.4,.9,.9,1.4,1.3c.4,.5,.8,.9,1.1,1.3c.3,.5,.6,.9,.8,1.3c.2,.4,.3,.8,.3,1.2c0,.2,-.1,.5,-.2,.7c-.1,.2,-.2,.4,-.4,.5c-.2,.1,-.4,.2,-.6,.3c-.3,.1,-.5,.1,-.8,.1c-.2,.1,-.5,.1,-.8,.1c-.2,0,-.5,0,-.8,0h-1v2Zm16.6,5.5l-.4,-7.2c.2,.1,.5,.2,.8,.3c.3,.1,.6,.2,1,.3c.3,.1,.6,.3,1,.4c.3,.1,.6,.2,.9,.3c.3,0,.6,.1,.8,.1c.2,.1,.3,.1,.4,.1q.1,0,.2,0c.1,0,.1,-.1,.2,-.1c.1,-.1,.2,-.1,.3,-.2c.1,0,.2,-.1,.2,-.2c.1,0,.2,-.1,.2,-.1c.2,.2,.4,.4,.7,.6c.2,.2,.5,.2,.7,.2h.3v-2h-.2c-.1,0,-.2,0,-.3,-.1c0,-.1,-.1,-.2,-.2,-.4c0,-.1,-.1,-.3,-.1,-.5c-.1,-.2,-.1,-.4,-.2,-.7c-.1,-.5,-.2,-.9,-.3,-1.3c-.1,-.5,-.3,-.8,-.5,-1.1c-.3,-.3,-.6,-.6,-.9,-.8c-.3,-.2,-.7,-.2,-1.2,-.2h-.1c-.3,0,-.5,0,-.8,.1c-.2,.1,-.5,.2,-.7,.4c-.2,.1,-.4,.3,-.6,.5c-.2,.3,-.4,.5,-.5,.8c-.2,.2,-.3,.5,-.4,.7c-.2,.3,-.3,.6,-.4,.8c-.1,0,-.2,0,-.4,0c-.1,0,-.3,0,-.4,0c-.2,0,-.3,.1,-.4,.1c-.1,.1,-.2,.1,-.3,.2c-.2,.2,-.3,.3,-.4,.5c-.1,.2,-.2,.4,-.3,.5c0,.2,0,.4,0,.5c0,.1,0,.2,0,.2l.3,7.7l2,-.4Zm2.3,-10c.1,-.1,.3,-.2,.4,-.3c.1,-.1,.2,-.2,.3,-.2c.1,-.1,.2,-.1,.3,-.1c0,0,.1,0,.1,0c.1,0,.3,0,.4,.1c.2,.1,.3,.2,.4,.3c.1,.2,.2,.3,.3,.5c.1,.2,.2,.4,.2,.7c.1,.2,.1,.4,.2,.7c.1,.2,.1,.4,.2,.7c-.3,-.1,-.6,-.1,-.9,-.2c-.4,-.1,-.7,-.2,-1,-.3c-.3,-.1,-.6,-.2,-.9,-.3c-.3,-.2,-.5,-.2,-.7,-.3c.1,-.1,.1,-.3,.2,-.4c0,-.1,.1,-.3,.2,-.4c.1,-.2,.2,-.4,.3,-.5Zm4.7,4.5h1.7c.6,0,1.2,0,1.7,-.1c.5,-.2,1,-.4,1.4,-.6c.4,-.3,.7,-.6,.9,-1.1c.3,-.4,.4,-.9,.4,-1.5c0,-.4,-.1,-.7,-.1,-1.1c-.1,-.4,-.2,-.7,-.3,-1.1c-.1,-.3,-.2,-.7,-.3,-1c-.2,-.4,-.3,-.7,-.4,-1l-1.9,.9c.2,.3,.3,.6,.4,.9c.2,.3,.3,.7,.4,1c.1,.3,.2,.5,.2,.8c.1,.2,.1,.4,.1,.6c0,.3,-.1,.5,-.2,.7c-.2,.1,-.4,.3,-.7,.4c-.2,.1,-.5,.1,-.8,.2c-.3,0,-.5,0,-.8,0h-1.7v2Zm4.8,-12.7c-.1,0,-.3,0,-.4,-.1c-.1,0,-.2,0,-.3,0c0,0,-.1,0,-.2,-.1q-.1,0,-.2,0c-.1,0,-.3,.1,-.4,.1c-.1,0,-.3,0,-.4,.1c-.2,.1,-.4,.2,-.6,.4c-.2,.2,-.3,.3,-.4,.6c-.1,.2,-.1,.3,-.1,.5c0,.1,0,.2,0,.2c0,.2,0,.4,.1,.6c.1,.2,.2,.3,.3,.5c.1,.2,.3,.3,.5,.4l-1.3,.7l.5,.9l1.9,-1l2,-1.2l-.6,-.8c-.3,.1,-.5,.3,-.7,.3c-.2,.1,-.3,.2,-.4,.2q-.1,.1,-.2,.1c0,0,-.1,0,-.2,.1c0,0,-.1,0,-.2,0c-.1,0,-.2,0,-.3,-.1c-.1,0,-.2,-.1,-.3,-.1c-.1,-.1,-.1,-.2,-.2,-.3c0,-.1,0,-.2,0,-.3c0,-.2,0,-.3,.1,-.4c0,0,.1,-.1,.2,-.2c.1,-.1,.2,-.1,.3,-.2q.1,0,.2,0q.1,0,.2,0c0,0,.1,0,.1,0c.1,0,.2,0,.4,0c.1,0,.2,.1,.3,.1l.3,-1Zm7.2,10.7h-.4c-.2,0,-.3,0,-.5,-.1c-.2,0,-.3,-.1,-.4,-.2c-.1,-.1,-.2,-.2,-.2,-.3c0,-.2,-.1,-.4,-.1,-.6V68c0,-.2,0,-.3,0,-.5c0,-.1,0,-.3,.1,-.5c0,-.1,0,-.3,0,-.5c0,-.2,0,-.3,0,-.5c0,-.3,0,-.6,0,-.9c-.1,-.3,-.1,-.6,-.1,-.9c0,-.4,0,-.9,0,-1.5c0,-.5,0,-1,-.1,-1.5c0,-.5,0,-1,-.1,-1.4c0,-.5,-.1,-.8,-.2,-1.1l-2,.6c.1,.2,.1,.5,.2,.8c0,.3,0,.7,.1,1.1c0,.3,0,.7,0,1.1c.1,.4,.1,.8,.1,1.2c0,.4,0,.8,0,1.2c0,.4,0,.8,0,1.1c0,.6,0,1,0,1.4c0,.4,0,.7,0,.9c0,1.1,.3,1.9,.8,2.4c.6,.6,1.4,.8,2.5,.8h.3v-2Zm4,-1.7c.1,-.2,.2,-.5,.3,-.7c.1,-.2,.3,-.4,.5,-.5c.1,-.1,.3,-.2,.5,-.2c.2,0,.4,.1,.5,.1c.2,.1,.3,.3,.4,.4c.1,.2,.2,.3,.3,.5c.1,.2,.2,.5,.3,.7c0,.2,.1,.5,.1,.7c.1,.2,.2,.5,.2,.7c-.3,0,-.6,-.1,-.9,-.2c-.3,-.1,-.6,-.2,-1,-.3c-.3,-.1,-.6,-.2,-.8,-.3c-.3,-.1,-.5,-.2,-.7,-.3c.1,-.2,.1,-.4,.3,-.6Zm3,3.6c.1,-.1,.1,-.2,.2,-.2c.1,-.1,.2,-.2,.3,-.3c.1,-.1,.1,-.2,.2,-.2c.2,.2,.4,.4,.6,.6c.2,.2,.5,.2,.8,.2h.3v-2h-.3q-.1,0,-.2,-.1c-.1,-.1,-.2,-.2,-.2,-.4c-.1,-.1,-.1,-.3,-.2,-.5c0,-.2,-.1,-.4,-.1,-.7c-.1,-.5,-.2,-.9,-.4,-1.3c-.1,-.4,-.3,-.8,-.5,-1.1c-.2,-.3,-.5,-.5,-.8,-.7c-.4,-.2,-.8,-.2,-1.3,-.2c-.4,0,-.7,0,-1,.2c-.3,.1,-.6,.3,-.8,.6c-.3,.2,-.5,.5,-.7,.8c-.2,.3,-.3,.6,-.5,.9c-.1,.3,-.3,.6,-.4,.9c-.2,.3,-.3,.6,-.5,.8c-.2,.2,-.4,.4,-.7,.6c-.2,.1,-.6,.2,-1,.2h-.1v2h.1c.4,0,.6,0,.9,0c.2,-.1,.5,-.2,.7,-.3c.2,-.1,.4,-.2,.6,-.4c.2,-.2,.4,-.3,.6,-.6c.2,.2,.5,.4,.9,.5c.3,.2,.7,.3,1.1,.4c.4,.1,.8,.2,1.1,.3c.4,.1,.7,.1,1,.1c.1,0,.2,0,.3,-.1Zm2.1,-1.9v2h.3c.7,0,1.3,-.1,1.8,-.3c.5,-.2,.9,-.5,1.3,-.9c.3,.3,.6,.5,.9,.7c.3,.2,.7,.3,1,.4c.4,.1,.8,.2,1.2,.2c.4,.1,.9,.1,1.4,.1c.5,0,1,0,1.5,-.1c.5,0,1,-.1,1.5,-.2c.5,-.1,1,-.3,1.4,-.5c.5,-.2,.9,-.4,1.2,-.7c.4,-.3,.7,-.7,.9,-1.1c.2,-.5,.4,-1,.4,-1.5c0,-.1,0,-.2,0,-.3c0,-.4,-.1,-.7,-.2,-1.1c-.2,-.4,-.5,-.8,-.8,-1.1c-.4,-.3,-.8,-.6,-1.2,-.8c-.5,-.2,-.9,-.3,-1.4,-.3c-.4,0,-.8,.1,-1.2,.2c-.4,.1,-.7,.2,-1.1,.4c-.4,.1,-.7,.3,-1,.5c-.4,.3,-.7,.5,-1,.8c-.3,.3,-.5,.5,-.7,.8c-.2,.2,-.4,.5,-.6,.8c-.2,.2,-.3,.4,-.5,.7c-.1,.2,-.2,.4,-.3,.6c-.1,-.2,-.2,-.4,-.2,-.6c-.1,-.2,-.1,-.4,-.1,-.5v-.2c0,-.2,.1,-.4,.1,-.6c0,-.2,.1,-.4,.2,-.7l-1.8,-.5c0,.2,-.1,.5,-.1,.7c-.1,.3,-.2,.5,-.2,.8c-.1,.3,-.2,.5,-.3,.8c-.1,.3,-.3,.5,-.4,.8c-.1,.1,-.2,.1,-.2,.2c-.1,.1,-.2,.2,-.3,.2c-.2,.1,-.3,.2,-.5,.2c-.2,.1,-.5,.1,-.8,.1h-.2Zm8.8,-2.6c.2,-.1,.4,-.2,.6,-.3c.2,-.1,.4,-.2,.6,-.3c.2,-.1,.4,-.1,.6,-.2c.2,0,.4,0,.5,0c.1,0,.2,0,.3,0c.3,0,.6,.1,.8,.2c.2,.1,.4,.3,.6,.4c.2,.2,.3,.5,.3,.7c-.1,.4,-.3,.8,-.6,1c-.2,.3,-.6,.5,-.9,.6c-.4,.2,-.8,.3,-1.3,.4c-.4,.1,-.9,.1,-1.2,.1c-.4,0,-.7,0,-1,0c-.2,0,-.3,0,-.5,0c-.5,0,-.9,0,-1.2,0c0,-.1,.1,-.3,.3,-.5c.1,-.2,.2,-.4,.4,-.6c.2,-.2,.4,-.4,.5,-.6c.2,-.1,.5,-.3,.7,-.5c.1,-.1,.3,-.3,.5,-.4ZM540,59.6l-1.5,1.5l1.5,1.5l1.5,-1.5L540,59.6Zm14.1,6.7c.2,.1,.3,.2,.4,.4c.2,.2,.3,.4,.4,.6c.2,.2,.3,.4,.4,.7c.1,.2,.1,.4,.2,.7c.1,.2,.1,.4,.1,.6c-.1,0,-.2,0,-.4,0c-.1,0,-.3,0,-.4,0c-.1,0,-.3,0,-.4,0c-.1,0,-.3,0,-.4,0c-.2,-.1,-.4,-.1,-.6,-.1c-.2,-.1,-.4,-.2,-.5,-.2c-.2,-.1,-.3,-.3,-.4,-.4c-.1,-.1,-.2,-.3,-.2,-.6c0,-.2,.1,-.4,.1,-.6c.1,-.2,.2,-.4,.4,-.6c.1,-.2,.3,-.4,.4,-.5c.2,-.1,.3,-.1,.5,-.1c.1,0,.3,0,.4,.1Zm-3.6,10.6c.6,-.1,1.2,-.2,1.8,-.4c.6,-.2,1.2,-.5,1.7,-.8c.5,-.3,1,-.7,1.4,-1.1c.4,-.4,.8,-.8,1.1,-1.3c.3,-.5,.6,-1.1,.7,-1.6c.2,-.6,.3,-1.3,.3,-2c0,-.4,-.1,-.8,-.1,-1.2c-.1,-.5,-.2,-.9,-.3,-1.3c-.2,-.4,-.3,-.7,-.5,-1.1c-.2,-.3,-.4,-.6,-.7,-.9c-.7,-.7,-1.4,-1.1,-2.2,-1.1c-.4,0,-.7,.1,-.9,.2c-.3,.1,-.6,.3,-.8,.5c-.2,.2,-.4,.4,-.6,.7c-.2,.3,-.3,.6,-.4,.9c-.2,.3,-.3,.6,-.3,.9c-.1,.3,-.1,.6,-.1,.9c0,.5,0,.9,.2,1.2c.1,.3,.3,.6,.5,.9c.2,.2,.5,.4,.8,.5c.3,.2,.6,.3,1,.3c.3,.1,.7,.2,1.1,.2c.4,0,.9,0,1.3,0c-.1,.4,-.3,.8,-.6,1.1c-.3,.4,-.6,.7,-1.1,1c-.5,.4,-1,.6,-1.6,.9c-.7,.3,-1.4,.5,-2.2,.6l.5,2Zm14.6,-9.1c-.2,.2,-.3,.5,-.5,.9c-.1,.3,-.2,.6,-.3,1c-.1,.3,-.1,.7,-.2,1c0,.4,0,.7,0,1.1c0,.6,0,1.1,.2,1.5c.1,.5,.3,.9,.6,1.2c.3,.4,.6,.7,.9,.9c.4,.3,.7,.5,1.1,.7c.4,.1,.8,.3,1.2,.3c.4,.1,.7,.2,1.1,.2c.4,0,.8,-.1,1.2,-.1c.4,-.1,.8,-.3,1.1,-.4c.4,-.2,.8,-.4,1.2,-.7c.3,-.3,.6,-.6,.9,-1c.3,-.4,.5,-.9,.6,-1.4c.2,-.5,.3,-1.1,.3,-1.8c0,-.4,0,-.9,-.1,-1.5c0,-.6,0,-1.2,0,-1.8c0,-.7,0,-1.4,-.1,-2.1c0,-.7,0,-1.4,0,-2.1c-.1,-.8,-.1,-1.6,-.1,-2.4c-.1,-.9,-.1,-1.8,-.2,-2.6l-2,.3c0,.9,.1,1.7,.1,2.5c.1,.9,.1,1.6,.1,2.4c.1,.7,.1,1.3,.1,2c.1,.7,.1,1.3,.1,2c0,.6,.1,1.2,.1,1.8c0,.6,0,1.1,0,1.5c0,.6,-.1,1.1,-.3,1.5c-.2,.4,-.5,.8,-.8,1c-.4,.3,-.7,.5,-1.1,.6c-.4,.2,-.8,.2,-1.2,.2c-.3,0,-.7,0,-1.1,-.2c-.4,-.1,-.7,-.3,-1,-.5c-.3,-.2,-.6,-.5,-.8,-.9c-.2,-.3,-.3,-.7,-.3,-1.1c0,-.6,.1,-1.1,.2,-1.7c.2,-.5,.4,-1.1,.7,-1.5l-1.7,-.8Zm15,-1.5c.1,.1,.3,.2,.4,.4c.1,.2,.3,.4,.4,.6c.1,.2,.2,.4,.3,.7c.1,.2,.2,.4,.3,.7c0,.2,.1,.4,.1,.6c-.2,0,-.3,0,-.4,0c-.2,0,-.3,0,-.4,0c-.2,0,-.3,0,-.4,0c-.2,0,-.3,0,-.4,0c-.2,-.1,-.4,-.1,-.6,-.1c-.2,-.1,-.4,-.2,-.6,-.2c-.1,-.1,-.3,-.3,-.4,-.4c-.1,-.1,-.1,-.3,-.1,-.6c0,-.2,0,-.4,.1,-.6c.1,-.2,.2,-.4,.3,-.6c.2,-.2,.3,-.4,.5,-.5c.1,-.1,.3,-.1,.4,-.1c.2,0,.3,0,.5,.1Zm-3.6,10.6c.6,-.1,1.2,-.2,1.8,-.4c.6,-.2,1.1,-.5,1.6,-.8c.5,-.3,1,-.7,1.4,-1.1c.5,-.4,.8,-.8,1.2,-1.3c.3,-.5,.5,-1.1,.7,-1.6c.2,-.6,.2,-1.3,.2,-2c0,-.4,0,-.8,-.1,-1.2c0,-.5,-.1,-.9,-.3,-1.3c-.1,-.4,-.3,-.7,-.5,-1.1c-.2,-.3,-.4,-.6,-.6,-.9c-.7,-.7,-1.5,-1.1,-2.3,-1.1c-.3,0,-.6,.1,-.9,.2c-.3,.1,-.5,.3,-.7,.5c-.3,.2,-.5,.4,-.6,.7c-.2,.3,-.4,.6,-.5,.9c-.1,.3,-.2,.6,-.3,.9c0,.3,-.1,.6,-.1,.9c0,.5,.1,.9,.2,1.2c.2,.3,.3,.6,.5,.9c.3,.2,.5,.4,.8,.5c.3,.2,.7,.3,1,.3c.4,.1,.8,.2,1.2,.2c.4,0,.8,0,1.3,0c-.1,.4,-.3,.8,-.6,1.1c-.3,.4,-.7,.7,-1.1,1c-.5,.4,-1.1,.6,-1.7,.9c-.6,.3,-1.3,.5,-2.1,.6l.5,2Zm8.7,-17.6c0,.9,.1,1.8,.2,2.8c0,.9,.1,2,.1,3.1c0,.4,0,.9,0,1.5c0,1.3,0,2.9,-.1,4.6l2.1,-.3c0,-.4,0,-.9,0,-1.3c0,-.5,.1,-1,.1,-1.6c0,-.5,0,-1.1,0,-1.8c0,-.6,0,-1.3,0,-2c0,-.9,-.1,-1.8,-.1,-2.7c-.1,-1,-.2,-1.9,-.3,-2.9l-2,.6Zm8.3,12c.3,0,.6,-.1,.9,-.2c.3,0,.6,-.1,.8,-.3c.3,-.1,.6,-.3,.8,-.4c.1,.1,.3,.2,.4,.3c.2,.2,.3,.3,.5,.4c.2,0,.4,.1,.6,.2c.3,0,.6,0,.9,0h.2v-2h-.2c-.2,0,-.4,0,-.5,-.1c-.1,-.1,-.3,-.1,-.4,-.2c-.1,-.2,-.2,-.3,-.3,-.4c0,-.2,-.1,-.4,-.2,-.5l-2,-4.9c-.1,-.3,-.2,-.6,-.4,-.8c-.1,-.3,-.2,-.5,-.3,-.8l-1.8,.8l2.5,6.2c-.1,.1,-.3,.2,-.5,.2c-.2,.1,-.4,.2,-.6,.3c-.2,0,-.4,.1,-.6,.1c-.2,0,-.4,.1,-.6,.1c-.4,0,-.8,-.1,-1.2,-.3c-.4,-.2,-.9,-.6,-1.4,-1L589,69.6c.5,.6,1,1,1.6,1.3c.6,.3,1.2,.4,1.9,.4c.3,0,.7,0,1,0Zm4.8,0H600c1,0,2,-.1,3,-.3c1,-.3,1.9,-.6,2.8,-.9c.8,-.3,1.7,-.7,2.5,-1.1c.8,-.4,1.6,-.8,2.3,-1.1l.2,-2.1c-.4,0,-.9,-.1,-1.3,-.2c-.4,-.1,-.8,-.2,-1.2,-.4c-.4,-.2,-.8,-.3,-1.2,-.5c-.4,-.2,-.8,-.4,-1.2,-.6c-.4,-.1,-.8,-.3,-1.2,-.4c-.4,-.1,-.8,-.1,-1.2,-.1c-.4,0,-.8,0,-1.2,.2c-.3,.1,-.7,.3,-1,.5c-.3,.3,-.5,.5,-.8,.8c-.2,.3,-.5,.7,-.6,1l1.6,1c0,0,.1,-.1,.1,-.1c.1,-.1,.2,-.2,.2,-.4c.1,-.1,.2,-.2,.3,-.3c.1,-.1,.3,-.2,.4,-.3c.1,-.1,.3,-.2,.4,-.3c.2,-.1,.4,-.1,.6,-.1c.3,0,.6,.1,.9,.2c.4,.1,.7,.2,1,.4c.4,.2,.8,.3,1.2,.5c.4,.2,.8,.3,1.2,.4c-.5,.3,-1.1,.5,-1.8,.8c-.6,.3,-1.3,.5,-2,.7c-.6,.2,-1.3,.4,-2,.5c-.7,.1,-1.4,.2,-2,.2h-1.7v2Zm6.5,1.1l-1.5,1.5l1.5,1.5l1.6,-1.5l-1.6,-1.5Z" class="g4_244"/>
</svg>