<?xml version="1.0" encoding="UTF-8" standalone="no"?>
<!DOCTYPE svg PUBLIC "-//W3C//DTD SVG 1.1//EN"
"http://www.w3.org/Graphics/SVG/1.1/DTD/svg11.dtd">
<svg viewBox="0 0 714 1017" version="1.1" xmlns="http://www.w3.org/2000/svg" xmlns:xlink="http://www.w3.org/1999/xlink">
<defs>
<style type="text/css"><![CDATA[
.g0_142{
fill: #F1EFEE;
}
.g1_142{
fill: #D0D1D0;
}
.g2_142{
fill: #D1D3D4;
}
.g3_142{
fill: none;
stroke: #D0D1D0;
stroke-width: 6.111;
stroke-linecap: butt;
stroke-linejoin: round;
stroke-miterlimit: 4;
}
]]></style>
</defs>
<image preserveAspectRatio="none" x="640" y="30" width="49" height="82" xlink:href="img/1.png"/>
<image preserveAspectRatio="none" x="514" y="861" width="202" height="159" xlink:href="img/2.png"/>
<path d="M99.6,171.7H615V305.3H99.6V171.7Z" class="g0_142"/>
<path d="M99.6,587.2H615V891.9H99.6V587.2Z" class="g0_142"/>
<image preserveAspectRatio="none" x="620" y="172" width="52" height="52" xlink:href="img/3.png"/>
<image preserveAspectRatio="none" x="624" y="587" width="52" height="52" xlink:href="img/4.png"/>
<path d="M391.5,74.5c-3.3,0,-6,-2.5,-6,-5.6c0,-3.2,2.7,-5.7,6,-5.7c3.3,0,6,2.5,6,5.7c0,3.1,-2.7,5.6,-6,5.6Z" class="g1_142"/>
<path d="M391.5,69.8H4.7V67.9H391.5v1.9Z" class="g1_142"/>
<path d="M654.9,48.9c0,0,-18.5,0,-18.5,15.4v7.2c0,0,0,15.4,18.5,15.4h60.2c0,0,18.5,0,18.5,-15.4V64.3c0,0,0,-15.4,-18.5,-15.4Z" class="g2_142"/>
<path d="M410.9,71.7h-.4c-.2,0,-.4,-.1,-.5,-.1c-.2,0,-.3,-.1,-.4,-.2c-.1,-.1,-.2,-.2,-.2,-.4c0,-.1,-.1,-.3,-.1,-.5v-.1c0,-.2,0,-.3,0,-.5c0,-.2,0,-.3,0,-.5c0,-.2,.1,-.3,.1,-.5c0,-.2,0,-.4,0,-.6c0,-.2,0,-.5,-.1,-.8c0,-.3,0,-.6,0,-.9c0,-.5,0,-1,0,-1.5c0,-.5,0,-1,-.1,-1.5c0,-.5,-.1,-1,-.1,-1.4c0,-.5,-.1,-.9,-.2,-1.2l-2,.6c.1,.3,.1,.6,.2,.9c0,.3,0,.7,.1,1c0,.4,0,.8,0,1.2c.1,.4,.1,.8,.1,1.2c0,.4,0,.8,0,1.2c0,.4,0,.7,0,1.1c0,.5,0,1,0,1.4c0,.4,0,.7,0,.8c0,1.1,.3,2,.8,2.5c.6,.5,1.4,.8,2.5,.8h.3v-2Zm-.3,2h.1c.8,0,1.6,0,2.3,-.1c.7,-.1,1.3,-.2,1.8,-.4c.2,.1,.4,.2,.7,.2c.2,.1,.5,.2,.8,.2c.3,.1,.6,.1,.8,.1c.3,0,.5,0,.8,0c.1,0,.4,0,.6,0c.2,0,.5,-.1,.7,-.1c.3,0,.5,-.1,.7,-.2c.2,0,.4,-.1,.6,-.2c.4,-.3,.8,-.6,1.1,-1c.2,-.4,.4,-.8,.5,-1.1c.1,-.3,.1,-.6,.1,-.8c0,-.3,0,-.5,-.1,-.8c-.1,-.5,-.3,-.9,-.7,-1.3c-.2,-.3,-.4,-.5,-.6,-.7c-.3,-.1,-.5,-.3,-.8,-.5c-.3,-.2,-.6,-.3,-1,-.5c-.4,-.2,-.8,-.4,-1.3,-.6c-.3,-.1,-.5,-.2,-.8,-.3c-.3,-.2,-.6,-.3,-.8,-.5c-.3,-.1,-.6,-.2,-.8,-.4c-.3,-.1,-.5,-.2,-.7,-.3c-.2,-.1,-.4,-.2,-.5,-.2c-.1,-.1,-.2,-.1,-.2,-.1L412.7,66c.1,.1,.3,.2,.3,.2c.1,0,.2,.1,.2,.1c-.2,.1,-.5,.3,-.6,.5c-.2,.3,-.4,.5,-.5,.8c-.1,.2,-.2,.5,-.3,.8c-.1,.3,-.1,.6,-.1,.9c0,.4,.1,.8,.2,1.2c.1,.4,.3,.8,.6,1.1c-.2,0,-.4,0,-.5,0c-.2,0,-.3,0,-.4,0c-.1,.1,-.3,.1,-.4,.1c-.1,0,-.3,0,-.5,0h-.1v2Zm7.9,-5.1c0,-.1,0,-.2,0,-.3c.3,.2,.5,.3,.8,.5c.2,.1,.4,.3,.6,.4c.2,.2,.3,.4,.4,.6c.1,.2,.2,.3,.2,.5c0,.2,-.1,.4,-.2,.5c-.1,.2,-.3,.4,-.5,.5c-.2,.1,-.5,.2,-.8,.3c-.3,.1,-.6,.1,-.9,.1c-.1,0,-.2,0,-.3,0c0,0,-.1,0,-.2,0c.3,-.4,.5,-.9,.7,-1.3c.2,-.5,.2,-1,.2,-1.5c0,-.1,0,-.2,0,-.3Zm-2.9,-1.1c.2,.1,.4,.2,.5,.3c.2,.2,.3,.3,.4,.5c0,.2,.1,.4,.1,.5c0,.1,0,.2,0,.3c-.1,.3,-.2,.6,-.3,.8c-.1,.2,-.2,.4,-.4,.6c-.1,.2,-.3,.3,-.5,.4c-.2,.1,-.4,.2,-.6,.2c-.2,0,-.3,-.1,-.5,-.2c-.1,-.1,-.2,-.3,-.3,-.4c-.1,-.2,-.2,-.3,-.3,-.5c-.1,-.2,-.1,-.4,-.1,-.5c0,-.1,-.1,-.1,-.1,-.2c0,-.2,.1,-.4,.2,-.6c0,-.3,.2,-.5,.3,-.7c.2,-.2,.3,-.4,.5,-.5c.2,-.1,.4,-.2,.5,-.2q.1,0,.2,0c.1,.1,.3,.1,.4,.2Zm14.2,2.6c-.1,.3,-.3,.6,-.4,.9c-.1,.3,-.3,.7,-.3,1c-.1,.4,-.2,.7,-.2,1.1c-.1,.3,-.1,.7,-.1,1v.1c0,.5,.1,1,.2,1.5c.2,.4,.4,.8,.7,1.2c.2,.3,.5,.7,.9,.9c.3,.3,.7,.5,1.1,.6c.3,.2,.7,.3,1.1,.4c.4,.1,.8,.1,1.1,.1c.4,0,.8,0,1.2,-.1c.4,-.1,.8,-.2,1.2,-.4c.4,-.1,.8,-.4,1.1,-.6c.4,-.3,.7,-.7,.9,-1c.3,-.4,.5,-.9,.7,-1.4c.1,-.6,.2,-1.2,.2,-1.8c0,-.4,0,-.9,0,-1.5c0,-.6,0,-1.2,-.1,-1.9c0,-.6,0,-1.3,0,-2c0,-.7,-.1,-1.4,-.1,-2.1c0,-.8,-.1,-1.6,-.1,-2.5c0,-.8,-.1,-1.7,-.1,-2.6l-2.1,.4c.1,.8,.1,1.7,.2,2.5c0,.8,.1,1.6,.1,2.4c0,.6,.1,1.3,.1,2c0,.6,0,1.3,.1,1.9c0,.7,0,1.3,0,1.9c0,.5,.1,1,.1,1.4c0,.6,-.2,1.2,-.4,1.6c-.2,.4,-.4,.7,-.8,1c-.3,.3,-.7,.5,-1.1,.6c-.4,.1,-.7,.2,-1.1,.2c-.4,0,-.7,-.1,-1.1,-.2c-.4,-.1,-.8,-.3,-1.1,-.5c-.3,-.3,-.5,-.6,-.7,-.9c-.2,-.3,-.3,-.7,-.3,-1.2c0,-.5,0,-1.1,.2,-1.6c.1,-.6,.4,-1.1,.7,-1.6l-1.8,-.8Zm15,-1.4c.2,.1,.3,.2,.4,.4c.2,.1,.3,.3,.4,.6c.2,.2,.3,.4,.4,.6c.1,.3,.1,.5,.2,.7c.1,.3,.1,.5,.1,.7c-.1,0,-.2,0,-.4,0c-.1,0,-.3,0,-.4,0c-.1,-.1,-.3,-.1,-.4,-.1c-.1,0,-.3,0,-.4,0c-.2,0,-.4,0,-.6,-.1c-.2,0,-.4,-.1,-.5,-.2c-.2,-.1,-.3,-.2,-.4,-.3c-.1,-.2,-.2,-.4,-.2,-.6c0,-.2,.1,-.4,.1,-.6c.1,-.3,.2,-.5,.4,-.7c.1,-.1,.3,-.3,.4,-.4c.2,-.1,.3,-.2,.5,-.2c.1,0,.3,.1,.4,.2Zm-3.6,10.6c.6,-.1,1.2,-.3,1.8,-.5c.6,-.2,1.2,-.4,1.7,-.7c.5,-.3,1,-.7,1.4,-1.1c.4,-.4,.8,-.8,1.1,-1.3c.3,-.5,.6,-1.1,.7,-1.7c.2,-.6,.3,-1.2,.3,-1.9c0,-.4,0,-.9,-.1,-1.3c-.1,-.4,-.2,-.8,-.3,-1.2c-.2,-.4,-.3,-.8,-.5,-1.1c-.2,-.3,-.4,-.7,-.7,-.9c-.7,-.8,-1.4,-1.1,-2.2,-1.1c-.4,0,-.7,0,-.9,.2c-.3,.1,-.6,.2,-.8,.5c-.2,.2,-.4,.4,-.6,.7c-.2,.3,-.3,.5,-.4,.9c-.2,.3,-.2,.6,-.3,.9c-.1,.3,-.1,.6,-.1,.9c0,.5,.1,.9,.2,1.2c.1,.3,.3,.6,.5,.8c.2,.3,.5,.4,.8,.6c.3,.1,.6,.2,1,.3c.4,.1,.7,.1,1.1,.2c.5,0,.9,0,1.3,0c-.1,.4,-.3,.7,-.6,1.1c-.3,.3,-.6,.7,-1.1,1c-.5,.3,-1,.6,-1.6,.9c-.7,.2,-1.4,.4,-2.2,.6l.5,2ZM451.3,69c0,.3,.1,.6,.2,.9c.1,.3,.2,.6,.3,.9c.1,.3,.2,.7,.3,1c0,.3,.1,.6,.1,.9c0,.4,-.1,.7,-.2,1c-.1,.3,-.3,.6,-.5,.9c-.2,.3,-.4,.6,-.7,.9c-.3,.3,-.6,.6,-.9,.8c-.4,.3,-.7,.5,-1.1,.7c-.4,.3,-.7,.5,-1.1,.7l.9,1.8c.5,-.2,.9,-.5,1.4,-.8c.5,-.3,.9,-.6,1.3,-.9c.4,-.4,.8,-.7,1.2,-1.1c.3,-.4,.6,-.8,.9,-1.2c.2,-.5,.5,-.9,.6,-1.4c.1,-.4,.2,-.9,.2,-1.4c0,-.3,0,-.7,-.1,-1c0,-.4,-.1,-.8,-.2,-1.1c-.1,-.4,-.2,-.8,-.3,-1.1c-.1,-.4,-.2,-.8,-.3,-1.1l-2,.6Zm-.9,-4.8l-1.3,1.3l1.4,1.4l1.3,-1.3l-1.4,-1.4Zm3.1,0l-1.4,1.4l1.4,1.3l1.3,-1.3l-1.3,-1.4Zm-1.5,.3l1.2,-1.2L452,62l-1.3,1.2l1.3,1.3Zm8,7.2h-.3c-.2,0,-.4,-.1,-.6,-.1c-.1,0,-.3,-.1,-.4,-.2c-.1,-.1,-.1,-.2,-.2,-.4c0,-.1,0,-.3,0,-.5v-.1c0,-.2,0,-.3,0,-.5c0,-.2,0,-.3,0,-.5c0,-.2,0,-.3,0,-.5c0,-.2,0,-.4,0,-.6c0,-.2,0,-.5,0,-.8c0,-.3,0,-.6,0,-.9c0,-.5,0,-1,-.1,-1.5c0,-.5,0,-1,0,-1.5c-.1,-.5,-.1,-1,-.2,-1.4c0,-.5,-.1,-.9,-.1,-1.2l-2,.6c0,.3,.1,.6,.1,.9c0,.3,.1,.7,.1,1c0,.4,0,.8,.1,1.2c0,.4,0,.8,0,1.2c0,.4,0,.8,0,1.2c0,.4,0,.7,0,1.1c0,.5,0,1,0,1.4c0,.4,0,.7,0,.8c0,1.1,.3,2,.8,2.5c.6,.5,1.4,.8,2.5,.8h.3v-2Zm-.3,0v2h.2c.6,0,1.1,-.1,1.6,-.3c.5,-.3,1,-.6,1.4,-1c.1,.1,.2,.2,.4,.3c.1,.1,.3,.1,.4,.2c.1,.1,.3,.2,.4,.2c.2,.1,.3,.2,.4,.2c.2,.1,.5,.2,.7,.2c.3,.1,.5,.1,.7,.1c.3,0,.6,0,.8,-.1c.2,-.1,.5,-.2,.7,-.3c.2,-.2,.4,-.4,.5,-.6c.2,-.2,.3,-.4,.4,-.7c.1,-.2,.2,-.4,.2,-.7c.1,-.3,.1,-.5,.1,-.8c0,-.3,0,-.6,-.1,-.9c-.1,-.3,-.1,-.6,-.2,-.8c-.2,-.3,-.3,-.6,-.5,-.8c-.1,-.3,-.3,-.5,-.6,-.7c-.2,-.1,-.4,-.3,-.7,-.4c-.3,-.1,-.6,-.1,-1,-.1c-.3,0,-.7,0,-1,.2c-.2,.1,-.5,.3,-.7,.6c-.2,.2,-.4,.5,-.6,.8c-.2,.3,-.4,.6,-.5,.9c-.2,.3,-.3,.6,-.5,.9c-.2,.3,-.3,.5,-.6,.8c-.2,.2,-.4,.4,-.7,.5c-.3,.2,-.7,.3,-1,.3h-.2Zm4.9,-2c.1,-.2,.2,-.4,.3,-.6c.1,-.2,.2,-.3,.3,-.3q.1,-.1,.2,-.2c.1,0,.2,0,.2,0c.2,0,.3,.1,.5,.1c.2,.1,.3,.3,.5,.4c.1,.2,.2,.4,.3,.7c.1,.2,.1,.5,.1,.7v.1c0,.1,0,.2,0,.3c0,.2,-.1,.3,-.1,.4q-.1,.1,-.2,.2c0,.1,-.1,.1,-.1,.1c-.1,0,-.2,0,-.3,0c-.1,0,-.2,0,-.3,0c-.3,-.1,-.5,-.1,-.7,-.2c-.3,-.1,-.5,-.2,-.7,-.4c-.2,-.1,-.4,-.2,-.5,-.3c.2,-.4,.3,-.7,.5,-1Zm14.7,-1c.1,.1,.3,.2,.4,.4c.1,.1,.3,.3,.4,.6c.1,.2,.2,.4,.3,.6c.1,.3,.2,.5,.3,.7c0,.3,.1,.5,.1,.7c-.1,0,-.3,0,-.4,0c-.2,0,-.3,0,-.4,0c-.2,-.1,-.3,-.1,-.4,-.1c-.2,0,-.3,0,-.4,0c-.2,0,-.4,0,-.6,-.1c-.2,0,-.4,-.1,-.6,-.2c-.1,-.1,-.3,-.2,-.4,-.3c-.1,-.2,-.1,-.4,-.1,-.6c0,-.2,0,-.4,.1,-.6c.1,-.3,.2,-.5,.3,-.7c.2,-.1,.3,-.3,.5,-.4c.1,-.1,.3,-.2,.4,-.2c.2,0,.3,.1,.5,.2Zm-3.6,10.6c.6,-.1,1.2,-.3,1.8,-.5c.6,-.2,1.1,-.4,1.6,-.7c.5,-.3,1,-.7,1.5,-1.1c.4,-.4,.8,-.8,1.1,-1.3c.3,-.5,.5,-1.1,.7,-1.7c.2,-.6,.2,-1.2,.2,-1.9c0,-.4,0,-.9,-.1,-1.3c0,-.4,-.1,-.8,-.3,-1.2c-.1,-.4,-.3,-.8,-.5,-1.1c-.2,-.3,-.4,-.7,-.6,-.9c-.7,-.8,-1.5,-1.1,-2.3,-1.1c-.3,0,-.6,0,-.9,.2c-.2,.1,-.5,.2,-.7,.5c-.3,.2,-.5,.4,-.6,.7c-.2,.3,-.4,.5,-.5,.9c-.1,.3,-.2,.6,-.3,.9c0,.3,0,.6,0,.9c0,.5,0,.9,.1,1.2c.2,.3,.3,.6,.6,.8c.2,.3,.4,.4,.7,.6c.3,.1,.7,.2,1,.3c.4,.1,.8,.1,1.2,.2c.4,0,.8,0,1.3,0c-.1,.4,-.3,.7,-.6,1.1c-.3,.3,-.7,.7,-1.1,1c-.5,.3,-1,.6,-1.7,.9c-.6,.2,-1.3,.4,-2.1,.6l.5,2ZM494,71.7h-.4c-.2,0,-.4,-.1,-.5,-.1c-.2,0,-.3,-.1,-.4,-.2c-.1,-.1,-.2,-.2,-.2,-.4c-.1,-.1,-.1,-.3,-.1,-.5v-.1c0,-.2,0,-.3,0,-.5c0,-.2,0,-.3,0,-.5c0,-.2,0,-.3,0,-.5c0,-.2,0,-.4,0,-.6c0,-.2,0,-.5,0,-.8c0,-.3,0,-.6,0,-.9c0,-.5,0,-1,0,-1.5c0,-.5,-.1,-1,-.1,-1.5c0,-.5,-.1,-1,-.1,-1.4c-.1,-.5,-.1,-.9,-.2,-1.2l-2,.6c.1,.3,.1,.6,.1,.9c.1,.3,.1,.7,.1,1c.1,.4,.1,.8,.1,1.2c0,.4,0,.8,0,1.2c.1,.4,.1,.8,.1,1.2c0,.4,0,.7,0,1.1c0,.5,0,1,0,1.4c0,.4,-.1,.7,-.1,.8c.1,1.1,.3,2,.9,2.5c.6,.5,1.4,.8,2.4,.8h.4v-2Zm-.4,2h.2c.8,0,1.6,0,2.2,-.1c.7,-.1,1.3,-.2,1.8,-.4c.2,.1,.5,.2,.8,.2c.2,.1,.5,.2,.8,.2c.2,.1,.5,.1,.8,.1c.3,0,.5,0,.7,0c.2,0,.4,0,.7,0c.2,0,.4,-.1,.7,-.1c.2,0,.5,-.1,.7,-.2c.2,0,.4,-.1,.5,-.2c.5,-.3,.9,-.6,1.1,-1c.3,-.4,.5,-.8,.6,-1.1c0,-.3,.1,-.6,.1,-.8c0,-.3,-.1,-.5,-.1,-.8c-.1,-.5,-.4,-.9,-.7,-1.3c-.2,-.3,-.4,-.5,-.7,-.7c-.2,-.1,-.4,-.3,-.7,-.5c-.3,-.2,-.7,-.3,-1.1,-.5c-.3,-.2,-.8,-.4,-1.3,-.6c-.2,-.1,-.5,-.2,-.7,-.3c-.3,-.2,-.6,-.3,-.9,-.5c-.2,-.1,-.5,-.2,-.8,-.4c-.2,-.1,-.4,-.2,-.7,-.3c-.2,-.1,-.3,-.2,-.4,-.2q-.2,-.1,-.3,-.1L495.7,66c.2,.1,.3,.2,.4,.2c.1,0,.1,.1,.2,.1c-.3,.1,-.5,.3,-.7,.5c-.2,.3,-.3,.5,-.4,.8c-.2,.2,-.3,.5,-.3,.8c-.1,.3,-.1,.6,-.1,.9c0,.4,0,.8,.2,1.2c.1,.4,.3,.8,.5,1.1c-.2,0,-.3,0,-.5,0c-.1,0,-.2,0,-.3,0c-.2,.1,-.3,.1,-.4,.1c-.2,0,-.3,0,-.5,0h-.2v2Zm8,-5.1c0,-.1,0,-.2,0,-.3c.3,.2,.5,.3,.8,.5c.2,.1,.4,.3,.6,.4c.1,.2,.3,.4,.4,.6c.1,.2,.1,.3,.1,.5c0,.2,0,.4,-.1,.5c-.2,.2,-.3,.4,-.5,.5c-.3,.1,-.5,.2,-.8,.3c-.3,.1,-.6,.1,-.9,.1c-.1,0,-.2,0,-.3,0c-.1,0,-.2,0,-.2,0c.3,-.4,.5,-.9,.7,-1.3c.1,-.5,.2,-1,.2,-1.5c0,-.1,0,-.2,0,-.3Zm-2.9,-1.1c.2,.1,.4,.2,.5,.3c.1,.2,.3,.3,.3,.5c.1,.2,.1,.4,.1,.5c0,.1,0,.2,0,.3c0,.3,-.1,.6,-.2,.8c-.1,.2,-.3,.4,-.4,.6c-.2,.2,-.3,.3,-.5,.4c-.2,.1,-.4,.2,-.6,.2c-.2,0,-.4,-.1,-.5,-.2c-.1,-.1,-.3,-.3,-.4,-.4c-.1,-.2,-.2,-.3,-.2,-.5c-.1,-.2,-.1,-.4,-.2,-.5q0,-.1,0,-.2c0,-.2,.1,-.4,.1,-.6c.1,-.3,.2,-.5,.4,-.7c.1,-.2,.3,-.4,.5,-.5c.2,-.1,.3,-.2,.5,-.2q.1,0,.1,0c.2,.1,.3,.1,.5,.2Zm16.2,3.6c-.3,-.5,-.5,-1.3,-.5,-2.3v-.4c0,-1,.2,-1.8,.6,-2.3c.3,-.5,.9,-.8,1.6,-.8c.5,0,1,.2,1.3,.6c.4,.3,.6,.8,.6,1.4h2.1c-.1,-1.1,-.5,-2,-1.2,-2.7c-.7,-.7,-1.7,-1,-2.8,-1c-1.4,0,-2.4,.4,-3.2,1.3c-.8,.9,-1.2,2.1,-1.2,3.6v.2c0,1.5,.4,2.7,1.2,3.6c.8,.9,1.8,1.3,3.2,1.3c.7,0,1.4,-.1,2,-.4c.6,-.3,1,-.7,1.4,-1.3c.3,-.5,.5,-1,.6,-1.6h-2.1c0,.4,-.2,.8,-.6,1.1c-.3,.4,-.8,.5,-1.3,.5c-.7,0,-1.3,-.2,-1.7,-.8Zm9.6,-11.4h-2.2V73.5h2.2V59.7Zm2,8.9c0,1.6,.4,2.8,1.2,3.7c.8,.9,1.9,1.3,3.3,1.3c.9,0,1.7,-.2,2.3,-.6c.7,-.4,1.3,-1,1.6,-1.7c.4,-.8,.6,-1.6,.6,-2.6v-.5c-.1,-1.4,-.5,-2.5,-1.4,-3.3c-.8,-.9,-1.8,-1.3,-3.1,-1.3c-.9,0,-1.7,.2,-2.4,.6c-.7,.4,-1.2,1,-1.6,1.8c-.3,.7,-.5,1.6,-.5,2.5v.1Zm2.8,-2.4c.4,-.6,1,-.9,1.7,-.9c.7,0,1.3,.3,1.7,.9c.4,.6,.6,1.4,.6,2.3c0,1.1,-.2,2,-.6,2.6c-.4,.5,-1,.8,-1.7,.8c-.7,0,-1.3,-.3,-1.7,-.8c-.4,-.6,-.7,-1.4,-.7,-2.4c0,-1.1,.3,-1.9,.7,-2.5Zm13,5.5c-.3,.2,-.7,.3,-1.3,.3c-.6,0,-1.1,-.1,-1.4,-.4c-.4,-.3,-.6,-.7,-.6,-1.2h-2.1c0,.6,.1,1.1,.5,1.6c.3,.5,.8,.9,1.4,1.2c.7,.3,1.4,.4,2.2,.4c1.1,0,2.1,-.2,2.8,-.8c.7,-.5,1.1,-1.2,1.1,-2.1c0,-.5,-.1,-.9,-.4,-1.3c-.2,-.4,-.6,-.7,-1.1,-.9c-.4,-.3,-1.1,-.5,-2,-.7c-.8,-.2,-1.4,-.4,-1.7,-.6c-.2,-.2,-.4,-.4,-.4,-.7c0,-.4,.2,-.7,.5,-.9c.3,-.3,.7,-.4,1.1,-.4c.5,0,1,.2,1.3,.4c.3,.3,.4,.7,.4,1.1h2.2c0,-.9,-.4,-1.7,-1.1,-2.2c-.7,-.6,-1.6,-.9,-2.8,-.9c-1.1,0,-1.9,.3,-2.7,.8c-.7,.6,-1,1.3,-1,2.1c0,1,.5,1.8,1.6,2.3c.5,.3,1.1,.5,1.9,.6c.7,.2,1.2,.3,1.6,.5c.3,.3,.4,.5,.4,.9c0,.4,-.1,.7,-.4,.9Zm10.4,1.8h2V63.8h-2.1v6.9c-.4,.8,-1.1,1.2,-2.2,1.2c-1,0,-1.5,-.6,-1.5,-1.9V63.8h-2.2v6.3c0,1.1,.3,2,.8,2.6c.6,.6,1.4,.9,2.4,.9c1.2,0,2.1,-.3,2.7,-1.1l.1,1ZM562,63.7c-.2,-.1,-.4,-.1,-.7,-.1c-1,0,-1.7,.4,-2.2,1.3L559,63.8h-2v9.7h2.1V66.8c.4,-.7,1,-1.1,2,-1.1c.3,0,.6,0,.9,.1V63.7Zm7.9,9.5c.6,-.4,1.1,-.8,1.5,-1.4l-1.2,-1.1c-.6,.8,-1.4,1.2,-2.4,1.2c-.7,0,-1.3,-.2,-1.8,-.7c-.4,-.5,-.7,-1.1,-.8,-1.9h6.4v-.9c0,-1.5,-.4,-2.7,-1.1,-3.5c-.7,-.9,-1.8,-1.3,-3.1,-1.3c-.8,0,-1.6,.2,-2.2,.6c-.7,.5,-1.2,1.1,-1.6,1.8c-.4,.8,-.6,1.6,-.6,2.6v.3c0,1.4,.5,2.6,1.3,3.4c.9,.9,2,1.3,3.4,1.3c.8,0,1.5,-.1,2.2,-.4Zm-1.1,-7.3c.4,.4,.6,.9,.6,1.7v.1h-4.1c.1,-.7,.3,-1.3,.7,-1.7c.3,-.4,.8,-.7,1.4,-.7c.6,0,1.1,.2,1.4,.6Zm13.4,6.4c-.1,-.9,-.5,-1.3,-1.3,-1.5c-.1,0,-.2,0,-.3,0c0,0,-.1,.1,-.1,.1c.1,-.6,.6,-1.2,1.6,-1.9c-.1,-.1,-.2,-.1,-.3,-.2c-.1,-.1,-.2,-.2,-.3,-.3c-.1,0,-.2,-.1,-.3,-.2c-.1,-.1,-.2,-.1,-.2,-.2c-1.5,1,-2.2,2.2,-2.2,3.5c0,.3,.1,.6,.1,.8c.1,.3,.2,.5,.4,.7c.1,.2,.3,.3,.5,.4c.2,.1,.5,.2,.8,.2c.2,0,.4,0,.6,-.1c.2,-.1,.3,-.2,.5,-.3c.1,-.1,.3,-.3,.3,-.5c.1,-.1,.2,-.3,.2,-.5ZM592,60.4h-2.3V73.5H592V60.4Zm5.1,0h-2.2V73.5h2.2V60.4Zm10.3,5.7h-5.2V62.3h6V60.4h-8.3V73.5h2.3V67.9h5.2V66.1Zm10.2,-.2h-5.4V62.3h6.2V60.4H610V73.5h8.5V71.7h-6.3V67.6h5.4V65.9Z" class="g3_142"/>
</svg>