<?xml version="1.0" encoding="UTF-8" standalone="no"?>
<!DOCTYPE svg PUBLIC "-//W3C//DTD SVG 1.1//EN"
"http://www.w3.org/Graphics/SVG/1.1/DTD/svg11.dtd">
<svg viewBox="0 0 714 1017" version="1.1" xmlns="http://www.w3.org/2000/svg" xmlns:xlink="http://www.w3.org/1999/xlink">
<defs>
<style type="text/css"><![CDATA[
.g0_245{
fill: #D1D3D4;
}
.g1_245{
fill: none;
stroke: #999999;
stroke-width: 1.527;
stroke-linecap: butt;
stroke-linejoin: miter;
}
.g2_245{
fill: none;
stroke: #666666;
stroke-width: 2.291;
stroke-linecap: butt;
stroke-linejoin: miter;
}
.g3_245{
fill: #D0D1D0;
}
]]></style>
</defs>
<image preserveAspectRatio="none" x="34" y="28" width="49" height="82" xlink:href="img/1.png"/>
<path d="M2.6,48.9c0,0,-18.4,0,-18.4,15.4v7.2c0,0,0,15.4,18.4,15.4H62.8c0,0,18.5,0,18.5,-15.4V64.3c0,0,0,-15.4,-18.5,-15.4Z" class="g0_245"/>
<image preserveAspectRatio="none" x="0" y="861" width="201" height="159" xlink:href="img/2.png"/>
<path d="M614.2,216.5v-39m-122.6,-.7H615m-515.4,0h392" class="g1_245"/>
<path d="M492.4,216.5h121m-512.3,0H490.8" class="g2_245"/>
<path d="M614.2,255.5v-39m0,77.2V257m0,74.9V295.2m0,74.8V333.4m0,74.8V371.6m0,74.8V409.8m0,74.8V448m0,74.8V486.2m0,74.8V524.4m0,74.8V562.5M491.6,256.2H615m-515.4,0h392m0,38.2H615m-515.4,0h392m0,38.2H615m-515.4,0h392m0,38.2H615m-515.4,0h392m0,38.2H615M99.6,409h392m0,38.2H615m-515.4,0h392m0,38.2H615m-515.4,0h392m0,38.2H615m-515.4,0h392m0,38.2H615m-515.4,0h392m0,38.2H615M99.6,600h392m0,-383.5v-39m-391.2,39v-39m391.2,78v-39m-391.2,39v-39m391.2,77.2V257M100.4,293.7V257m391.2,74.9V295.2M100.4,331.9V295.2M491.6,370V333.4M100.4,370V333.4m391.2,74.8V371.6M100.4,408.2V371.6m391.2,74.8V409.8M100.4,446.4V409.8m391.2,74.8V448M100.4,484.6V448m391.2,74.8V486.2M100.4,522.8V486.2M491.6,561V524.4M100.4,561V524.4m391.2,74.8V562.5M100.4,599.2V562.5M614.2,705.4v-39m-122.6,-.7H615m-515.4,0h392" class="g1_245"/>
<path d="M492.4,705.4h121m-512.3,0H490.8" class="g2_245"/>
<path d="M614.2,744.4v-39m0,77.1V745.9m0,74.8V784.1m0,74.8V822.3m0,74.8V860.5M491.6,745.1H615m-515.4,0h392m0,38.2H615m-515.4,0h392m0,38.2H615m-515.4,0h392m0,38.2H615m-515.4,0h392m0,38.2H615m-515.4,0h392m0,-192.5v-39m-391.2,39v-39m391.2,78v-39m-391.2,39v-39m391.2,77.1V745.9M100.4,782.5V745.9m391.2,74.8V784.1M100.4,820.7V784.1m391.2,74.8V822.3M100.4,858.9V822.3m391.2,74.8V860.5M100.4,897.1V860.5" class="g1_245"/>
<path d="M216.2,74.5c3.3,0,6,-2.5,6,-5.6c0,-3.2,-2.7,-5.7,-6,-5.7c-3.3,0,-5.9,2.5,-5.9,5.7c0,3.1,2.6,5.6,5.9,5.6Z" class="g3_245"/>
<path d="M221.2,69.8H709.7V67.9H221.2v1.9Z" class="g3_245"/>
</svg>