<?xml version="1.0" encoding="UTF-8" standalone="no"?>
<!DOCTYPE svg PUBLIC "-//W3C//DTD SVG 1.1//EN"
"http://www.w3.org/Graphics/SVG/1.1/DTD/svg11.dtd">
<svg viewBox="0 0 714 1017" version="1.1" xmlns="http://www.w3.org/2000/svg" xmlns:xlink="http://www.w3.org/1999/xlink">
<defs>
<style type="text/css"><![CDATA[
.g0_56{
fill: #D0D1D0;
}
.g1_56{
fill: #D1D3D4;
}
.g2_56{
fill: none;
stroke: #D0D1D0;
stroke-width: 6.111;
stroke-linecap: butt;
stroke-linejoin: round;
stroke-miterlimit: 4;
}
]]></style>
</defs>
<image preserveAspectRatio="none" x="640" y="30" width="49" height="82" xlink:href="img/1.png"/>
<image preserveAspectRatio="none" x="514" y="861" width="202" height="159" xlink:href="img/2.png"/>
<image preserveAspectRatio="none" x="99" y="504" width="517" height="290" xlink:href="img/3.png"/>
<path d="M332.5,74.5c-3.3,0,-6,-2.5,-6,-5.6c0,-3.2,2.7,-5.7,6,-5.7c3.3,0,5.9,2.5,5.9,5.7c0,3.1,-2.6,5.6,-5.9,5.6Z" class="g0_56"/>
<path d="M333.7,69.7H4.7V68h329v1.7Z" class="g0_56"/>
<path d="M654.9,48.9c0,0,-18.5,0,-18.5,15.4v7.2c0,0,0,15.4,18.5,15.4h60.2c0,0,18.5,0,18.5,-15.4V64.3c0,0,0,-15.4,-18.5,-15.4Z" class="g1_56"/>
<path d="M356.1,72.8h-.4c-.2,0,-.4,-.1,-.5,-.1c-.2,-.1,-.3,-.1,-.4,-.2c-.1,-.1,-.2,-.2,-.2,-.4c-.1,-.1,-.1,-.3,-.1,-.5v-.1c0,-.2,0,-.4,0,-.5c0,-.2,0,-.3,0,-.5c0,-.2,0,-.3,0,-.5c0,-.2,0,-.4,0,-.6c0,-.2,0,-.5,0,-.8c0,-.3,0,-.6,0,-.9c0,-.5,0,-1,0,-1.5c0,-.5,-.1,-1,-.1,-1.5c0,-.5,-.1,-1,-.1,-1.5c-.1,-.4,-.1,-.8,-.2,-1.1l-2,.6c.1,.3,.1,.5,.1,.9c.1,.3,.1,.6,.1,1c.1,.4,.1,.8,.1,1.2c0,.4,0,.8,0,1.2c.1,.4,.1,.8,.1,1.2c0,.4,0,.7,0,1.1c0,.5,0,1,0,1.4c0,.4,-.1,.7,-.1,.8c.1,1.1,.3,1.9,.9,2.5c.5,.5,1.4,.8,2.4,.8h.4v-2Zm-.4,2h.2c.8,0,1.5,-.1,2.2,-.1c.7,-.1,1.3,-.2,1.8,-.4c.2,.1,.5,.2,.7,.2c.3,.1,.6,.2,.9,.2c.2,0,.5,.1,.8,.1c.3,0,.5,0,.7,0c.2,0,.4,0,.7,0c.2,0,.4,-.1,.7,-.1c.2,-.1,.5,-.1,.7,-.2c.2,0,.4,-.1,.5,-.2c.5,-.3,.9,-.6,1.1,-1c.3,-.4,.5,-.8,.6,-1.1c0,-.3,.1,-.6,.1,-.8c0,-.3,-.1,-.5,-.1,-.8c-.1,-.5,-.4,-.9,-.7,-1.3c-.2,-.3,-.4,-.5,-.7,-.7c-.2,-.2,-.4,-.3,-.7,-.5c-.3,-.2,-.7,-.3,-1.1,-.5c-.3,-.2,-.8,-.4,-1.3,-.6c-.2,-.1,-.5,-.2,-.7,-.4c-.3,-.1,-.6,-.2,-.9,-.4c-.2,-.1,-.5,-.2,-.8,-.4c-.2,-.1,-.5,-.2,-.7,-.3c-.2,-.1,-.3,-.2,-.4,-.3q-.2,0,-.3,0l-1.2,1.9c.2,.1,.3,.1,.4,.2q.1,0,.2,.1c-.3,.1,-.5,.3,-.7,.5c-.2,.3,-.3,.5,-.4,.8c-.2,.2,-.3,.5,-.3,.8c-.1,.3,-.1,.6,-.1,.9c0,.4,0,.8,.2,1.2c.1,.4,.3,.7,.5,1.1c-.2,0,-.3,0,-.5,0c-.1,0,-.2,0,-.4,0c-.1,0,-.2,0,-.3,0c-.2,0,-.3,0,-.5,0h-.2v2.1Zm8,-5.1c0,-.1,0,-.2,0,-.3c.3,.1,.5,.3,.7,.4c.3,.2,.5,.4,.7,.5c.1,.2,.3,.4,.4,.6c.1,.1,.1,.3,.1,.5c0,.2,0,.4,-.1,.5c-.2,.2,-.3,.3,-.5,.5c-.3,.1,-.5,.2,-.8,.3c-.3,.1,-.6,.1,-.9,.1c-.1,0,-.2,0,-.3,0c-.1,0,-.2,0,-.2,0c.3,-.4,.5,-.9,.7,-1.4c.1,-.4,.2,-.9,.2,-1.4c0,-.1,0,-.2,0,-.3Zm-2.9,-1.1c.2,.1,.4,.2,.5,.3c.1,.2,.3,.3,.3,.5c.1,.2,.1,.3,.1,.5c0,.1,0,.2,0,.3c0,.3,-.1,.5,-.2,.8c-.1,.2,-.3,.4,-.4,.6c-.2,.2,-.3,.3,-.5,.4c-.2,.1,-.4,.2,-.6,.2c-.2,0,-.4,-.1,-.5,-.2c-.1,-.2,-.3,-.3,-.4,-.4c-.1,-.2,-.2,-.4,-.2,-.5c-.1,-.2,-.2,-.4,-.2,-.6c0,0,0,-.1,0,-.1c0,-.2,.1,-.4,.1,-.6c.1,-.3,.2,-.5,.4,-.7c.1,-.2,.3,-.4,.5,-.5c.2,-.1,.3,-.2,.5,-.2q.1,0,.1,0c.2,.1,.3,.1,.5,.2Zm17.9,5c.3,0,.6,0,.9,-.1c.1,.4,.3,.6,.5,.8c.2,.1,.4,.3,.7,.3c.2,.1,.4,.1,.7,.2c.2,0,.5,0,.8,0h.1v-2h-.1c-.2,0,-.3,-.1,-.5,-.1c-.1,0,-.2,0,-.3,-.1c-.1,0,-.1,-.1,-.2,-.2c-.1,0,-.1,-.1,-.2,-.2q0,-.1,-.1,-.3c0,-.1,-.1,-.2,-.1,-.5c0,-.2,-.1,-.6,-.2,-1c0,-.4,-.1,-1,-.2,-1.7c0,0,0,-.1,0,-.3c0,-.1,-.1,-.3,-.1,-.5c0,-.3,0,-.5,-.1,-.8c0,-.2,0,-.4,0,-.7c-.1,-.2,-.1,-.4,-.1,-.5c0,-.2,0,-.3,0,-.4l-2,.5l.1,1.2c-.3,.1,-.6,.2,-.9,.4c-.3,.1,-.6,.3,-.9,.5c-.2,.1,-.5,.3,-.8,.6c-.2,.2,-.5,.4,-.7,.7c-.2,.2,-.3,.5,-.4,.8c-.1,.3,-.2,.6,-.2,1c0,.3,0,.5,.1,.8c.1,.2,.3,.5,.4,.6c.2,.2,.4,.4,.6,.5c.3,.1,.5,.3,.8,.3c.2,.1,.5,.2,.8,.2c.3,.1,.5,.1,.8,.1c.3,0,.5,0,.8,-.1Zm-.3,-2c-.2,0,-.4,.1,-.5,.1c-.2,0,-.4,-.1,-.6,-.1c-.2,0,-.4,0,-.6,-.1c-.2,0,-.3,-.1,-.4,-.2c-.2,0,-.2,-.1,-.2,-.2c0,-.2,0,-.3,.1,-.4c.1,-.2,.2,-.3,.3,-.5c.2,-.1,.3,-.2,.5,-.4c.2,-.1,.3,-.2,.5,-.3c.2,-.1,.4,-.2,.5,-.3c.2,-.1,.4,-.2,.5,-.2c0,.2,.1,.5,.1,.7c0,.3,.1,.5,.1,.7c0,.3,0,.5,.1,.7c0,.2,0,.3,0,.5c-.1,0,-.2,0,-.4,0Zm3.7,3.2h.2c.4,0,.8,0,1.2,0c.4,-.1,.7,-.1,1.1,-.2c.4,0,.7,-.1,1,-.2c.3,-.1,.5,-.2,.7,-.3c.2,.2,.5,.3,.8,.4c.2,.1,.6,.1,.9,.2c.3,0,.7,.1,1.1,.1c.3,0,.7,0,1.2,0h.1V72.7h-.2c-.3,0,-.6,0,-.9,0c-.3,0,-.5,-.1,-.8,-.1c.2,-.3,.4,-.7,.6,-1.1c.1,-.4,.2,-.8,.2,-1.2c0,-.4,-.1,-.8,-.2,-1.2c-.2,-.4,-.4,-.8,-.6,-1.1c-.3,-.4,-.6,-.6,-1,-.8c-.4,-.2,-.8,-.3,-1.2,-.4h-.1c-.3,0,-.5,.1,-.8,.2c-.3,.1,-.5,.2,-.8,.4c-.2,.2,-.4,.4,-.6,.6c-.2,.3,-.4,.6,-.5,.8c-.2,.3,-.3,.6,-.3,.9c-.1,.2,-.1,.5,-.1,.7q0,.1,0,.2c0,.3,0,.5,.1,.7c.1,.3,.2,.5,.3,.6c.1,.2,.2,.4,.3,.5c.2,.1,.3,.2,.4,.3c-.3,0,-.6,0,-.9,0h-1.2v2.1ZM386.7,69c.1,.1,.3,.3,.4,.4c.2,.2,.3,.3,.4,.5c0,.2,.1,.4,.1,.6c0,.2,-.1,.3,-.1,.5c-.1,.1,-.2,.3,-.3,.4c-.1,.2,-.3,.3,-.4,.5c-.2,.1,-.3,.2,-.5,.3c-.2,-.1,-.4,-.2,-.6,-.3c-.2,-.1,-.3,-.3,-.5,-.4c-.1,-.2,-.2,-.3,-.3,-.5c-.1,-.1,-.2,-.3,-.2,-.3c0,-.3,.1,-.6,.2,-.8c.1,-.2,.2,-.4,.4,-.5c.1,-.2,.3,-.3,.5,-.4c.2,-.1,.3,-.1,.5,-.1c.1,0,.2,0,.4,.1Zm-2,-6.1l-1.4,1.4l1.4,1.3l1.4,-1.3l-1.4,-1.4Zm3,0l-1.3,1.4l1.3,1.4l1.4,-1.4l-1.4,-1.4Zm2.4,11.9h1c.1,0,.3,0,.5,0c.2,-.1,.4,-.1,.6,-.1c.1,-.1,.3,-.2,.5,-.3c.2,-.1,.4,-.2,.5,-.3c.1,.1,.3,.2,.4,.3c.2,0,.4,.1,.5,.2c.2,.1,.4,.1,.6,.1c.2,.1,.4,.1,.6,.1h.3V72.7h-.2c-.4,0,-.7,-.1,-.9,-.3c-.2,-.2,-.3,-.5,-.3,-.9c0,-.6,0,-1.3,0,-2c0,-.8,0,-1.6,0,-2.6c0,-.5,0,-.9,0,-1.4c0,-.4,0,-.9,0,-1.3c0,-.4,0,-.8,0,-1.1c-.1,-.4,-.1,-.7,-.1,-1l-2.1,.3c.1,.2,.1,.5,.1,.9c0,.3,0,.6,0,1c.1,.4,.1,.7,.1,1.1c0,.4,0,.8,0,1.2c0,.6,0,1.1,0,1.6c0,.5,-.1,1,-.1,1.4c0,.4,0,.8,0,1.1c0,.3,0,.5,0,.6c0,.3,-.1,.6,-.1,.8c-.1,.1,-.2,.3,-.4,.4c-.1,.1,-.2,.2,-.4,.2c-.2,0,-.3,0,-.5,0h-.6v2.1Zm5.2,0H397c1,0,2.1,-.2,3,-.4c1,-.2,1.9,-.5,2.8,-.8c.9,-.4,1.7,-.7,2.5,-1.1c.8,-.4,1.6,-.8,2.3,-1.2l.2,-2c-.4,0,-.9,-.1,-1.3,-.2c-.4,-.1,-.8,-.3,-1.2,-.4c-.4,-.2,-.8,-.4,-1.2,-.6c-.4,-.2,-.8,-.3,-1.2,-.5c-.4,-.2,-.8,-.3,-1.2,-.4c-.4,-.1,-.8,-.2,-1.2,-.2c-.4,0,-.8,.1,-1.2,.2c-.3,.2,-.6,.4,-.9,.6c-.4,.2,-.6,.5,-.9,.8c-.2,.3,-.4,.6,-.6,.9l1.6,1.1c.1,0,.1,-.1,.1,-.2c.1,-.1,.2,-.2,.2,-.3c.1,-.1,.2,-.2,.3,-.4c.1,-.1,.3,-.2,.4,-.3c.1,-.1,.3,-.2,.5,-.2c.1,-.1,.3,-.1,.5,-.1c.3,0,.6,0,.9,.1c.4,.2,.7,.3,1.1,.4c.3,.2,.7,.4,1.1,.5c.4,.2,.8,.3,1.2,.4c-.5,.3,-1.1,.6,-1.8,.9c-.6,.2,-1.3,.5,-2,.7c-.6,.2,-1.3,.3,-2,.5c-.7,.1,-1.3,.1,-2,.1h-1.7v2.1Zm22.9,-5c.1,.1,.3,.2,.4,.4c.2,.1,.3,.3,.4,.5c.1,.3,.3,.5,.4,.7c0,.2,.1,.5,.2,.7c0,.2,.1,.5,.1,.7c-.1,0,-.2,-.1,-.4,-.1c-.1,0,-.3,0,-.4,0c-.1,0,-.3,0,-.4,0c-.1,0,-.3,0,-.4,0c-.2,0,-.4,0,-.6,-.1c-.2,0,-.4,-.1,-.5,-.2c-.2,-.1,-.3,-.2,-.4,-.3c-.1,-.2,-.2,-.4,-.2,-.6c0,-.2,0,-.4,.1,-.7c.1,-.2,.2,-.4,.4,-.6c.1,-.1,.2,-.3,.4,-.4c.2,-.1,.3,-.2,.5,-.2c.1,0,.2,.1,.4,.2Zm-3.6,10.6c.6,-.1,1.2,-.3,1.8,-.5c.6,-.2,1.1,-.4,1.7,-.7c.5,-.4,1,-.7,1.4,-1.1c.4,-.4,.8,-.9,1.1,-1.4c.3,-.5,.5,-1,.7,-1.6c.2,-.6,.3,-1.2,.3,-1.9c0,-.4,-.1,-.9,-.1,-1.3c-.1,-.4,-.2,-.8,-.3,-1.2c-.2,-.4,-.3,-.8,-.5,-1.1c-.2,-.4,-.4,-.7,-.7,-.9c-.7,-.8,-1.4,-1.1,-2.2,-1.1c-.4,0,-.7,0,-.9,.1c-.3,.2,-.6,.3,-.8,.5c-.2,.3,-.4,.5,-.6,.8c-.2,.2,-.3,.5,-.4,.8c-.2,.3,-.3,.7,-.3,1c-.1,.3,-.1,.6,-.1,.9c0,.4,0,.8,.2,1.2c.1,.3,.3,.6,.5,.8c.2,.2,.5,.4,.8,.6c.3,.1,.6,.2,1,.3c.3,.1,.7,.1,1.1,.2c.4,0,.9,0,1.3,0c-.1,.4,-.3,.7,-.6,1.1c-.3,.3,-.7,.7,-1.1,1c-.5,.3,-1,.6,-1.7,.9c-.6,.2,-1.3,.4,-2.1,.6l.5,2Zm18.3,-7.6h-.4c-.2,0,-.4,-.1,-.5,-.1c-.2,-.1,-.3,-.1,-.4,-.2c-.1,-.1,-.2,-.2,-.2,-.4c0,-.1,-.1,-.3,-.1,-.5v-.1c0,-.2,0,-.4,0,-.5c0,-.2,0,-.3,0,-.5c0,-.2,.1,-.3,.1,-.5c0,-.2,0,-.4,0,-.6c0,-.2,0,-.5,-.1,-.8c0,-.3,0,-.6,0,-.9c0,-.5,0,-1,0,-1.5c0,-.5,0,-1,-.1,-1.5c0,-.5,-.1,-1,-.1,-1.5c0,-.4,-.1,-.8,-.2,-1.1l-2,.6c.1,.3,.1,.5,.2,.9c0,.3,0,.6,.1,1c0,.4,0,.8,0,1.2c.1,.4,.1,.8,.1,1.2c0,.4,0,.8,0,1.2c0,.4,0,.7,0,1.1c0,.5,0,1,0,1.4c0,.4,0,.7,0,.8c0,1.1,.3,1.9,.8,2.5c.6,.5,1.4,.8,2.5,.8h.3v-2Zm-.3,2h.1c.8,0,1.6,-.1,2.3,-.1c.7,-.1,1.3,-.2,1.8,-.4c.2,.1,.4,.2,.7,.2c.2,.1,.5,.2,.8,.2c.3,0,.6,.1,.8,.1c.3,0,.5,0,.8,0c.2,0,.4,0,.6,0c.2,0,.5,-.1,.7,-.1c.3,-.1,.5,-.1,.7,-.2c.2,0,.4,-.1,.6,-.2c.4,-.3,.8,-.6,1.1,-1c.2,-.4,.4,-.8,.5,-1.1c.1,-.3,.1,-.6,.1,-.8c0,-.3,0,-.5,-.1,-.8c-.1,-.5,-.3,-.9,-.7,-1.3c-.2,-.3,-.4,-.5,-.6,-.7c-.3,-.2,-.5,-.3,-.8,-.5c-.3,-.2,-.6,-.3,-1,-.5c-.4,-.2,-.8,-.4,-1.3,-.6c-.3,-.1,-.5,-.2,-.8,-.4c-.3,-.1,-.6,-.2,-.8,-.4c-.3,-.1,-.6,-.2,-.8,-.4c-.3,-.1,-.5,-.2,-.7,-.3c-.2,-.1,-.4,-.2,-.5,-.3c-.1,0,-.2,0,-.2,0l-1.2,1.9c.1,.1,.3,.1,.3,.2c.1,0,.2,0,.2,.1c-.2,.1,-.5,.3,-.6,.5c-.2,.3,-.4,.5,-.5,.8c-.1,.2,-.2,.5,-.3,.8c-.1,.3,-.1,.6,-.1,.9c0,.4,.1,.8,.2,1.2c.1,.4,.3,.7,.6,1.1c-.2,0,-.4,0,-.5,0c-.2,0,-.3,0,-.4,0c-.1,0,-.3,0,-.4,0c-.1,0,-.3,0,-.5,0h-.1v2.1Zm7.9,-5.1c0,-.1,0,-.2,0,-.3c.3,.1,.5,.3,.8,.4c.2,.2,.4,.4,.6,.5c.2,.2,.3,.4,.4,.6c.1,.1,.2,.3,.2,.5c0,.2,-.1,.4,-.2,.5c-.1,.2,-.3,.3,-.5,.5c-.2,.1,-.5,.2,-.8,.3c-.3,.1,-.6,.1,-.9,.1c-.1,0,-.2,0,-.3,0c0,0,-.1,0,-.2,0c.3,-.4,.5,-.9,.7,-1.4c.2,-.4,.2,-.9,.2,-1.4c0,-.1,0,-.2,0,-.3Zm-2.9,-1.1c.2,.1,.4,.2,.5,.3c.2,.2,.3,.3,.4,.5c0,.2,.1,.3,.1,.5c0,.1,0,.2,0,.3c-.1,.3,-.2,.5,-.3,.8c-.1,.2,-.2,.4,-.4,.6c-.1,.2,-.3,.3,-.5,.4c-.2,.1,-.4,.2,-.6,.2c-.2,0,-.3,-.1,-.5,-.2c-.1,-.2,-.2,-.3,-.3,-.4c-.1,-.2,-.2,-.4,-.3,-.5c-.1,-.2,-.1,-.4,-.1,-.6c0,0,-.1,-.1,-.1,-.1c0,-.2,.1,-.4,.2,-.6c0,-.3,.2,-.5,.3,-.7c.2,-.2,.3,-.4,.5,-.5c.2,-.1,.4,-.2,.5,-.2q.1,0,.2,0c.1,.1,.3,.1,.4,.2Zm18.1,6c.5,-.1,.8,-.3,1.1,-.6c.3,-.2,.6,-.5,.7,-.9c.2,-.4,.3,-.8,.3,-1.3c0,-1.2,-.7,-2.5,-2,-4c-.5,-.6,-.9,-1,-1.3,-1.3c-.3,-.3,-.6,-.5,-.8,-.7l-1.3,1.6c.1,.1,.2,.2,.3,.2c.1,.1,.2,.1,.2,.2c-.1,.1,-.2,.2,-.3,.4c-.1,.1,-.3,.2,-.4,.4c-.9,1.1,-1.4,2.2,-1.4,3.2c0,.5,.1,.9,.2,1.3c.2,.3,.4,.6,.7,.9c.3,.3,.7,.5,1.1,.6c.5,.1,.9,.2,1.5,.2c.5,0,1,-.1,1.4,-.2Zm.1,-2.4c-.1,.2,-.2,.3,-.4,.3c-.2,.1,-.3,.2,-.5,.2c-.2,0,-.4,0,-.6,0c-.2,0,-.3,0,-.5,0c-.2,-.1,-.4,-.1,-.6,-.2c-.1,-.1,-.3,-.2,-.4,-.3c-.1,-.1,-.2,-.2,-.2,-.4c0,-.2,.1,-.5,.2,-.7c.1,-.3,.2,-.6,.4,-.8c.1,-.3,.3,-.5,.5,-.8c.1,-.2,.3,-.4,.4,-.5c.3,.2,.5,.4,.7,.7c.3,.3,.5,.5,.6,.8c.2,.2,.3,.5,.4,.7c.1,.2,.2,.4,.2,.6c0,.2,-.1,.3,-.2,.4Zm3,1.4c.3,.2,.6,.3,.9,.5c.3,.1,.7,.3,1,.4c.4,.1,.7,.2,1.1,.3c.4,0,.7,.1,1.1,.1q.1,0,.2,0c.6,0,1.1,-.1,1.5,-.3c.6,-.2,1,-.4,1.4,-.8c.3,-.4,.5,-.7,.6,-1.1c.1,-.4,.2,-.7,.2,-.9c0,-.3,-.1,-.6,-.1,-.9c-.2,-.5,-.4,-1.1,-.7,-1.6c-.3,-.5,-.6,-1,-1,-1.5c-.4,-.4,-.8,-.9,-1.3,-1.3c-.5,-.4,-1,-.8,-1.5,-1.1L461,67.1c.3,.2,.6,.4,.9,.6c.3,.2,.6,.5,.8,.8c.3,.2,.6,.5,.9,.8c.3,.3,.5,.6,.7,.9c.2,.3,.4,.6,.5,.9c.1,.2,.2,.5,.2,.7c0,.2,-.1,.3,-.1,.4c-.1,.1,-.2,.2,-.3,.3c-.2,0,-.3,.1,-.4,.1c-.2,.1,-.3,.1,-.5,.1c-.1,0,-.3,.1,-.4,.1c-.1,0,-.2,0,-.3,0c-.3,0,-.5,-.1,-.8,-.1c-.3,-.1,-.6,-.2,-.9,-.3c-.3,-.1,-.6,-.2,-.9,-.4c-.3,-.1,-.5,-.2,-.7,-.3l-.9,1.9Zm13.1,-3.8c.1,.1,.3,.2,.4,.4c.1,.1,.3,.3,.4,.5c.1,.3,.2,.5,.3,.7c.1,.2,.2,.5,.3,.7c0,.2,.1,.5,.1,.7c-.2,0,-.3,-.1,-.4,-.1c-.2,0,-.3,0,-.4,0c-.2,0,-.3,0,-.4,0c-.2,0,-.3,0,-.4,0c-.2,0,-.4,0,-.6,-.1c-.2,0,-.4,-.1,-.6,-.2c-.1,-.1,-.3,-.2,-.4,-.3c-.1,-.2,-.1,-.4,-.1,-.6c0,-.2,0,-.4,.1,-.7c.1,-.2,.2,-.4,.3,-.6c.2,-.1,.3,-.3,.5,-.4c.1,-.1,.3,-.2,.4,-.2c.2,0,.3,.1,.5,.2Zm-3.6,10.6c.6,-.1,1.2,-.3,1.8,-.5c.6,-.2,1.1,-.4,1.6,-.7c.5,-.4,1,-.7,1.4,-1.1c.5,-.4,.8,-.9,1.2,-1.4c.3,-.5,.5,-1,.7,-1.6c.2,-.6,.2,-1.2,.2,-1.9c0,-.4,0,-.9,-.1,-1.3c0,-.4,-.1,-.8,-.3,-1.2c-.1,-.4,-.3,-.8,-.5,-1.1c-.2,-.4,-.4,-.7,-.6,-.9c-.7,-.8,-1.5,-1.1,-2.3,-1.1c-.3,0,-.6,0,-.9,.1c-.2,.2,-.5,.3,-.7,.5c-.3,.3,-.5,.5,-.6,.8c-.2,.2,-.4,.5,-.5,.8c-.1,.3,-.2,.7,-.3,1c0,.3,-.1,.6,-.1,.9c0,.4,.1,.8,.2,1.2c.2,.3,.3,.6,.5,.8c.3,.2,.5,.4,.8,.6c.3,.1,.7,.2,1,.3c.4,.1,.8,.1,1.2,.2c.4,0,.8,0,1.3,0c-.1,.4,-.3,.7,-.6,1.1c-.3,.3,-.7,.7,-1.1,1c-.5,.3,-1.1,.6,-1.7,.9c-.6,.2,-1.3,.4,-2.1,.6l.5,2ZM481,74.7c.3,0,.6,0,.9,-.1c.3,-.1,.6,-.2,.9,-.3c.2,-.1,.5,-.3,.7,-.5c.2,.1,.3,.3,.4,.4c.2,.1,.3,.2,.5,.3c.2,.1,.4,.2,.7,.2c.2,.1,.5,.1,.8,.1h.2V72.7h-.2c-.2,0,-.3,0,-.5,0c-.1,-.1,-.2,-.2,-.3,-.3c-.2,-.1,-.3,-.2,-.3,-.4c-.1,-.1,-.2,-.3,-.3,-.5l-2,-4.8c-.1,-.3,-.2,-.6,-.3,-.9c-.1,-.2,-.2,-.5,-.3,-.7l-1.9,.8l2.5,6.1c-.1,.1,-.3,.2,-.5,.3c-.2,.1,-.4,.2,-.6,.2c-.2,.1,-.4,.1,-.6,.2c-.2,0,-.4,0,-.6,0c-.4,0,-.8,-.1,-1.2,-.3c-.4,-.2,-.9,-.5,-1.3,-.9l-1.2,1.6c.5,.5,1.1,.9,1.6,1.2c.6,.3,1.3,.5,1.9,.5c.4,0,.7,0,1,-.1Zm4.8,.1h1.6c.7,0,1.4,-.1,2.1,-.2c.7,-.1,1.3,-.3,1.9,-.5c.6,-.1,1.2,-.4,1.8,-.6c.6,-.3,1.1,-.5,1.7,-.8c.3,.7,.8,1.2,1.5,1.5c.7,.4,1.6,.6,2.7,.6h.3V72.7h-.3c-.2,0,-.3,0,-.6,0c-.2,0,-.4,0,-.6,-.1c-.3,-.1,-.5,-.2,-.7,-.3c-.2,-.1,-.4,-.3,-.5,-.5c.2,-.1,.4,-.2,.6,-.3c.2,-.1,.4,-.2,.6,-.3l.3,-1.9c-.3,0,-.7,0,-1.1,-.1c-.4,-.1,-.8,-.2,-1.2,-.3c-.4,-.1,-.7,-.2,-1.1,-.4c-.4,-.1,-.7,-.3,-1,-.4c-.3,-.2,-.6,-.3,-.9,-.4c-.3,-.1,-.6,-.3,-.8,-.4c-.3,-.1,-.6,-.1,-.9,-.2c-.2,-.1,-.5,-.1,-.8,-.1c-.3,0,-.7,.1,-1,.2c-.4,.2,-.7,.4,-1,.6c-.4,.3,-.7,.5,-1,.9c-.2,.3,-.5,.6,-.7,1l1.6,.8l.1,-.1c.1,0,.1,-.1,.2,-.2c.1,-.2,.2,-.3,.3,-.4c.2,-.1,.3,-.2,.4,-.4c.2,-.1,.4,-.2,.6,-.2c.1,-.1,.3,-.1,.5,-.1c.3,0,.5,0,.8,.1c.2,0,.5,.1,.8,.2c.2,.1,.5,.2,.7,.3c.3,.2,.6,.3,.8,.4c.3,.1,.5,.2,.7,.3c.3,.1,.5,.1,.7,.1c-.5,.3,-1.1,.6,-1.7,.8c-.6,.3,-1.2,.5,-1.9,.7c-.6,.3,-1.3,.4,-1.9,.6c-.7,.1,-1.3,.1,-2,.1h-1.6v2.1Zm13.3,-2v2h.1c.7,0,1.2,-.1,1.7,-.3c.5,-.3,.9,-.6,1.3,-1c.2,.1,.3,.2,.4,.3c.2,0,.3,.1,.5,.2c.1,.1,.2,.2,.4,.2c.1,.1,.2,.2,.4,.2c.2,.1,.5,.2,.7,.2c.3,.1,.5,.1,.7,.1c.3,0,.5,0,.8,-.1c.2,-.1,.4,-.2,.6,-.3c.2,-.2,.4,-.4,.6,-.6c.2,-.2,.3,-.4,.4,-.7c.1,-.2,.1,-.5,.2,-.7c0,-.3,.1,-.5,.1,-.8c0,-.3,-.1,-.6,-.1,-.9c-.1,-.3,-.2,-.6,-.3,-.9c-.1,-.2,-.2,-.5,-.4,-.7c-.2,-.3,-.4,-.5,-.6,-.7c-.2,-.2,-.5,-.3,-.8,-.4c-.2,-.1,-.6,-.2,-.9,-.2c-.4,0,-.7,.1,-1,.3c-.3,.1,-.5,.3,-.8,.6c-.2,.2,-.4,.5,-.6,.8c-.1,.3,-.3,.6,-.4,.9c-.2,.3,-.3,.6,-.5,.9c-.2,.3,-.4,.5,-.6,.8c-.2,.2,-.5,.4,-.8,.5c-.2,.2,-.6,.3,-1,.3h-.1Zm4.8,-2c.2,-.2,.3,-.5,.4,-.6c.1,-.2,.2,-.3,.3,-.3c0,-.1,.1,-.2,.2,-.2q.1,0,.2,0c.2,0,.3,0,.4,.1c.2,.1,.4,.2,.6,.4c.1,.2,.2,.4,.3,.7c.1,.2,.1,.5,.1,.7v.1c0,.1,0,.2,0,.3c0,.2,-.1,.3,-.1,.4q-.1,.1,-.2,.2c-.1,0,-.1,.1,-.2,.1c0,0,-.1,0,-.2,0c-.1,0,-.2,0,-.4,0c-.2,-.1,-.4,-.1,-.7,-.2c-.2,-.1,-.4,-.2,-.6,-.4c-.2,-.1,-.4,-.2,-.6,-.3c.2,-.4,.4,-.7,.5,-1Zm14.7,2.5c-.1,-.8,-.5,-1.3,-1.3,-1.4c-.1,0,-.2,0,-.3,0c0,0,-.1,0,-.2,.1c.2,-.6,.7,-1.2,1.7,-1.9c-.1,-.1,-.2,-.1,-.3,-.2c-.1,-.1,-.2,-.2,-.3,-.3c-.1,-.1,-.2,-.1,-.3,-.2c-.1,-.1,-.2,-.1,-.3,-.2c-1.4,1,-2.1,2.2,-2.1,3.5c0,.3,0,.6,.1,.8c.1,.3,.2,.5,.4,.7c.1,.2,.3,.3,.5,.4c.2,.1,.5,.2,.8,.2c.2,0,.4,-.1,.6,-.1c.1,-.1,.3,-.2,.5,-.3c.1,-.2,.2,-.3,.3,-.5c.1,-.1,.2,-.3,.2,-.5v-.1Zm13.9,6.6c.4,-.1,.8,-.1,1.3,-.3c.5,-.1,.9,-.2,1.3,-.4c.5,-.2,.9,-.5,1.2,-.7c.4,-.3,.6,-.6,.9,-1c.2,-.4,.3,-.8,.3,-1.3c0,-.2,0,-.4,-.1,-.6c-.1,-.3,-.2,-.5,-.4,-.8h1.5V72.7h-6.4l-.2,2c.3,.1,.7,.2,1,.2c.4,.1,.8,.2,1.1,.3c.3,.1,.5,.2,.7,.3c.2,.1,.4,.2,.6,.3c.2,.1,.3,.2,.4,.3c.1,0,.1,.1,.1,.1c0,.3,-.1,.5,-.3,.6c-.1,.2,-.4,.3,-.7,.5c-.3,.1,-.6,.2,-.9,.3c-.4,.1,-.7,.1,-1.1,.2c-.3,0,-.6,.1,-.9,.1c-.3,0,-.5,0,-.7,0c-.2,0,-.5,0,-.8,0c-.4,0,-.7,0,-1.1,-.1c-.3,-.1,-.6,-.2,-1,-.3c-.3,-.2,-.5,-.4,-.7,-.7c-.2,-.2,-.3,-.5,-.4,-.8c-.1,-.3,-.2,-.6,-.2,-1c0,-.3,.1,-.7,.1,-1c0,-.4,.1,-.7,.2,-1.1c0,-.4,.2,-.9,.3,-1.3c.1,-.5,.3,-1,.5,-1.5l-1.6,-.8c-.2,.6,-.4,1.1,-.6,1.6c-.1,.4,-.3,.9,-.4,1.3c-.1,.4,-.1,.8,-.2,1.2c0,.4,-.1,.8,-.1,1.1c0,.2,0,.4,0,.6c0,.7,.1,1.3,.3,1.8c.3,.7,.7,1.3,1.2,1.7c.6,.5,1.2,.8,2,1c.8,.3,1.6,.4,2.5,.4c.4,0,.8,0,1.3,-.1Zm5.6,-5.1h5c.5,0,1.1,-.1,1.6,-.1c.6,-.1,1.1,-.2,1.7,-.4c.5,-.2,.9,-.4,1.4,-.7c.4,-.3,.8,-.6,1.1,-1c.4,-.4,.6,-.8,.8,-1.2c.1,-.5,.2,-1,.2,-1.5q0,-.1,0,-.2c0,-.5,-.1,-.8,-.3,-1.2c-.2,-.3,-.4,-.6,-.7,-.9c-.3,-.2,-.6,-.4,-1,-.5c-.3,-.2,-.7,-.2,-1.1,-.2c-.4,0,-.8,0,-1.2,.1c-.3,.1,-.7,.3,-1,.4c-.4,.2,-.7,.4,-1,.6c-.3,.3,-.6,.5,-.9,.7v-.6c0,-1.1,0,-2.1,-.1,-3.2c-.1,-1.1,-.2,-2.1,-.3,-3.1l-2.1,.5c.1,.8,.1,1.5,.2,2.1c0,.6,.1,1.2,.1,1.6c.1,.5,.1,.8,.1,1.2c0,.3,0,.7,0,1c0,.6,0,1.1,0,1.6c-.1,.6,-.1,1,-.2,1.3c-.2,.4,-.4,.7,-.6,.9c-.2,.3,-.3,.5,-.4,.6v.1h-1.3v2.1Zm3.5,-2.1c.4,-.7,.8,-1.3,1.3,-1.7c.4,-.5,.9,-.9,1.3,-1.2c.4,-.3,.8,-.5,1.2,-.6c.3,-.1,.7,-.2,.9,-.2h.2c.2,0,.4,0,.6,0c.2,.1,.4,.2,.6,.3c.1,.1,.3,.2,.3,.3c.1,.2,.2,.3,.2,.5c0,0,0,.1,0,.1c0,.4,-.1,.7,-.2,.9c-.2,.3,-.5,.6,-.8,.8c-.3,.2,-.7,.3,-1.1,.5c-.5,.1,-.9,.2,-1.3,.2c-.5,.1,-.9,.1,-1.4,.1c-.4,0,-.7,0,-1.1,0h-.7Zm15.9,.1h-.2c-.3,0,-.5,-.1,-.6,-.2c-.2,-.1,-.4,-.2,-.6,-.5c-.1,-.2,-.3,-.5,-.5,-.9c-.2,-.5,-.3,-1,-.6,-1.6l-1.9,.8c.1,.3,.2,.6,.4,.9c.1,.4,.2,.7,.3,1c.1,.3,.2,.6,.3,.9c0,.3,.1,.6,.1,.8c0,.3,-.1,.7,-.2,1c-.1,.3,-.3,.6,-.5,.9c-.2,.3,-.5,.6,-.8,.9c-.3,.3,-.6,.5,-.9,.8c-.4,.2,-.7,.5,-1.1,.7c-.4,.2,-.8,.4,-1.1,.6l.9,1.9c.6,-.4,1.3,-.8,1.9,-1.2c.7,-.5,1.3,-1,1.8,-1.5c.5,-.5,.9,-1.1,1.2,-1.7c.4,-.6,.6,-1.3,.7,-1.9c.2,.1,.4,.2,.7,.2c.2,.1,.3,.1,.5,.1h.2v-2Zm-.3,0v2h.3c.4,0,.7,0,1,-.1c.2,-.1,.5,-.2,.7,-.3c.2,-.1,.4,-.2,.5,-.3c.1,-.2,.3,-.3,.4,-.5c.1,.2,.2,.4,.4,.5c.1,.2,.3,.3,.4,.4c.2,.1,.4,.2,.6,.3c.2,.1,.4,.1,.7,.1c.3,0,.6,-.1,.8,-.1c.3,-.1,.5,-.2,.7,-.3c.2,-.1,.3,-.2,.5,-.4c.1,-.1,.2,-.3,.4,-.5c.1,.2,.2,.3,.3,.5c.2,.2,.3,.3,.5,.4c.2,.1,.4,.2,.6,.3c.2,.1,.4,.1,.6,.1h.2c.5,0,1,-.1,1.4,-.2c.4,-.2,.8,-.4,1.1,-.7c.3,-.3,.5,-.6,.6,-1c.2,-.4,.3,-.8,.3,-1.3c0,-.4,-.1,-.7,-.1,-1c-.1,-.3,-.1,-.6,-.2,-1c-.1,-.3,-.2,-.6,-.3,-.8c-.1,-.3,-.2,-.6,-.3,-.8c0,-.2,-.1,-.4,-.2,-.6c-.1,-.1,-.1,-.2,-.2,-.3l-1.7,1c.1,.2,.2,.4,.3,.7c.2,.3,.3,.6,.4,.9c.1,.3,.2,.6,.3,.9c.1,.4,.1,.7,.1,1c0,.4,-.1,.7,-.4,.9c-.2,.2,-.5,.2,-.9,.2c-.2,0,-.4,0,-.5,-.1c-.1,0,-.3,-.1,-.3,-.3c-.1,-.1,-.2,-.2,-.2,-.3c0,-.2,0,-.3,0,-.4v-.2c0,-.2,0,-.4,0,-.6c.1,-.3,.1,-.5,.1,-.7c0,-.2,.1,-.4,.1,-.5c0,-.2,.1,-.4,.1,-.5l-1.9,-.4c0,.3,-.1,.5,-.1,.8c-.1,.3,-.1,.6,-.2,.9c-.1,.3,-.2,.5,-.3,.8c-.1,.3,-.3,.6,-.4,.8c-.2,.2,-.3,.4,-.5,.5c-.2,.2,-.4,.2,-.7,.2c-.2,0,-.4,0,-.5,-.2c-.1,-.1,-.1,-.2,-.1,-.4c0,-.1,0,-.2,0,-.2c0,-.2,0,-.4,0,-.6c.1,-.3,.1,-.5,.2,-.8c.1,-.2,.1,-.5,.2,-.7c.1,-.2,.2,-.4,.2,-.6l-2,-.4c0,.2,-.1,.5,-.2,.7c-.1,.3,-.1,.6,-.2,.9c-.1,.3,-.3,.6,-.4,.8c-.1,.3,-.3,.5,-.5,.7c-.2,.3,-.4,.4,-.6,.6c-.2,.1,-.5,.2,-.8,.2h-.3Zm6,-9l-1.4,1.3l1.4,1.4l1.3,-1.4l-1.3,-1.3Zm3,0l-1.4,1.3l1.4,1.4l1.4,-1.4l-1.4,-1.3Zm-1.5,.3l1.2,-1.3l-1.2,-1.2l-1.3,1.2l1.3,1.3Zm19.5,10.7c.3,0,.5,0,.8,0c.4,0,.8,-.1,1.2,-.1c.4,-.1,.8,-.1,1.2,-.2c.5,-.1,.9,-.2,1.3,-.3c.4,-.1,.8,-.3,1.2,-.4c.3,-.2,.6,-.3,.9,-.6c.3,-.2,.5,-.4,.7,-.6c.1,-.3,.2,-.6,.2,-.9c0,-.2,0,-.5,-.1,-.8c-.1,-.3,-.2,-.6,-.3,-.9c-.1,-.4,-.2,-.7,-.3,-1c-.2,-.4,-.3,-.6,-.4,-.9c-.1,-.3,-.2,-.5,-.3,-.6c-.1,-.2,-.2,-.3,-.2,-.3l-1.7,1.2c.2,.2,.3,.5,.5,.8c.1,.2,.3,.5,.4,.8c.2,.3,.3,.5,.4,.8c.1,.3,.2,.6,.3,.9c-.5,.2,-.9,.4,-1.5,.5c-.5,.2,-1,.3,-1.5,.3c-.6,.1,-1.1,.2,-1.6,.2c-.5,0,-.9,0,-1.3,0c-.8,0,-1.4,0,-2.1,-.1c-.6,0,-1.2,-.1,-1.6,-.2c-.5,-.2,-.9,-.3,-1.3,-.5c-.3,-.2,-.5,-.4,-.6,-.6c-.1,-.1,-.1,-.3,-.1,-.4q0,-.1,0,-.2c0,-.2,.1,-.5,.2,-.7c.1,-.2,.2,-.5,.3,-.7c.1,-.2,.2,-.4,.3,-.5l-1.5,-1.2c-.1,.2,-.2,.5,-.4,.7c-.1,.2,-.2,.5,-.3,.7c-.1,.3,-.2,.6,-.3,.8c0,.3,-.1,.6,-.1,.9c0,.6,.1,1.1,.4,1.5c.2,.4,.4,.8,.8,1.1c.4,.3,.8,.6,1.3,.7c.4,.2,1,.4,1.5,.5c.6,.1,1.1,.2,1.7,.2c.6,.1,1.2,.1,1.8,.1h.1Zm-1.5,-9.5l-1.4,1.4l1.4,1.3L584,66.7l-1.3,-1.4Zm3,0l-1.4,1.4l1.4,1.4l1.4,-1.4l-1.4,-1.4Zm7.6,-2.5c0,.9,.1,1.8,.2,2.7c0,1,.1,2,.1,3.1c0,.5,0,1,0,1.5c0,1.4,0,2.9,-.1,4.7l2.1,-.3c0,-.5,0,-.9,0,-1.4c0,-.5,.1,-1,.1,-1.5c0,-.6,0,-1.2,0,-1.8c0,-.6,0,-1.3,0,-2.1c0,-.9,-.1,-1.8,-.1,-2.7c-.1,-.9,-.2,-1.9,-.3,-2.9l-2,.7Zm5.6,7.3c.1,.3,.1,.5,.2,.8c.1,.3,.2,.7,.3,1c.1,.3,.2,.6,.3,1c.1,.3,.1,.6,.1,.9c0,.4,-.1,.7,-.2,1c-.1,.3,-.3,.6,-.5,.9c-.2,.3,-.4,.6,-.7,.9c-.3,.3,-.6,.6,-.9,.8c-.3,.3,-.7,.5,-1.1,.7c-.3,.3,-.7,.5,-1.1,.7l.9,1.8c.5,-.3,1,-.5,1.4,-.8c.5,-.3,.9,-.6,1.3,-1c.5,-.3,.8,-.7,1.2,-1c.4,-.4,.7,-.8,.9,-1.3c.3,-.4,.5,-.8,.6,-1.3c.2,-.4,.2,-.9,.2,-1.4c0,-.3,0,-.7,0,-1c-.1,-.4,-.2,-.8,-.3,-1.2c-.1,-.3,-.2,-.7,-.3,-1.1c-.1,-.3,-.2,-.7,-.3,-1l-2,.6Zm8.6,2.7h-.4c-.2,0,-.4,-.1,-.5,-.1c-.2,-.1,-.3,-.1,-.4,-.2c-.1,-.1,-.2,-.2,-.2,-.4c-.1,-.1,-.1,-.3,-.1,-.5v-.1c0,-.2,0,-.4,0,-.5c0,-.2,0,-.3,0,-.5c0,-.2,0,-.3,0,-.5c0,-.2,0,-.4,0,-.6c0,-.2,0,-.5,0,-.8c0,-.3,0,-.6,0,-.9c0,-.5,0,-1,0,-1.5c0,-.5,-.1,-1,-.1,-1.5c0,-.5,-.1,-1,-.1,-1.5c-.1,-.4,-.1,-.8,-.2,-1.1l-2,.6c.1,.3,.1,.5,.1,.9c.1,.3,.1,.6,.1,1c.1,.4,.1,.8,.1,1.2c0,.4,0,.8,.1,1.2c0,.4,0,.8,0,1.2c0,.4,0,.7,0,1.1c0,.5,0,1,0,1.4c0,.4,0,.7,0,.8c0,1.1,.2,1.9,.8,2.5c.6,.5,1.4,.8,2.5,.8h.3v-2Zm5.4,0c-.2,0,-.4,-.1,-.5,-.2c-.1,-.1,-.2,-.3,-.3,-.4c-.1,-.2,-.2,-.4,-.2,-.6c0,-.1,-.1,-.3,-.1,-.5c0,-.3,0,-.5,0,-.7c0,-.2,-.1,-.4,-.1,-.6c0,-.2,-.1,-.4,-.1,-.6c0,-.2,-.1,-.4,-.2,-.6l-1.9,.5c.1,.5,.2,.9,.3,1.2c.1,.3,.1,.6,.1,.8c0,.5,-.2,1,-.6,1.2c-.4,.3,-1,.5,-1.9,.5h-.2v2h.2c.8,0,1.4,-.1,2,-.2c.5,-.2,.9,-.4,1.3,-.7c.2,.3,.6,.5,.9,.6c.4,.2,.8,.3,1.3,.3h.2v-2h-.2ZM610,75.9l-1.5,1.5l1.5,1.5l1.5,-1.5L610,75.9Zm11.2,-7.4c-.1,-.1,-.3,-.3,-.5,-.4c-.2,-.2,-.3,-.3,-.5,-.4c-.2,-.1,-.4,-.2,-.6,-.3c-.2,-.1,-.4,-.2,-.6,-.3c-.2,-.1,-.4,-.1,-.7,-.2c-.2,0,-.5,0,-.7,0c-.5,0,-1,.1,-1.5,.3c-.4,.2,-.8,.4,-1.1,.8c-.4,.3,-.6,.7,-.8,1.1c-.2,.5,-.3,.9,-.3,1.4c0,.5,.1,.9,.2,1.2c.1,.4,.3,.7,.5,1h-1.8v2.1h1.9c.8,0,1.6,0,2.3,-.1c.6,0,1.2,-.1,1.7,-.2c.6,0,1,-.1,1.5,-.2c.4,-.1,.7,-.2,1.1,-.3L621,72l-.8,.2c-.3,.1,-.6,.1,-.9,.1c-.3,.1,-.6,.1,-.9,.1q-.1,.1,-.2,.1c-.2,0,-.5,-.1,-.8,-.2c-.3,-.1,-.6,-.2,-.8,-.4c-.2,-.2,-.4,-.4,-.5,-.6c-.2,-.2,-.2,-.5,-.2,-.7q0,-.1,0,-.2c0,-.2,0,-.4,.1,-.6c.1,-.1,.2,-.3,.3,-.4c.2,-.2,.4,-.3,.6,-.4c.2,-.1,.4,-.1,.7,-.1c.3,0,.6,.1,.9,.2c.3,.1,.5,.3,.7,.4c.3,.2,.5,.4,.7,.6l1.3,-1.6Z" class="g2_56"/>
</svg>