<?xml version="1.0" encoding="UTF-8" standalone="no"?>
<!DOCTYPE svg PUBLIC "-//W3C//DTD SVG 1.1//EN"
"http://www.w3.org/Graphics/SVG/1.1/DTD/svg11.dtd">
<svg viewBox="0 0 714 1017" version="1.1" xmlns="http://www.w3.org/2000/svg" xmlns:xlink="http://www.w3.org/1999/xlink">
<defs>
<style type="text/css"><![CDATA[
.g0_212{
fill: #F1EFEE;
}
.g1_212{
fill: #D0D1D0;
}
.g2_212{
fill: #D1D3D4;
}
.g3_212{
fill: none;
stroke: #D0D1D0;
stroke-width: 6.111;
stroke-linecap: butt;
stroke-linejoin: round;
stroke-miterlimit: 4;
}
]]></style>
</defs>
<image preserveAspectRatio="none" x="640" y="30" width="49" height="82" xlink:href="img/1.png"/>
<image preserveAspectRatio="none" x="514" y="861" width="202" height="159" xlink:href="img/2.png"/>
<path d="M99.6,318.4H615V451.9H99.6V318.4Z" class="g0_212"/>
<image preserveAspectRatio="none" x="624" y="318" width="52" height="52" xlink:href="img/3.png"/>
<path d="M399.4,74.5c-3.3,0,-5.9,-2.5,-5.9,-5.6c0,-3.2,2.6,-5.7,5.9,-5.7c3.3,0,6,2.5,6,5.7c0,3.1,-2.7,5.6,-6,5.6Z" class="g1_212"/>
<path d="M399.4,69.8H4.7V67.9H399.4v1.9Z" class="g1_212"/>
<path d="M654.9,48.9c0,0,-18.5,0,-18.5,15.4v7.2c0,0,0,15.4,18.5,15.4h60.2c0,0,18.5,0,18.5,-15.4V64.3c0,0,0,-15.4,-18.5,-15.4Z" class="g2_212"/>
<path d="M433.9,70.6h-.4c-.2,0,-.4,0,-.5,-.1c-.2,0,-.3,-.1,-.4,-.2c-.1,-.1,-.2,-.2,-.2,-.4c-.1,-.1,-.1,-.3,-.1,-.5v-.1c0,-.2,0,-.3,0,-.5c0,-.1,0,-.3,0,-.5c0,-.1,0,-.3,0,-.5c0,-.2,0,-.4,0,-.6c0,-.2,0,-.5,0,-.8c0,-.3,0,-.6,0,-.9c0,-.5,0,-.9,0,-1.5c0,-.5,-.1,-1,-.1,-1.5c0,-.5,-.1,-1,-.1,-1.4c-.1,-.5,-.1,-.9,-.2,-1.2l-2,.6c.1,.3,.1,.6,.1,.9c.1,.3,.1,.7,.1,1.1c.1,.3,.1,.7,.1,1.1c0,.4,0,.8,0,1.2c.1,.4,.1,.8,.1,1.2c0,.4,0,.7,0,1.1c0,.5,0,1,0,1.4c-.1,.4,-.1,.7,-.1,.9c0,1,.3,1.9,.9,2.4c.5,.6,1.4,.8,2.4,.8h.4v-2Zm-.4,2h.2c.8,0,1.5,0,2.2,-.1c.7,-.1,1.3,-.2,1.8,-.4c.2,.1,.5,.2,.7,.3c.3,0,.6,.1,.9,.1c.2,.1,.5,.1,.8,.1c.3,0,.5,0,.7,0c.2,0,.4,0,.7,0c.2,0,.4,0,.7,-.1c.2,0,.5,-.1,.7,-.1c.2,-.1,.4,-.2,.5,-.3c.5,-.2,.9,-.6,1.1,-1c.3,-.4,.5,-.8,.6,-1.1c0,-.3,.1,-.6,.1,-.8c0,-.3,-.1,-.5,-.1,-.8c-.2,-.4,-.4,-.9,-.7,-1.3c-.2,-.2,-.4,-.5,-.7,-.6c-.2,-.2,-.5,-.4,-.7,-.6c-.3,-.1,-.7,-.3,-1.1,-.5c-.3,-.2,-.8,-.3,-1.3,-.6c-.2,-.1,-.5,-.2,-.7,-.3c-.3,-.2,-.6,-.3,-.9,-.4c-.2,-.2,-.5,-.3,-.8,-.4c-.2,-.2,-.5,-.3,-.7,-.4c-.2,-.1,-.3,-.2,-.4,-.2c-.2,-.1,-.3,-.1,-.3,-.1l-1.2,1.9c.2,.1,.3,.2,.4,.2q.1,.1,.2,.1c-.3,.1,-.5,.3,-.7,.6c-.2,.2,-.3,.4,-.5,.7c-.1,.3,-.2,.5,-.2,.8c-.1,.3,-.1,.6,-.1,.9c0,.4,0,.8,.2,1.2c.1,.4,.3,.8,.5,1.1c-.2,0,-.3,0,-.5,0c-.1,0,-.2,.1,-.4,.1c-.1,0,-.2,0,-.3,0c-.2,0,-.3,0,-.5,0h-.2v2Zm8,-5.1c0,-.1,0,-.2,0,-.3c.3,.2,.5,.3,.7,.5c.3,.1,.5,.3,.7,.5c.1,.1,.3,.3,.4,.5c.1,.2,.1,.3,.1,.5c0,.2,0,.4,-.1,.6c-.2,.1,-.3,.3,-.5,.4c-.3,.1,-.5,.2,-.8,.3c-.3,.1,-.6,.1,-.9,.1c-.1,0,-.2,0,-.3,0c-.1,0,-.2,0,-.3,0c.4,-.4,.6,-.8,.8,-1.3c.1,-.5,.2,-1,.2,-1.5c0,-.1,0,-.2,0,-.3Zm-2.9,-1.1c.2,.1,.3,.2,.5,.4c.1,.1,.3,.2,.3,.4c.1,.2,.1,.4,.1,.5c0,.1,0,.2,0,.3c0,.3,-.1,.6,-.2,.8c-.1,.3,-.3,.5,-.4,.6c-.2,.2,-.3,.3,-.5,.4c-.2,.1,-.4,.2,-.6,.2c-.2,0,-.4,-.1,-.5,-.2c-.1,-.1,-.3,-.3,-.4,-.4c-.1,-.2,-.2,-.3,-.2,-.5c-.1,-.2,-.2,-.3,-.2,-.5q0,-.1,0,-.2c0,-.2,.1,-.4,.1,-.6c.1,-.2,.2,-.5,.4,-.7c.1,-.2,.3,-.4,.5,-.5c.2,-.1,.3,-.1,.5,-.1c0,0,.1,0,.1,0c.2,0,.3,0,.5,.1Zm24.1,-.7h-4.9v1.7h2.6V70c-.4,.5,-1.3,.8,-2.4,.8c-1.1,0,-1.9,-.4,-2.5,-1.2c-.6,-.8,-.9,-1.9,-.9,-3.3v-1c0,-1.4,.3,-2.5,.8,-3.2c.5,-.7,1.3,-1.1,2.3,-1.1c1.6,0,2.5,.8,2.8,2.3h2.2C462.5,62,462,61,461.1,60.2c-.8,-.7,-2,-1,-3.4,-1c-1.7,0,-3,.5,-4,1.6c-.9,1.1,-1.4,2.7,-1.4,4.6v1.1c0,1.2,.3,2.3,.7,3.2c.5,.9,1.1,1.6,2,2.1c.8,.5,1.8,.8,2.9,.8c1,0,2,-.2,2.8,-.5c.9,-.3,1.5,-.8,2,-1.4v-5Zm8.7,6.4c.7,-.3,1.2,-.8,1.6,-1.4l-1.2,-1.1c-.6,.8,-1.4,1.2,-2.4,1.2c-.7,0,-1.3,-.2,-1.8,-.7c-.5,-.4,-.7,-1.1,-.8,-1.9h6.3v-.8c0,-1.6,-.3,-2.8,-1,-3.6c-.8,-.9,-1.8,-1.3,-3.1,-1.3c-.8,0,-1.6,.2,-2.3,.7c-.6,.4,-1.2,1,-1.5,1.7c-.4,.8,-.6,1.7,-.6,2.6v.3c0,1.4,.4,2.6,1.3,3.5c.9,.8,2,1.3,3.3,1.3c.9,0,1.6,-.2,2.2,-.5Zm-1,-7.3c.3,.4,.5,.9,.6,1.7v.1h-4.2c.1,-.7,.4,-1.3,.7,-1.7c.4,-.4,.9,-.6,1.5,-.6c.6,0,1.1,.1,1.4,.5Zm4.4,-2.1v9.7H477V65.5c.4,-.8,1,-1.2,1.9,-1.2c.6,0,1.1,.1,1.3,.4c.3,.3,.4,.8,.4,1.4v6.3h2.2V66c0,-2.3,-1.1,-3.5,-3.1,-3.5c-1.1,0,-2.1,.4,-2.8,1.3l-.1,-1.1h-2Zm16.7,9.4c.6,-.3,1.1,-.8,1.5,-1.4l-1.2,-1.1c-.6,.8,-1.4,1.2,-2.4,1.2c-.7,0,-1.3,-.2,-1.8,-.7c-.4,-.4,-.7,-1.1,-.8,-1.9h6.4v-.8c0,-1.6,-.4,-2.8,-1.1,-3.6c-.7,-.9,-1.8,-1.3,-3.1,-1.3c-.8,0,-1.6,.2,-2.2,.7c-.7,.4,-1.2,1,-1.6,1.7c-.4,.8,-.6,1.7,-.6,2.6v.3c0,1.4,.5,2.6,1.3,3.5c.9,.8,2,1.3,3.4,1.3c.8,0,1.5,-.2,2.2,-.5Zm-1.1,-7.3c.4,.4,.6,.9,.6,1.7v.1h-4.1c.1,-.7,.3,-1.3,.7,-1.7c.3,-.4,.8,-.6,1.4,-.6c.6,0,1.1,.1,1.4,.5Zm9.5,-2.2c-.2,0,-.4,-.1,-.7,-.1c-1,0,-1.7,.4,-2.2,1.3l-.1,-1.1h-2.1v9.7H497V65.8c.4,-.8,1,-1.2,2,-1.2c.3,0,.6,0,.9,.1V62.6Zm9.4,9.8v-.2c-.2,-.5,-.4,-1.2,-.4,-2.1V65.8c0,-1.1,-.3,-1.9,-1,-2.4c-.7,-.6,-1.6,-.9,-2.7,-.9c-.8,0,-1.4,.1,-2,.4c-.7,.3,-1.1,.6,-1.5,1.1c-.3,.5,-.5,1,-.5,1.5h2.2c0,-.4,.1,-.7,.4,-1c.4,-.2,.8,-.3,1.3,-.3c.5,0,1,.1,1.2,.4c.3,.3,.5,.7,.5,1.2v.7h-1.4c-1.4,0,-2.5,.2,-3.3,.8c-.7,.5,-1.1,1.3,-1.1,2.4c0,.8,.3,1.5,.9,2c.6,.6,1.4,.9,2.4,.9c1,0,1.8,-.4,2.5,-1.1c.1,.4,.2,.7,.3,.9h2.2Zm-5.7,-2c-.3,-.2,-.4,-.5,-.4,-1c0,-.5,.2,-.9,.6,-1.1c.4,-.3,1,-.5,1.8,-.5h1.2v1.9c-.2,.3,-.5,.6,-.9,.8c-.4,.2,-.8,.3,-1.2,.3c-.5,0,-.8,-.1,-1.1,-.4Zm8.2,-10.1v2.4h-1.6v1.6h1.6v5.5c0,1.8,.8,2.8,2.5,2.8c.4,0,.9,-.1,1.4,-.2V70.7c-.3,0,-.5,.1,-.8,.1c-.3,0,-.6,-.1,-.7,-.3c-.2,-.1,-.3,-.4,-.3,-.8V64.3h1.7V62.7h-1.7V60.3h-2.1Zm5.1,7.3c0,1.5,.4,2.7,1.2,3.6c.9,.9,1.9,1.4,3.3,1.4c.9,0,1.7,-.2,2.4,-.7c.7,-.4,1.2,-1,1.6,-1.7c.3,-.8,.5,-1.6,.5,-2.6v-.5c-.1,-1.4,-.5,-2.5,-1.3,-3.3c-.8,-.9,-1.9,-1.3,-3.2,-1.3c-.9,0,-1.7,.2,-2.4,.6c-.6,.4,-1.2,1,-1.5,1.8c-.4,.7,-.6,1.6,-.6,2.5v.2Zm2.8,-2.5c.4,-.6,1,-.8,1.7,-.8c.7,0,1.3,.2,1.7,.8c.4,.6,.6,1.4,.6,2.3c0,1.2,-.2,2,-.6,2.6c-.4,.5,-1,.8,-1.7,.8c-.7,0,-1.3,-.3,-1.7,-.8c-.4,-.6,-.6,-1.4,-.6,-2.4c0,-1.1,.2,-1.9,.6,-2.5Zm13.1,-2.5c-.2,0,-.4,-.1,-.7,-.1c-1,0,-1.7,.4,-2.2,1.3l-.1,-1.1h-2.1v9.7h2.2V65.8c.4,-.8,1,-1.2,2,-1.2c.3,0,.6,0,.9,.1V62.6Zm10.4,5c.1,.1,.3,.2,.4,.4c.2,.2,.3,.4,.4,.6c.1,.2,.3,.4,.4,.6c0,.3,.1,.5,.2,.7c0,.3,.1,.5,.1,.7c-.1,0,-.2,0,-.4,0c-.1,0,-.3,0,-.4,0c-.1,0,-.3,0,-.4,0c-.1,0,-.3,-.1,-.4,-.1c-.2,0,-.4,0,-.6,-.1c-.2,0,-.4,-.1,-.5,-.2c-.2,-.1,-.3,-.2,-.4,-.3c-.1,-.2,-.2,-.3,-.2,-.6c0,-.2,0,-.4,.1,-.6c.1,-.2,.2,-.5,.4,-.6c.1,-.2,.2,-.4,.4,-.5c.2,-.1,.3,-.2,.5,-.2c.1,0,.3,.1,.4,.2Zm-3.6,10.6c.6,-.1,1.2,-.3,1.8,-.5c.6,-.2,1.1,-.4,1.7,-.7c.5,-.3,1,-.7,1.4,-1.1c.4,-.4,.8,-.8,1.1,-1.3c.3,-.5,.5,-1.1,.7,-1.7c.2,-.6,.3,-1.2,.3,-1.9c0,-.4,-.1,-.8,-.1,-1.3c-.1,-.4,-.2,-.8,-.3,-1.2c-.2,-.4,-.3,-.7,-.5,-1.1c-.2,-.3,-.4,-.6,-.7,-.9c-.7,-.7,-1.4,-1.1,-2.2,-1.1c-.4,0,-.7,.1,-.9,.2c-.3,.1,-.6,.3,-.8,.5c-.2,.2,-.4,.4,-.6,.7c-.2,.3,-.3,.6,-.4,.9c-.2,.3,-.3,.6,-.3,.9c-.1,.3,-.1,.6,-.1,.9c0,.5,0,.9,.2,1.2c.1,.3,.3,.6,.5,.8c.2,.3,.5,.5,.8,.6c.3,.1,.6,.2,1,.3c.3,.1,.7,.2,1.1,.2c.4,0,.9,0,1.3,0c-.1,.4,-.3,.7,-.6,1.1c-.3,.4,-.7,.7,-1.1,1c-.5,.3,-1,.6,-1.7,.9c-.6,.2,-1.3,.5,-2.1,.6l.5,2ZM556.5,59.3h-2.3V72.4h2.3V59.3Zm3.1,1v2.4H558v1.6h1.6v5.5c0,1.8,.8,2.8,2.5,2.8c.5,0,.9,-.1,1.4,-.2V70.7c-.2,0,-.5,.1,-.7,.1c-.4,0,-.7,-.1,-.8,-.3c-.1,-.1,-.2,-.4,-.2,-.8V64.3h1.7V62.7h-1.7V60.3h-2.2Zm12,11.8c.6,-.3,1.2,-.8,1.5,-1.4L572,69.6c-.7,.8,-1.5,1.2,-2.5,1.2c-.7,0,-1.3,-.2,-1.7,-.7c-.5,-.4,-.8,-1.1,-.8,-1.9h6.3v-.8c0,-1.6,-.4,-2.8,-1.1,-3.6c-.7,-.9,-1.7,-1.3,-3,-1.3c-.9,0,-1.6,.2,-2.3,.7c-.7,.4,-1.2,1,-1.6,1.7c-.3,.8,-.5,1.7,-.5,2.6v.3c0,1.4,.4,2.6,1.3,3.5c.8,.8,1.9,1.3,3.3,1.3c.8,0,1.5,-.2,2.2,-.5Zm-1,-7.3c.3,.4,.5,.9,.6,1.7v.1H567c.1,-.7,.3,-1.3,.7,-1.7c.4,-.4,.9,-.6,1.5,-.6c.6,0,1,.1,1.4,.5Zm9.5,-2.2c-.2,0,-.5,-.1,-.8,-.1c-.9,0,-1.7,.4,-2.2,1.3V62.7H575v9.7h2.2V65.8c.3,-.8,1,-1.2,2,-1.2c.3,0,.6,0,.9,.1V62.6Zm9.3,9.8v-.2c-.2,-.5,-.3,-1.2,-.3,-2.1V65.8c0,-1.1,-.4,-1.9,-1.1,-2.4c-.6,-.6,-1.5,-.9,-2.7,-.9c-.7,0,-1.4,.1,-2,.4c-.6,.3,-1.1,.6,-1.4,1.1c-.4,.5,-.6,1,-.6,1.5h2.2c0,-.4,.2,-.7,.5,-1c.3,-.2,.7,-.3,1.2,-.3c.6,0,1,.1,1.3,.4c.3,.3,.4,.7,.4,1.2v.7h-1.3c-1.5,0,-2.6,.2,-3.3,.8c-.8,.5,-1.2,1.3,-1.2,2.4c0,.8,.3,1.5,.9,2c.7,.6,1.5,.9,2.4,.9c1,0,1.9,-.4,2.6,-1.1c0,.4,.1,.7,.2,.9h2.2Zm-5.7,-2c-.3,-.2,-.4,-.5,-.4,-1c0,-.5,.2,-.9,.6,-1.1c.4,-.3,1,-.5,1.8,-.5h1.2v1.9c-.2,.3,-.5,.6,-.9,.8c-.3,.2,-.7,.3,-1.2,.3c-.4,0,-.8,-.1,-1.1,-.4Zm8.2,-10.1v2.4h-1.6v1.6h1.6v5.5c0,1.8,.8,2.8,2.5,2.8c.5,0,.9,-.1,1.4,-.2V70.7c-.2,0,-.5,.1,-.7,.1c-.4,0,-.7,-.1,-.8,-.3c-.2,-.1,-.2,-.4,-.2,-.8V64.3h1.7V62.7h-1.7V60.3h-2.2Zm5.1,7.3c0,1.5,.5,2.7,1.3,3.6c.8,.9,1.9,1.4,3.3,1.4c.8,0,1.6,-.2,2.3,-.7c.7,-.4,1.2,-1,1.6,-1.7c.4,-.8,.5,-1.6,.5,-2.6v-.5c0,-1.4,-.5,-2.5,-1.3,-3.3c-.8,-.9,-1.9,-1.3,-3.2,-1.3c-.9,0,-1.6,.2,-2.3,.6c-.7,.4,-1.2,1,-1.6,1.8c-.4,.7,-.6,1.6,-.6,2.5v.2Zm2.8,-2.5c.5,-.6,1,-.8,1.7,-.8c.8,0,1.3,.2,1.7,.8c.5,.6,.7,1.4,.7,2.3c0,1.2,-.2,2,-.6,2.6c-.4,.5,-1,.8,-1.7,.8c-.8,0,-1.4,-.3,-1.8,-.8c-.4,-.6,-.6,-1.4,-.6,-2.4c0,-1.1,.2,-1.9,.6,-2.5ZM613,62.6c-.2,0,-.5,-.1,-.8,-.1c-.9,0,-1.7,.4,-2.2,1.3V62.7h-2.1v9.7h2.2V65.8c.3,-.8,1,-1.2,2,-1.2c.3,0,.6,0,.9,.1V62.6Z" class="g3_212"/>
</svg>