<?xml version="1.0" encoding="UTF-8" standalone="no"?>
<!DOCTYPE svg PUBLIC "-//W3C//DTD SVG 1.1//EN"
"http://www.w3.org/Graphics/SVG/1.1/DTD/svg11.dtd">
<svg viewBox="0 0 714 1017" version="1.1" xmlns="http://www.w3.org/2000/svg" xmlns:xlink="http://www.w3.org/1999/xlink">
<defs>
<style type="text/css"><![CDATA[
.g0_207{
fill: #D1D3D4;
}
.g1_207{
fill: #F1EFEE;
}
.g2_207{
fill: #D0D1D0;
}
]]></style>
</defs>
<image preserveAspectRatio="none" x="34" y="28" width="49" height="82" xlink:href="img/1.png"/>
<path d="M2.6,48.9c0,0,-18.4,0,-18.4,15.4v7.2c0,0,0,15.4,18.4,15.4H62.8c0,0,18.5,0,18.5,-15.4V64.3c0,0,0,-15.4,-18.5,-15.4Z" class="g0_207"/>
<image preserveAspectRatio="none" x="0" y="861" width="201" height="159" xlink:href="img/2.png"/>
<path d="M99.6,342.8H615V668.9H99.6V342.8Z" class="g1_207"/>
<image preserveAspectRatio="none" x="39" y="343" width="52" height="52" xlink:href="img/3.png"/>
<path d="M216.2,74.5c3.3,0,6,-2.5,6,-5.6c0,-3.2,-2.7,-5.7,-6,-5.7c-3.3,0,-5.9,2.5,-5.9,5.7c0,3.1,2.6,5.6,5.9,5.6Z" class="g2_207"/>
<path d="M221.2,69.8H709.7V67.9H221.2v1.9Z" class="g2_207"/>
</svg>