<?xml version="1.0" encoding="UTF-8" standalone="no"?>
<!DOCTYPE svg PUBLIC "-//W3C//DTD SVG 1.1//EN"
"http://www.w3.org/Graphics/SVG/1.1/DTD/svg11.dtd">
<svg viewBox="0 0 714 1017" version="1.1" xmlns="http://www.w3.org/2000/svg" xmlns:xlink="http://www.w3.org/1999/xlink">
<defs>
<style type="text/css"><![CDATA[
.g0_112{
fill: none;
stroke: #231F20;
stroke-width: 1.527;
stroke-linecap: butt;
stroke-linejoin: miter;
}
.g1_112{
fill: #D0D1D0;
}
.g2_112{
fill: #D1D3D4;
}
.g3_112{
fill: none;
stroke: #D0D1D0;
stroke-width: 6.111;
stroke-linecap: butt;
stroke-linejoin: round;
stroke-miterlimit: 4;
}
]]></style>
</defs>
<image preserveAspectRatio="none" x="640" y="30" width="49" height="82" xlink:href="img/1.png"/>
<image preserveAspectRatio="none" x="514" y="861" width="202" height="159" xlink:href="img/2.png"/>
<image preserveAspectRatio="none" x="122" y="299" width="470" height="210" xlink:href="img/3.png"/>
<path d="M505,889.6H615" class="g0_112"/>
<path d="M425.4,74.5c-3.3,0,-6,-2.5,-6,-5.6c0,-3.2,2.7,-5.7,6,-5.7c3.3,0,5.9,2.5,5.9,5.7c0,3.1,-2.6,5.6,-5.9,5.6Z" class="g1_112"/>
<path d="M424.2,69.8H4.7V67.9H424.2v1.9Z" class="g1_112"/>
<path d="M654.9,48.9c0,0,-18.5,0,-18.5,15.4v7.2c0,0,0,15.4,18.5,15.4h60.2c0,0,18.5,0,18.5,-15.4V64.3c0,0,0,-15.4,-18.5,-15.4Z" class="g2_112"/>
<path d="M447.3,74.1c-.3,.2,-.7,.3,-1.3,.3c-.6,0,-1.1,-.1,-1.4,-.4c-.4,-.3,-.6,-.7,-.6,-1.2h-2.1c0,.6,.1,1.1,.5,1.6c.3,.5,.8,.9,1.4,1.2c.6,.3,1.4,.4,2.1,.4c1.2,0,2.2,-.2,2.9,-.8c.7,-.5,1.1,-1.2,1.1,-2.1c0,-.5,-.1,-.9,-.4,-1.3c-.2,-.4,-.6,-.7,-1.1,-.9c-.4,-.3,-1.1,-.5,-2,-.7c-.8,-.2,-1.4,-.4,-1.7,-.6c-.3,-.2,-.4,-.4,-.4,-.8c0,-.3,.2,-.6,.5,-.8c.3,-.3,.6,-.4,1.1,-.4c.5,0,1,.2,1.3,.4c.3,.3,.4,.7,.4,1.1h2.2c0,-.9,-.4,-1.7,-1.1,-2.2c-.7,-.6,-1.6,-.9,-2.8,-.9c-1.1,0,-2,.3,-2.7,.8c-.7,.6,-1,1.3,-1,2.1c0,1,.5,1.8,1.6,2.3c.5,.3,1.1,.5,1.9,.6c.7,.2,1.2,.3,1.6,.5c.3,.2,.4,.5,.4,.9c0,.4,-.1,.7,-.4,.9Zm5,-10.3v2.4h-1.6v1.6h1.6v5.5c0,1.8,.9,2.7,2.5,2.7c.5,0,1,0,1.5,-.2V74.1c-.3,.1,-.6,.1,-.8,.1c-.4,0,-.6,0,-.8,-.2c-.1,-.2,-.2,-.4,-.2,-.8V67.8h1.7V66.2h-1.7V63.8h-2.2Zm10.6,2.3c-.2,-.1,-.4,-.1,-.7,-.1c-1,0,-1.7,.4,-2.2,1.3l-.1,-1.1h-2v9.7H460V69.2c.4,-.7,1,-1.1,2,-1.1c.4,0,.6,0,.9,.1V66.1Zm3.7,.1h-2.2v9.7h2.2V66.2Zm-2,-1.7c.2,.2,.5,.3,.9,.3c.4,0,.7,-.1,1,-.3c.2,-.2,.3,-.5,.3,-.8c0,-.4,-.1,-.7,-.3,-.9c-.3,-.2,-.6,-.3,-1,-.3c-.4,0,-.7,.1,-.9,.3c-.2,.2,-.3,.5,-.3,.9c0,.3,.1,.6,.3,.8Zm6.7,9c-.4,-.5,-.5,-1.3,-.5,-2.3v-.4c0,-1,.2,-1.8,.5,-2.3c.4,-.5,1,-.8,1.7,-.8c.5,0,1,.2,1.3,.6c.4,.3,.6,.8,.6,1.4h2c0,-1.1,-.4,-2,-1.1,-2.7c-.7,-.7,-1.7,-1,-2.8,-1c-1.4,0,-2.4,.4,-3.2,1.3c-.8,.9,-1.2,2.1,-1.2,3.6v.2c0,1.5,.4,2.7,1.2,3.6c.8,.9,1.8,1.3,3.2,1.3c.7,0,1.3,-.1,1.9,-.4c.7,-.3,1.1,-.7,1.5,-1.3c.3,-.5,.5,-1,.5,-1.6h-2c0,.4,-.2,.8,-.6,1.1c-.3,.3,-.8,.5,-1.3,.5c-.7,0,-1.3,-.3,-1.7,-.8Zm7.8,-9.7v2.4h-1.6v1.6h1.6v5.5c0,1.8,.9,2.7,2.5,2.7c.5,0,1,0,1.5,-.2V74.1c-.3,.1,-.5,.1,-.8,.1c-.4,0,-.6,0,-.8,-.2c-.1,-.2,-.2,-.4,-.2,-.8V67.8H483V66.2h-1.7V63.8h-2.2Zm28.6,12.3v-2h-.2c-.4,0,-.8,-.1,-1,-.2c-.3,-.1,-.5,-.2,-.7,-.4c-.1,-.2,-.3,-.4,-.3,-.6c-.1,-.3,-.2,-.5,-.2,-.6V72c0,-.2,.1,-.5,.1,-.7c.1,-.3,.2,-.6,.3,-.9l-1.9,-.5c0,.3,-.1,.5,-.2,.8c0,.3,-.1,.5,-.2,.8c-.1,.3,-.2,.5,-.4,.8c-.1,.2,-.3,.4,-.5,.6c-.3,.2,-.6,.4,-1,.5c-.3,.2,-.7,.3,-1.1,.4c-.5,.1,-1,.2,-1.5,.2c-.5,0,-1,.1,-1.6,.1c-.6,0,-1.2,-.1,-1.7,-.1c-.6,-.1,-1.1,-.2,-1.5,-.3c-.4,-.1,-.8,-.2,-1.1,-.4c-.3,-.2,-.5,-.4,-.7,-.6c-.1,-.3,-.2,-.5,-.3,-.7c0,-.2,0,-.4,0,-.6c0,-.1,0,-.2,0,-.3c0,-.2,.1,-.5,.2,-.7c.1,-.3,.2,-.5,.3,-.8l-1.5,-1c-.2,.4,-.4,.8,-.5,1.2c-.2,.4,-.2,.8,-.2,1.1c-.1,.2,-.1,.4,-.1,.6c0,.3,.1,.6,.1,.9c.1,.4,.3,.9,.5,1.3c.5,.8,1.3,1.4,2.4,1.8c1.1,.4,2.4,.6,4.1,.6c2.9,0,5.1,-.7,6.6,-2c.1,.4,.3,.7,.6,.9c.2,.3,.5,.5,.8,.6c.3,.2,.6,.3,.9,.4c.4,.1,.8,.1,1.2,.1h.3ZM496.5,66.6L495.1,68l1.4,1.4L497.8,68l-1.3,-1.4Zm3,0L498.1,68l1.4,1.4L500.8,68l-1.3,-1.4Zm7.9,9.5h.6c.6,0,1.2,-.1,1.6,-.2c.4,-.2,.8,-.4,1.1,-.8c.3,-.3,.5,-.6,.6,-1.1c.2,-.4,.2,-.9,.2,-1.4c0,-.2,0,-.4,0,-.6c0,-.2,0,-.5,0,-.8c0,-.3,0,-.6,0,-1.1c-.1,-.5,-.1,-1.1,-.1,-1.8c0,-1,-.1,-1.9,-.1,-2.7c-.1,-.8,-.1,-1.6,-.2,-2.2l-2,.4c0,.1,0,.3,0,.5c0,.3,.1,.6,.1,1c0,.5,0,.9,.1,1.4c0,.6,0,1.1,0,1.7c.1,.6,.1,1.2,.1,1.6c.1,.5,.1,.9,.1,1.1c0,.3,0,.6,0,.7c0,.2,0,.4,0,.5c0,.3,0,.6,-.1,.8c0,.2,-.1,.4,-.2,.5c-.1,.2,-.3,.3,-.5,.4c-.1,0,-.4,.1,-.7,.1h-.6v2Zm9.8,-2h-.3c-.2,0,-.4,-.1,-.6,-.1c-.1,0,-.2,-.1,-.3,-.2c-.1,-.1,-.2,-.2,-.3,-.4c0,-.1,0,-.3,0,-.5v-.1c0,-.2,0,-.4,0,-.5c0,-.2,0,-.3,0,-.5c0,-.2,0,-.3,0,-.5c0,-.2,0,-.4,0,-.6c0,-.2,0,-.5,0,-.8c0,-.3,0,-.6,0,-.9c0,-.5,0,-1,0,-1.5c-.1,-.5,-.1,-1,-.1,-1.5c-.1,-.5,-.1,-1,-.1,-1.5c-.1,-.4,-.1,-.8,-.2,-1.1l-2,.6c0,.3,.1,.6,.1,.9c.1,.3,.1,.7,.1,1c0,.4,.1,.8,.1,1.2c0,.4,0,.8,0,1.2c0,.4,0,.8,.1,1.2c0,.4,0,.7,0,1.1c0,.5,0,1,-.1,1.4c0,.4,0,.7,0,.8c0,1.1,.3,1.9,.9,2.5c.5,.5,1.3,.8,2.4,.8h.3v-2Zm-.3,2h1.8c1,0,2,-.1,3,-.4c.9,-.2,1.9,-.5,2.7,-.8c.9,-.4,1.8,-.7,2.6,-1.1c.8,-.4,1.6,-.8,2.3,-1.2l.2,-2c-.5,0,-.9,-.1,-1.3,-.2c-.4,-.1,-.8,-.3,-1.2,-.4c-.4,-.2,-.9,-.4,-1.2,-.6c-.4,-.2,-.8,-.3,-1.2,-.5c-.4,-.2,-.8,-.3,-1.2,-.4c-.4,-.1,-.9,-.2,-1.3,-.2c-.4,0,-.7,.1,-1.1,.2c-.3,.2,-.7,.4,-1,.6c-.3,.2,-.6,.5,-.8,.8c-.3,.3,-.5,.6,-.7,.9l1.7,1.1c0,0,.1,-.1,.1,-.2c.1,-.1,.1,-.2,.2,-.3c.1,-.1,.2,-.2,.3,-.3c.1,-.2,.2,-.3,.4,-.4c.1,-.1,.3,-.2,.4,-.2c.2,-.1,.4,-.1,.5,-.1c.4,0,.7,0,1,.1c.3,.2,.7,.3,1,.5c.4,.1,.7,.3,1.1,.4c.4,.2,.9,.4,1.3,.5c-.6,.2,-1.2,.5,-1.8,.8c-.7,.2,-1.3,.5,-2,.7c-.7,.2,-1.3,.3,-2,.5c-.7,.1,-1.4,.2,-2,.2h-1.8v2Zm23,-5c.1,.1,.3,.2,.4,.4c.1,.1,.3,.3,.4,.5c.1,.3,.2,.5,.3,.7c.1,.3,.2,.5,.2,.7c.1,.2,.2,.5,.2,.7c-.2,0,-.3,0,-.4,0c-.2,0,-.3,0,-.4,-.1c-.2,0,-.3,0,-.5,0c-.1,0,-.2,0,-.3,0c-.2,0,-.4,0,-.6,-.1c-.2,0,-.4,-.1,-.6,-.2c-.1,-.1,-.3,-.2,-.4,-.3c-.1,-.2,-.1,-.4,-.1,-.6c0,-.2,0,-.4,.1,-.6c.1,-.3,.2,-.5,.3,-.7c.2,-.1,.3,-.3,.5,-.4c.1,-.1,.3,-.2,.4,-.2c.2,0,.3,.1,.5,.2Zm-3.6,10.6c.6,-.1,1.2,-.3,1.8,-.5c.6,-.2,1.1,-.4,1.6,-.7c.5,-.3,1,-.7,1.4,-1.1c.5,-.4,.8,-.8,1.2,-1.3c.3,-.5,.5,-1.1,.7,-1.7c.2,-.6,.2,-1.2,.2,-1.9c0,-.4,0,-.9,-.1,-1.3c0,-.4,-.1,-.8,-.3,-1.2c-.1,-.4,-.3,-.8,-.5,-1.1c-.2,-.4,-.4,-.7,-.6,-.9c-.7,-.8,-1.5,-1.1,-2.3,-1.1c-.3,0,-.6,0,-.9,.2c-.3,.1,-.5,.2,-.7,.5c-.3,.2,-.5,.4,-.6,.7c-.2,.3,-.4,.5,-.5,.8c-.1,.4,-.2,.7,-.3,1c0,.3,-.1,.6,-.1,.9c0,.5,.1,.8,.2,1.2c.1,.3,.3,.6,.5,.8c.3,.3,.5,.4,.8,.6c.3,.1,.7,.2,1,.3c.4,.1,.8,.1,1.2,.2c.4,0,.8,0,1.3,0c-.1,.4,-.3,.7,-.6,1.1c-.3,.3,-.7,.7,-1.2,1c-.4,.3,-1,.6,-1.6,.9c-.6,.2,-1.3,.4,-2.1,.6l.5,2ZM552.7,62.1h-2.2V75.9h2.2v-7c.4,-.7,1.1,-1.1,1.9,-1.1c.6,0,1,.1,1.3,.4c.3,.3,.4,.7,.4,1.4v6.3h2.2V69.5c0,-2.3,-1.1,-3.5,-3.1,-3.5c-1.1,0,-2,.4,-2.7,1.2V62.1Zm7.6,8.9c0,1.6,.4,2.8,1.2,3.7c.9,.9,2,1.3,3.3,1.3c.9,0,1.7,-.2,2.4,-.6c.7,-.4,1.2,-1,1.6,-1.7c.3,-.8,.5,-1.6,.5,-2.6v-.5c-.1,-1.4,-.5,-2.5,-1.3,-3.3c-.8,-.9,-1.9,-1.3,-3.2,-1.3c-.9,0,-1.7,.2,-2.3,.6c-.7,.4,-1.3,1,-1.6,1.8c-.4,.7,-.6,1.6,-.6,2.5V71Zm2.8,-2.4c.4,-.6,1,-.9,1.7,-.9c.7,0,1.3,.3,1.7,.9c.4,.6,.7,1.3,.7,2.3c0,1.1,-.3,2,-.7,2.5c-.4,.6,-.9,.9,-1.7,.9c-.7,0,-1.3,-.3,-1.7,-.8c-.4,-.6,-.6,-1.4,-.6,-2.4c0,-1.1,.2,-1.9,.6,-2.5Zm10.4,-2.4h-2.2v9.7h2.2V66.2Zm-2,-1.7c.2,.2,.5,.3,.9,.3c.4,0,.7,-.1,.9,-.3c.2,-.2,.3,-.5,.3,-.8c0,-.4,-.1,-.7,-.3,-.9c-.2,-.2,-.5,-.3,-.9,-.3c-.4,0,-.7,.1,-.9,.3c-.2,.2,-.3,.5,-.3,.9c0,.3,.1,.6,.3,.8Zm9.3,9.6c-.3,.2,-.7,.3,-1.3,.3c-.6,0,-1.1,-.1,-1.4,-.4c-.4,-.3,-.6,-.7,-.6,-1.2h-2.1c0,.6,.2,1.1,.5,1.6c.4,.5,.8,.9,1.5,1.2c.6,.3,1.3,.4,2.1,.4c1.1,0,2.1,-.2,2.8,-.8c.7,-.5,1.1,-1.2,1.1,-2.1c0,-.5,-.1,-.9,-.4,-1.3c-.2,-.4,-.5,-.7,-1,-.9c-.5,-.3,-1.2,-.5,-2,-.7c-.9,-.2,-1.5,-.4,-1.7,-.6c-.3,-.2,-.5,-.4,-.5,-.8c0,-.3,.2,-.6,.5,-.8c.3,-.3,.7,-.4,1.2,-.4c.5,0,.9,.2,1.2,.4c.3,.3,.4,.7,.4,1.1h2.2c0,-.9,-.3,-1.7,-1,-2.2c-.8,-.6,-1.7,-.9,-2.8,-.9c-1.1,0,-2,.3,-2.7,.8c-.7,.6,-1.1,1.3,-1.1,2.1c0,1,.6,1.8,1.6,2.3c.5,.3,1.2,.5,1.9,.6c.7,.2,1.3,.3,1.6,.5c.3,.2,.5,.5,.5,.9c0,.4,-.2,.7,-.5,.9Zm5,-10.3v2.4h-1.6v1.6h1.6v5.5c0,1.8,.9,2.7,2.5,2.7c.5,0,1,0,1.5,-.2V74.1c-.3,.1,-.5,.1,-.8,.1c-.4,0,-.6,0,-.8,-.2c-.1,-.2,-.2,-.4,-.2,-.8V67.8h1.7V66.2H588V63.8h-2.2Zm7.9,2.4h-2.2v9.7h2.2V66.2Zm-2,-1.7c.2,.2,.5,.3,.9,.3c.4,0,.7,-.1,.9,-.3c.2,-.2,.4,-.5,.4,-.8c0,-.4,-.2,-.7,-.4,-.9c-.2,-.2,-.5,-.3,-.9,-.3c-.4,0,-.7,.1,-.9,.3c-.2,.2,-.3,.5,-.3,.9c0,.3,.1,.6,.3,.8Zm4.3,1.7v9.7h2.2V69c.4,-.8,1.1,-1.2,2,-1.2c.6,0,1,.1,1.3,.4c.2,.3,.4,.8,.4,1.4v6.3H604V69.5C604,67.1,603,66,601,66c-1.2,0,-2.1,.4,-2.8,1.3l-.1,-1.1H596Zm11,8.5c.7,.9,1.6,1.3,2.7,1.3c1.1,0,1.9,-.3,2.6,-1v.6c0,.8,-.3,1.4,-.7,1.8c-.4,.4,-1,.6,-1.7,.6c-1,0,-1.8,-.4,-2.5,-1.2l-1,1.3c.4,.4,.9,.8,1.6,1.1c.6,.3,1.3,.5,2,.5c1.4,0,2.4,-.4,3.2,-1.1c.8,-.8,1.2,-1.8,1.2,-3V66.2h-1.9l-.1,.9c-.7,-.7,-1.5,-1.1,-2.6,-1.1c-1.2,0,-2.2,.4,-2.9,1.3c-.7,.9,-1,2.1,-1,3.6c0,1.6,.3,2.9,1.1,3.8Zm1.6,-6.1c.4,-.5,1,-.8,1.7,-.8c.9,0,1.5,.3,2,1.1v4.2c-.5,.8,-1.1,1.2,-2,1.2c-.7,0,-1.3,-.3,-1.7,-.9c-.4,-.5,-.6,-1.3,-.6,-2.3c0,-1.1,.2,-1.9,.6,-2.5Z" class="g3_112"/>
</svg>