<?xml version="1.0" encoding="UTF-8" standalone="no"?>
<!DOCTYPE svg PUBLIC "-//W3C//DTD SVG 1.1//EN"
"http://www.w3.org/Graphics/SVG/1.1/DTD/svg11.dtd">
<svg viewBox="0 0 714 1017" version="1.1" xmlns="http://www.w3.org/2000/svg" xmlns:xlink="http://www.w3.org/1999/xlink">
<defs>
<style type="text/css"><![CDATA[
.g0_52{
fill: #231F20;
}
.g1_52{
fill: #F1EFEE;
}
.g2_52{
fill: #D0D1D0;
}
.g3_52{
fill: #D1D3D4;
}
.g4_52{
fill: none;
stroke: #D0D1D0;
stroke-width: 6.111;
stroke-linecap: butt;
stroke-linejoin: round;
stroke-miterlimit: 4;
}
]]></style>
</defs>
<image preserveAspectRatio="none" x="640" y="30" width="49" height="82" xlink:href="img/1.png"/>
<image preserveAspectRatio="none" x="514" y="861" width="202" height="159" xlink:href="img/2.png"/>
<path d="M300,574c0,0,-13.8,0,-13.8,13.8v3.5c0,0,0,13.7,13.8,13.7H601.6c0,0,13.8,0,13.8,-13.7v-3.5c0,0,0,-13.8,-13.8,-13.8Z" class="g0_52"/>
<path d="M100,129.9H615.4V242.1H100V129.9Z" class="g1_52"/>
<image preserveAspectRatio="none" x="622" y="130" width="52" height="52" xlink:href="img/3.png"/>
<path d="M463.7,74.5c-3.3,0,-5.9,-2.5,-5.9,-5.6c0,-3.2,2.6,-5.7,5.9,-5.7c3.3,0,6,2.5,6,5.7c0,3.1,-2.7,5.6,-6,5.6Z" class="g2_52"/>
<path d="M464.7,69.8H4.7V67.9h460v1.9Z" class="g2_52"/>
<path d="M654.9,48.9c0,0,-18.5,0,-18.5,15.4v7.2c0,0,0,15.4,18.5,15.4h60.2c0,0,18.5,0,18.5,-15.4V64.3c0,0,0,-15.4,-18.5,-15.4Z" class="g3_52"/>
<path d="M490.6,71.8c.4,-.1,.8,-.3,1.1,-.6c.3,-.2,.5,-.5,.7,-.9c.1,-.4,.2,-.8,.2,-1.3c0,-1.2,-.7,-2.5,-2,-4c-.5,-.6,-.9,-1,-1.2,-1.3c-.4,-.3,-.7,-.5,-.9,-.7l-1.3,1.6c.2,.1,.2,.2,.3,.2c.1,.1,.2,.1,.2,.2c-.1,.1,-.2,.2,-.3,.4c-.1,.1,-.3,.2,-.4,.4c-.9,1.1,-1.4,2.2,-1.4,3.2c0,.5,.1,.9,.3,1.2c.1,.4,.4,.7,.7,1c.3,.3,.6,.4,1.1,.6c.4,.1,.9,.2,1.4,.2c.5,0,1,-.1,1.5,-.2Zm0,-2.4c-.1,.2,-.2,.3,-.4,.3c-.1,.1,-.3,.2,-.5,.2c-.2,0,-.4,0,-.6,0c-.2,0,-.3,0,-.5,0c-.2,-.1,-.4,-.1,-.5,-.2c-.2,-.1,-.4,-.2,-.5,-.3c-.1,-.1,-.1,-.2,-.1,-.4c0,-.2,0,-.5,.1,-.7c.1,-.3,.2,-.6,.4,-.8c.1,-.3,.3,-.5,.5,-.8c.1,-.2,.3,-.4,.5,-.5c.2,.2,.4,.4,.7,.7c.2,.3,.4,.5,.5,.8c.2,.2,.3,.5,.4,.7c.1,.2,.2,.4,.2,.6c0,.2,-.1,.3,-.2,.4Zm3,1.4c.3,.2,.6,.3,.9,.5c.4,.1,.7,.3,1,.4c.4,.1,.7,.2,1.1,.3c.4,0,.7,.1,1.1,.1c.1,0,.2,0,.3,0c.5,0,1,-.1,1.5,-.3c.5,-.2,.9,-.4,1.3,-.8c.3,-.4,.5,-.7,.6,-1.1c.1,-.4,.2,-.7,.2,-.9c0,-.3,0,-.6,-.1,-.9c-.1,-.5,-.3,-1.1,-.6,-1.6c-.3,-.5,-.7,-1,-1.1,-1.5c-.4,-.4,-.8,-.9,-1.3,-1.3c-.5,-.4,-1,-.8,-1.5,-1.1l-1.1,1.7c.2,.2,.5,.4,.8,.6c.3,.2,.6,.5,.9,.8c.3,.2,.5,.5,.8,.8c.3,.3,.5,.6,.7,.9c.2,.3,.4,.6,.5,.9c.1,.2,.2,.5,.2,.7c0,.2,0,.3,-.1,.4c-.1,.1,-.2,.2,-.3,.3c-.1,0,-.3,.1,-.4,.1c-.2,.1,-.3,.1,-.5,.1c-.1,0,-.2,.1,-.4,.1c-.1,0,-.2,0,-.3,0c-.2,0,-.5,-.1,-.8,-.1c-.3,-.1,-.6,-.2,-.9,-.3c-.3,-.1,-.6,-.2,-.9,-.4c-.3,-.1,-.5,-.2,-.7,-.3l-.9,1.9ZM503.2,60c.1,.9,.1,1.8,.2,2.7c.1,1,.1,2,.1,3.1c.1,.5,.1,1,.1,1.5c0,1.4,-.1,2.9,-.2,4.7l2.1,-.3c0,-.5,0,-.9,.1,-1.4c0,-.5,0,-1,0,-1.5c0,-.6,0,-1.2,0,-1.8c0,-.6,0,-1.3,0,-2.1c0,-.9,0,-1.8,-.1,-2.7c0,-.9,-.1,-1.9,-.3,-2.9l-2,.7Zm3.7,10.8c.3,.2,.6,.3,.9,.5c.3,.1,.7,.3,1,.4c.3,.1,.7,.2,1.1,.3c.3,0,.7,.1,1,.1c.1,0,.2,0,.3,0c.6,0,1.1,-.1,1.5,-.3c.6,-.2,1,-.4,1.3,-.8c.4,-.4,.6,-.7,.7,-1.1c.1,-.4,.1,-.7,.1,-.9c0,-.3,0,-.6,-.1,-.9c-.1,-.5,-.3,-1.1,-.6,-1.6c-.3,-.5,-.6,-1,-1,-1.5c-.4,-.4,-.9,-.9,-1.3,-1.3c-.5,-.4,-1,-.8,-1.5,-1.1l-1.2,1.7c.3,.2,.5,.4,.8,.6c.3,.2,.6,.5,.9,.8c.3,.2,.6,.5,.9,.8c.2,.3,.5,.6,.7,.9c.2,.3,.4,.6,.5,.9c.1,.2,.2,.5,.2,.7c-.1,.2,-.1,.3,-.2,.4c0,.1,-.1,.2,-.3,.3c-.1,0,-.2,.1,-.4,.1c-.1,.1,-.3,.1,-.4,.1c-.2,0,-.3,.1,-.4,.1c-.2,0,-.3,0,-.4,0c-.2,0,-.4,-.1,-.7,-.1c-.3,-.1,-.6,-.2,-.9,-.3c-.3,-.1,-.6,-.2,-.9,-.4c-.3,-.1,-.6,-.2,-.8,-.3l-.8,1.9Zm21.8,6.7c.4,0,.8,-.1,1.2,-.2c.5,-.2,.9,-.3,1.3,-.6c.5,-.2,1,-.6,1.5,-1L531.5,74c-.6,.5,-1.3,.9,-1.9,1.1c-.7,.3,-1.4,.4,-2.1,.4c-.5,0,-1,-.1,-1.5,-.2c-.5,-.2,-.9,-.4,-1.3,-.6c-.3,-.3,-.6,-.6,-.9,-1c-.2,-.4,-.3,-.9,-.3,-1.4c0,-.3,0,-.6,.1,-.9c.1,-.3,.2,-.6,.4,-.8c.1,-.2,.3,-.5,.5,-.7c.2,-.1,.3,-.3,.5,-.5c.2,-.1,.4,-.2,.6,-.4c.2,-.1,.3,-.1,.4,-.2c.2,-.1,.5,-.2,.8,-.3c.3,-.1,.6,-.2,.9,-.3c.4,-.1,.7,-.1,1.1,-.2c.4,-.1,.7,-.2,1.1,-.3c.4,0,.7,-.1,1.1,-.2c.3,0,.6,-.1,.9,-.1l-.5,-2c-.4,0,-.9,.1,-1.3,.2c-.5,.1,-1,.1,-1.5,.1c-.2,0,-.5,0,-.7,0c-.3,0,-.5,-.1,-.7,-.2c-.3,-.1,-.5,-.3,-.6,-.4c-.1,-.2,-.2,-.5,-.2,-.7v-.1c0,-.3,0,-.5,.1,-.7c.1,-.2,.3,-.4,.4,-.5c.2,-.2,.4,-.3,.6,-.3c.2,-.1,.4,-.1,.6,-.1h.1c.2,0,.5,.1,.7,.1c.3,.1,.5,.2,.7,.3c.2,.2,.5,.3,.7,.5L531.5,62c-.3,-.2,-.6,-.4,-.8,-.6c-.3,-.1,-.6,-.3,-.9,-.4c-.3,-.1,-.5,-.2,-.8,-.3c-.3,0,-.5,-.1,-.8,-.1c0,0,-.1,0,-.2,.1c-.3,0,-.6,0,-.9,.1c-.3,.1,-.6,.2,-.9,.4c-.2,.2,-.5,.4,-.7,.6c-.3,.2,-.5,.4,-.6,.7c-.2,.3,-.3,.5,-.4,.8c-.1,.3,-.2,.6,-.2,.9c0,.4,.1,.6,.1,.9c.1,.2,.2,.5,.3,.7c.1,.2,.2,.4,.3,.6c.2,.1,.3,.3,.4,.4c-.5,.2,-1.1,.6,-1.5,.9c-.5,.4,-.9,.8,-1.3,1.2c-.3,.5,-.6,1,-.8,1.6c-.2,.5,-.3,1.1,-.3,1.8c0,.6,.1,1.2,.3,1.6c.1,.5,.3,1,.6,1.4c.3,.4,.6,.7,1,1c.4,.3,.8,.5,1.3,.7c.4,.2,.9,.4,1.4,.5c.4,.1,.9,.1,1.4,.1c.4,0,.8,0,1.2,-.1ZM534.2,60c.1,.9,.2,1.8,.2,2.7c.1,1,.1,2,.2,3.1c0,.5,0,1,0,1.5c0,1.4,-.1,2.9,-.2,4.7l2.1,-.3c0,-.5,0,-.9,.1,-1.4c0,-.5,0,-1,0,-1.5c0,-.6,0,-1.2,0,-1.8c0,-.6,0,-1.3,0,-2.1c0,-.9,0,-1.8,-.1,-2.7c0,-.9,-.1,-1.9,-.3,-2.9l-2,.7Zm4.2,17.6c.8,-.2,1.6,-.4,2.3,-.7c.7,-.3,1.4,-.7,2,-1.1c.6,-.5,1.1,-1.1,1.6,-1.7c.4,-.6,.7,-1.3,.9,-2.1h.7V69.9h-.6c0,-.4,0,-.7,-.1,-1.1c-.1,-.4,-.2,-.8,-.3,-1.1c-.2,-.4,-.3,-.7,-.5,-1c-.2,-.3,-.4,-.6,-.6,-.8c-.7,-.8,-1.4,-1.1,-2.3,-1.1c-.3,0,-.6,0,-.9,.1c-.2,.2,-.5,.3,-.7,.5c-.3,.2,-.5,.5,-.6,.8c-.2,.2,-.4,.5,-.5,.8c-.1,.3,-.2,.7,-.2,1c-.1,.3,-.1,.6,-.1,.9c0,.4,0,.8,.1,1.2c.2,.3,.3,.6,.6,.8c.2,.2,.4,.4,.7,.6c.3,.1,.7,.2,1,.3c.4,.1,.8,.1,1.2,.1c.4,.1,.8,.1,1.3,.1c-.1,.3,-.3,.7,-.6,1.1c-.3,.3,-.7,.7,-1.1,1c-.5,.3,-1,.6,-1.7,.9c-.6,.2,-1.3,.4,-2.1,.6l.5,2ZM542,67c.1,.1,.3,.2,.4,.4c.1,.1,.3,.3,.4,.5c.1,.3,.2,.5,.3,.7c.1,.2,.2,.5,.3,.7c0,.2,.1,.5,.1,.6h-.4c-.1,0,-.3,0,-.4,0c-.2,0,-.3,0,-.4,0c-.2,0,-.3,0,-.4,0c-.2,0,-.4,0,-.6,-.1c-.2,0,-.4,-.1,-.6,-.2c-.1,-.1,-.3,-.2,-.4,-.3c-.1,-.2,-.1,-.4,-.1,-.6c0,-.2,0,-.4,.1,-.7c.1,-.2,.2,-.4,.3,-.6c.2,-.2,.3,-.3,.5,-.4c.1,-.1,.3,-.2,.4,-.2c.2,0,.3,.1,.5,.2Zm3.6,5h1.2c.6,0,1.2,-.1,1.7,-.2c.5,-.1,.9,-.3,1.3,-.6c.3,-.3,.6,-.6,.8,-1.1c.2,-.4,.3,-.9,.3,-1.5c0,-.3,0,-.7,-.1,-1.1c0,-.3,-.1,-.7,-.2,-1c-.1,-.4,-.3,-.7,-.4,-1.1c-.1,-.3,-.3,-.6,-.4,-1l-1.8,1c.1,.2,.3,.5,.4,.9c.1,.3,.2,.6,.3,.9c.1,.3,.2,.6,.3,.8c0,.3,0,.5,0,.6c0,.3,0,.5,-.2,.7c-.1,.2,-.3,.3,-.5,.4c-.2,.1,-.4,.2,-.7,.2c-.3,0,-.5,0,-.8,0h-1.2V72Zm2.5,-11.8l-1.5,1.5l1.5,1.6l1.5,-1.6l-1.5,-1.5Zm4.5,-.2c0,.9,.1,1.8,.2,2.7c0,1,.1,2,.1,3.1c0,.5,0,1,0,1.5c0,1.4,0,2.9,-.1,4.7l2.1,-.3c0,-.5,0,-.9,0,-1.4c0,-.5,.1,-1,.1,-1.5c0,-.6,0,-1.2,0,-1.8c0,-.6,0,-1.3,0,-2.1c0,-.9,-.1,-1.8,-.1,-2.7c-.1,-.9,-.2,-1.9,-.3,-2.9l-2,.7Zm13.3,7c.1,.1,.3,.2,.4,.4c.1,.1,.3,.3,.4,.5c.1,.2,.2,.5,.3,.7c.1,.2,.2,.5,.3,.7c0,.2,.1,.5,.1,.6c-.1,0,-.3,0,-.4,0c-.2,0,-.3,0,-.4,0c-.2,0,-.3,0,-.4,0c-.2,0,-.3,0,-.4,0c-.2,0,-.4,0,-.6,-.1c-.2,0,-.4,-.1,-.6,-.2c-.1,-.1,-.3,-.2,-.4,-.4c-.1,-.1,-.1,-.3,-.1,-.5c0,-.2,0,-.4,.1,-.7c.1,-.2,.2,-.4,.3,-.6c.2,-.2,.3,-.3,.5,-.4c.1,-.1,.3,-.2,.4,-.2c.2,0,.3,.1,.5,.2Zm-3.6,10.6c.6,-.1,1.2,-.3,1.8,-.5c.6,-.2,1.1,-.4,1.6,-.8c.5,-.3,1,-.6,1.5,-1c.4,-.4,.8,-.9,1.1,-1.4c.3,-.5,.5,-1,.7,-1.6c.2,-.6,.2,-1.2,.2,-1.9c0,-.4,0,-.9,-.1,-1.3c0,-.4,-.1,-.8,-.3,-1.2c-.1,-.4,-.3,-.8,-.5,-1.1c-.2,-.4,-.4,-.7,-.6,-.9c-.7,-.8,-1.5,-1.1,-2.3,-1.1c-.3,0,-.6,0,-.9,.1c-.2,.2,-.5,.3,-.7,.5c-.3,.3,-.5,.5,-.6,.8c-.2,.2,-.4,.5,-.5,.8c-.1,.3,-.2,.7,-.3,1c0,.3,0,.6,0,.9c0,.4,0,.8,.1,1.2c.2,.3,.3,.6,.6,.8c.2,.2,.4,.4,.7,.6c.3,.1,.7,.2,1,.3c.4,.1,.8,.1,1.2,.1c.4,.1,.8,.1,1.3,.1c-.1,.3,-.3,.7,-.6,1.1c-.3,.3,-.7,.7,-1.1,1c-.5,.3,-1,.6,-1.7,.9c-.6,.2,-1.3,.4,-2.1,.6l.5,2Zm19.8,-7.7h-.2c-.3,0,-.5,0,-.7,-.1c-.2,-.1,-.3,-.2,-.5,-.5c-.2,-.2,-.3,-.5,-.5,-1c-.2,-.4,-.4,-.9,-.6,-1.5l-1.9,.8c.1,.3,.2,.6,.3,.9c.2,.4,.3,.7,.4,1c.1,.3,.2,.6,.2,.9c.1,.3,.2,.6,.2,.8c0,.3,-.1,.7,-.2,1c-.2,.3,-.3,.6,-.5,.9c-.3,.3,-.5,.6,-.8,.9c-.3,.2,-.6,.5,-1,.8c-.3,.2,-.7,.5,-1,.7c-.4,.2,-.8,.4,-1.2,.6l.9,1.8c.7,-.3,1.4,-.7,2,-1.1c.6,-.5,1.2,-1,1.7,-1.5c.6,-.5,1,-1.1,1.3,-1.7c.4,-.6,.6,-1.3,.6,-1.9c.3,.1,.5,.2,.7,.2c.2,.1,.4,.1,.5,.1h.3V69.9Zm-.3,2.1h1.7c.6,0,1.1,-.1,1.7,-.2c.5,-.1,.9,-.3,1.3,-.6c.4,-.2,.7,-.6,1,-1c.2,-.5,.3,-1,.3,-1.6c0,-.3,0,-.7,-.1,-1.1c0,-.3,-.1,-.7,-.2,-1c-.1,-.4,-.2,-.7,-.4,-1.1c-.1,-.3,-.2,-.6,-.4,-1l-1.8,1c.1,.2,.3,.5,.4,.9c.1,.3,.2,.6,.3,.9c.1,.3,.2,.6,.3,.8c0,.3,0,.5,0,.6c0,.3,0,.5,-.2,.7c-.2,.2,-.4,.3,-.6,.4c-.3,.1,-.5,.2,-.8,.2c-.3,0,-.6,0,-.8,0h-1.7V72Zm1.6,1L582,74.3l1.4,1.4l1.3,-1.4L583.4,73Zm3,0L585,74.3l1.4,1.4l1.4,-1.3L586.4,73Zm2.7,-2.2c.3,.2,.6,.3,.9,.5c.4,.1,.7,.3,1,.4c.4,.1,.7,.2,1.1,.3c.4,0,.7,.1,1.1,.1c.1,0,.2,0,.2,0c.6,0,1.1,-.1,1.6,-.3c.5,-.2,.9,-.4,1.3,-.8c.3,-.4,.5,-.7,.6,-1.1c.1,-.4,.2,-.7,.2,-.9c0,-.3,-.1,-.6,-.1,-.9c-.1,-.5,-.4,-1.1,-.7,-1.6c-.2,-.5,-.6,-1,-1,-1.5c-.4,-.4,-.8,-.9,-1.3,-1.3c-.5,-.4,-1,-.8,-1.5,-1.1l-1.1,1.7c.2,.2,.5,.4,.8,.6c.3,.2,.6,.5,.9,.8c.2,.2,.5,.5,.8,.8c.3,.3,.5,.6,.7,.9c.2,.3,.4,.6,.5,.9c.1,.2,.2,.5,.2,.7c0,.2,-.1,.3,-.1,.4c-.1,.1,-.2,.2,-.3,.3c-.1,0,-.3,.1,-.4,.1c-.2,.1,-.3,.1,-.5,.1c-.1,0,-.3,.1,-.4,.1c-.1,0,-.2,0,-.3,0c-.2,0,-.5,-.1,-.8,-.1c-.3,-.1,-.6,-.2,-.9,-.3c-.3,-.1,-.6,-.2,-.9,-.4c-.3,-.1,-.5,-.2,-.7,-.3l-.9,1.9Zm13.6,-.9h-.3c-.2,0,-.4,0,-.6,0c-.1,-.1,-.3,-.1,-.4,-.2c-.1,-.1,-.1,-.2,-.2,-.4c0,-.1,0,-.3,0,-.5v-.1c0,-.2,0,-.4,0,-.5c0,-.2,0,-.3,0,-.5c0,-.2,0,-.3,0,-.5c0,-.2,0,-.4,0,-.6c0,-.2,0,-.5,0,-.8c0,-.3,0,-.6,0,-.9c0,-.5,0,-1,0,-1.5c-.1,-.5,-.1,-1,-.1,-1.5c-.1,-.5,-.1,-1,-.2,-1.5c0,-.4,-.1,-.8,-.1,-1.1l-2,.6c0,.3,.1,.5,.1,.9c0,.3,.1,.6,.1,1c0,.4,.1,.8,.1,1.2c0,.4,0,.8,0,1.2c0,.4,0,.8,0,1.2c0,.4,0,.7,0,1c0,.6,0,1.1,0,1.5c0,.4,0,.6,0,.8c0,1.1,.3,1.9,.9,2.5c.5,.5,1.3,.8,2.4,.8h.3V69.9Zm-.3,2.1h.2c.4,0,.8,0,1.2,-.1c.4,0,.8,0,1.1,-.1c.4,0,.7,-.1,1,-.2c.3,-.1,.5,-.2,.7,-.3c.2,.2,.5,.3,.8,.4c.3,.1,.6,.1,.9,.2c.3,0,.7,.1,1.1,.1c.4,0,.7,0,1.2,0h.1V69.9h-.2c-.3,0,-.6,0,-.9,0c-.3,0,-.5,-.1,-.8,-.1c.2,-.3,.4,-.7,.6,-1.1c.1,-.4,.2,-.8,.2,-1.2c0,-.4,-.1,-.8,-.2,-1.2c-.2,-.5,-.4,-.8,-.6,-1.1c-.3,-.4,-.6,-.6,-1,-.8c-.4,-.2,-.8,-.4,-1.2,-.4h-.1c-.3,0,-.5,.1,-.8,.2c-.3,.1,-.5,.2,-.8,.4c-.2,.2,-.4,.4,-.6,.6c-.2,.3,-.4,.6,-.5,.8c-.2,.3,-.3,.6,-.3,.9c-.1,.2,-.1,.5,-.1,.7q0,.1,0,.2c0,.3,0,.5,.1,.7c.1,.3,.2,.5,.3,.6c.1,.2,.2,.4,.3,.5c.2,.1,.3,.2,.4,.3c-.3,0,-.6,0,-.9,0h-1.2V72ZM607,66.2c.1,.1,.3,.3,.4,.4c.2,.2,.3,.3,.4,.5c0,.2,.1,.4,.1,.6c0,.2,-.1,.3,-.1,.5c-.1,.1,-.2,.3,-.3,.4c-.1,.2,-.3,.3,-.4,.5c-.2,.1,-.3,.2,-.5,.3c-.2,-.1,-.4,-.2,-.6,-.3c-.2,-.1,-.3,-.3,-.5,-.4c-.1,-.2,-.2,-.3,-.3,-.5c-.1,-.1,-.2,-.3,-.2,-.3c0,-.3,.1,-.6,.2,-.8c.1,-.2,.2,-.4,.4,-.5c.1,-.2,.3,-.3,.5,-.4c.2,-.1,.3,-.1,.5,-.2c.1,.1,.2,.1,.4,.2Zm-2,-6.1l-1.4,1.4l1.4,1.3l1.4,-1.3L605,60.1Zm3,0l-1.3,1.4l1.3,1.4l1.4,-1.4L608,60.1Zm2.4,9.8V72h.2c.6,0,1.1,-.1,1.6,-.3c.5,-.3,.9,-.6,1.4,-1c.1,.1,.2,.2,.4,.3c.1,0,.2,.1,.4,.2c.1,.1,.3,.2,.4,.2c.1,.1,.3,.2,.4,.2c.2,.1,.5,.2,.7,.2c.3,.1,.5,.1,.7,.1c.3,0,.6,0,.8,-.1c.2,-.1,.5,-.2,.7,-.4c.2,-.1,.4,-.3,.5,-.5c.2,-.2,.3,-.4,.4,-.7c.1,-.2,.2,-.5,.2,-.7c.1,-.3,.1,-.5,.1,-.8c0,-.3,0,-.6,-.1,-.9c-.1,-.3,-.1,-.6,-.3,-.9c-.1,-.2,-.2,-.5,-.4,-.7c-.1,-.3,-.3,-.5,-.6,-.7c-.2,-.2,-.5,-.3,-.7,-.4c-.3,-.1,-.6,-.2,-1,-.2c-.3,0,-.7,.1,-1,.3c-.3,.1,-.5,.3,-.7,.6c-.3,.2,-.5,.5,-.6,.8c-.2,.3,-.4,.6,-.5,.9c-.2,.3,-.3,.6,-.5,.9c-.2,.3,-.4,.5,-.6,.8c-.2,.2,-.4,.4,-.7,.5c-.3,.2,-.7,.2,-1,.2h-.2ZM615.3,68c.1,-.2,.2,-.5,.3,-.6c.1,-.2,.2,-.3,.3,-.3c.1,-.1,.1,-.2,.2,-.2c.1,0,.2,0,.2,0c.2,0,.3,0,.5,.1c.2,.1,.3,.2,.5,.4c.1,.2,.2,.4,.3,.7c.1,.2,.1,.5,.1,.7v.1c0,.1,0,.2,0,.3c0,.2,-.1,.3,-.1,.4q-.1,.1,-.2,.2c0,0,-.1,.1,-.2,.1c0,0,-.1,0,-.2,0c-.1,0,-.2,0,-.3,0c-.3,-.1,-.5,-.2,-.7,-.2c-.3,-.1,-.5,-.2,-.7,-.4c-.2,-.1,-.4,-.2,-.5,-.3c.2,-.4,.3,-.7,.5,-1Z" class="g4_52"/>
</svg>