<?xml version="1.0" encoding="UTF-8" standalone="no"?>
<!DOCTYPE svg PUBLIC "-//W3C//DTD SVG 1.1//EN"
"http://www.w3.org/Graphics/SVG/1.1/DTD/svg11.dtd">
<svg viewBox="0 0 714 1017" version="1.1" xmlns="http://www.w3.org/2000/svg" xmlns:xlink="http://www.w3.org/1999/xlink">
<defs>
<style type="text/css"><![CDATA[
.g0_184{
fill: #F1EFEE;
}
.g1_184{
fill: #D0D1D0;
}
.g2_184{
fill: #D1D3D4;
}
.g3_184{
fill: none;
stroke: #D0D1D0;
stroke-width: 6.111;
stroke-linecap: butt;
stroke-linejoin: round;
stroke-miterlimit: 4;
}
]]></style>
</defs>
<image preserveAspectRatio="none" x="640" y="30" width="49" height="82" xlink:href="img/1.png"/>
<image preserveAspectRatio="none" x="514" y="861" width="202" height="159" xlink:href="img/2.png"/>
<path d="M99.6,129.9H615V456H99.6V129.9Z" class="g0_184"/>
<path d="M99.6,807.2H615v26.7H99.6V807.2Z" class="g0_184"/>
<image preserveAspectRatio="none" x="624" y="130" width="52" height="52" xlink:href="img/3.png"/>
<path d="M413,74.5c-3.3,0,-6,-2.5,-6,-5.6c0,-3.2,2.7,-5.7,6,-5.7c3.3,0,5.9,2.5,5.9,5.7c0,3.1,-2.6,5.6,-5.9,5.6Z" class="g1_184"/>
<path d="M415.5,69.8H4.7V67.9H415.5v1.9Z" class="g1_184"/>
<path d="M654.9,48.9c0,0,-18.5,0,-18.5,15.4v7.2c0,0,0,15.4,18.5,15.4h60.2c0,0,18.5,0,18.5,-15.4V64.3c0,0,0,-15.4,-18.5,-15.4Z" class="g2_184"/>
<path d="M449.8,73V70.9h-.3c-.3,0,-.7,0,-.9,-.1c-.3,-.1,-.5,-.3,-.7,-.5c-.1,-.1,-.3,-.3,-.3,-.6c-.1,-.2,-.2,-.4,-.2,-.6v-.2c0,-.3,.1,-.5,.1,-.8c.1,-.3,.2,-.6,.3,-.8l-1.9,-.5c0,.2,-.1,.5,-.2,.8c0,.2,-.1,.5,-.2,.8c-.1,.2,-.2,.5,-.4,.7c-.1,.3,-.3,.5,-.5,.6c-.3,.3,-.6,.4,-1,.6c-.3,.1,-.7,.3,-1.1,.3c-.5,.1,-1,.2,-1.5,.2c-.5,.1,-1,.1,-1.6,.1c-.6,0,-1.2,0,-1.7,-.1c-.6,0,-1.1,-.1,-1.5,-.2c-.4,-.1,-.8,-.3,-1.1,-.4c-.3,-.2,-.5,-.4,-.7,-.7c-.1,-.2,-.2,-.5,-.3,-.7c0,-.2,0,-.4,0,-.5c0,-.1,0,-.2,0,-.3c0,-.3,.1,-.5,.2,-.8c.1,-.2,.2,-.5,.3,-.7l-1.5,-1c-.2,.4,-.4,.8,-.5,1.2c-.2,.4,-.2,.7,-.2,1c-.1,.3,-.1,.5,-.1,.6c0,.3,.1,.6,.1,1c.1,.4,.3,.8,.5,1.2c.5,.8,1.3,1.5,2.4,1.9c1.1,.4,2.4,.6,4.1,.6c2.9,0,5.1,-.7,6.6,-2c.1,.3,.3,.6,.6,.9c.2,.2,.5,.4,.8,.6c.3,.1,.6,.3,.9,.3c.4,.1,.8,.2,1.2,.2h.3ZM438.6,63.5l-1.4,1.3l1.4,1.4l1.3,-1.3l-1.3,-1.4Zm3,0l-1.4,1.4l1.4,1.3l1.3,-1.3l-1.3,-1.4Zm14.9,7.4c-.3,0,-.4,0,-.6,-.2c-.2,-.1,-.3,-.2,-.4,-.4c-.1,-.1,-.2,-.3,-.3,-.5c-.1,-.2,-.1,-.4,-.1,-.5c0,-.3,-.1,-.6,-.1,-.8c0,-.2,0,-.4,0,-.5c-.1,-.2,-.1,-.4,-.1,-.6c-.1,-.2,-.1,-.4,-.2,-.6l-2,.6c.2,.4,.3,.8,.4,1.1c0,.3,.1,.6,.1,.7c0,.3,-.1,.6,-.2,.8c-.1,.2,-.3,.4,-.6,.5c-.2,.1,-.6,.2,-1,.3c-.4,.1,-1,.1,-1.6,.1h-.3V73h.3c.4,0,.8,-.1,1.2,-.1c.5,0,.9,0,1.3,-.1c.5,0,.8,-.1,1.2,-.2c.3,-.1,.6,-.3,.8,-.5c.2,.2,.5,.4,.9,.6c.3,.2,.8,.3,1.3,.3h.1V70.9h-.1ZM454.2,77l1.4,-1.3l-1.4,-1.4l-1.3,1.4l1.3,1.3Zm-3,0l1.4,-1.3l-1.4,-1.4l-1.3,1.4l1.3,1.3Zm1.5,-.3L451.5,78l1.2,1.2L454,78l-1.3,-1.3ZM456.3,73H458c.6,0,1.2,-.1,1.7,-.2c.5,-.2,1,-.3,1.4,-.6c.4,-.3,.7,-.6,.9,-1.1c.2,-.4,.4,-.9,.4,-1.5c0,-.4,-.1,-.7,-.1,-1.1c-.1,-.4,-.2,-.7,-.3,-1.1c-.1,-.3,-.2,-.7,-.4,-1c-.1,-.4,-.2,-.7,-.3,-1l-1.9,.9c.2,.3,.3,.6,.4,.9c.1,.4,.3,.7,.4,1c.1,.3,.1,.6,.2,.8c0,.3,.1,.4,.1,.6c0,.3,-.1,.5,-.3,.7c-.1,.2,-.3,.3,-.6,.4c-.2,.1,-.5,.1,-.8,.2c-.3,0,-.5,0,-.8,0h-1.7V73Zm1.6,.9l-1.4,1.4l1.4,1.4l1.4,-1.4l-1.4,-1.4Zm3,.1l-1.3,1.3l1.3,1.4l1.4,-1.4L460.9,74ZM471,70.9h-.2c-.3,0,-.5,0,-.7,-.1c-.1,-.1,-.3,-.3,-.5,-.5c-.2,-.3,-.3,-.6,-.5,-1c-.2,-.4,-.4,-.9,-.6,-1.5l-1.9,.8c.1,.3,.2,.6,.3,.9c.2,.3,.3,.6,.4,1c.1,.3,.2,.6,.3,.9c0,.3,.1,.5,.1,.8c0,.3,-.1,.6,-.2,.9c-.2,.4,-.3,.7,-.5,1c-.3,.3,-.5,.6,-.8,.8c-.3,.3,-.6,.6,-1,.8c-.3,.3,-.7,.5,-1,.8c-.4,.2,-.8,.4,-1.1,.6l.8,1.8c.7,-.3,1.4,-.7,2,-1.2c.7,-.4,1.2,-.9,1.7,-1.4c.6,-.6,1,-1.1,1.3,-1.8c.4,-.6,.6,-1.2,.6,-1.9c.3,.2,.5,.3,.7,.3c.2,0,.4,.1,.6,.1h.2V70.9Zm-.3,2.1h2.7c.3,-.1,.6,-.1,.9,-.2c.3,0,.6,-.1,.9,-.2c.2,-.2,.5,-.3,.7,-.5c.2,-.2,.5,-.4,.6,-.7c.3,.3,.5,.5,.8,.7c.3,.2,.5,.4,.8,.5c.3,.1,.6,.2,1,.3c.3,0,.7,.1,1.1,.1h.3V70.9H480c-.3,0,-.5,0,-.8,-.1c-.2,-.1,-.4,-.2,-.6,-.3c-.2,-.2,-.4,-.3,-.5,-.5c-.2,-.2,-.3,-.4,-.5,-.7v.1c-.1,-.3,-.3,-.6,-.4,-.8c-.1,-.2,-.3,-.5,-.4,-.7c-.2,-.4,-.4,-.8,-.6,-1.1c-.2,-.4,-.4,-.7,-.6,-1.1c-.3,-.3,-.6,-.7,-.9,-1c-.3,-.3,-.6,-.7,-1,-1.1l6,-2.4l-.8,-1.9l-6.9,3l-.2,2.2c.2,.2,.5,.5,.7,.7c.3,.3,.6,.5,.8,.8c.3,.3,.5,.6,.7,.9c.2,.3,.4,.7,.6,1c.2,.3,.3,.6,.4,.9c.1,.3,.2,.6,.2,.8c0,.2,-.1,.3,-.2,.5c-.1,.2,-.2,.3,-.4,.4c-.1,.1,-.4,.2,-.6,.3c-.2,.1,-.5,.1,-.8,.1h-2.5V73Zm9.5,-2.1V73h.2c.4,0,.7,-.1,1,-.1c.3,-.1,.5,-.2,.7,-.3c.2,-.1,.4,-.2,.6,-.4c.1,-.1,.2,-.3,.3,-.4c.1,.2,.3,.3,.4,.5c.1,.1,.3,.3,.5,.4c.1,.1,.3,.2,.5,.3c.2,0,.5,0,.7,0h.1c.3,0,.5,0,.8,-.1c.2,0,.4,-.1,.6,-.2c.2,-.1,.4,-.3,.5,-.4c.2,-.2,.3,-.3,.4,-.5c.1,.1,.2,.3,.4,.5c.1,.1,.3,.3,.4,.4c.2,.1,.4,.2,.6,.2c.2,.1,.4,.1,.7,.1h.1c.5,0,1,0,1.4,-.2c.5,-.1,.8,-.3,1.1,-.6c.3,-.3,.5,-.6,.7,-1c.1,-.4,.2,-.9,.2,-1.4c0,-.3,0,-.6,-.1,-.9c0,-.4,-.1,-.7,-.2,-1c0,-.3,-.1,-.6,-.2,-.9c-.1,-.3,-.2,-.5,-.3,-.7c-.1,-.3,-.2,-.5,-.3,-.6c0,-.2,-.1,-.3,-.1,-.3l-1.7,.9c.1,.2,.2,.4,.3,.7c.1,.3,.2,.6,.3,.9c.2,.3,.2,.7,.3,1c.1,.3,.1,.7,.1,.9c0,.4,-.1,.7,-.3,.9c-.3,.2,-.6,.3,-.9,.3c-.2,0,-.4,0,-.6,-.1c-.1,-.1,-.2,-.2,-.3,-.3c-.1,-.1,-.1,-.2,-.2,-.4c0,-.1,0,-.2,0,-.4v-.1c0,-.2,0,-.4,.1,-.7c0,-.2,0,-.4,.1,-.6c0,-.2,0,-.4,.1,-.6c0,-.2,0,-.3,0,-.4L487.4,67c-.1,.2,-.1,.5,-.2,.8c0,.2,-.1,.5,-.2,.8c-.1,.3,-.2,.6,-.3,.9c-.1,.3,-.2,.5,-.4,.7c-.1,.3,-.3,.4,-.5,.6c-.2,.1,-.4,.2,-.6,.2c-.3,0,-.4,-.1,-.5,-.2c-.1,-.1,-.2,-.3,-.2,-.4c0,-.1,0,-.2,0,-.3c0,-.2,0,-.3,.1,-.5c0,-.3,.1,-.6,.1,-.8c.1,-.3,.2,-.5,.3,-.7c0,-.3,.1,-.5,.2,-.6l-2,-.5c-.1,.3,-.2,.5,-.2,.8c-.1,.3,-.2,.6,-.3,.8c-.1,.3,-.2,.6,-.4,.9c-.1,.3,-.2,.5,-.4,.7c-.2,.2,-.4,.4,-.6,.5c-.3,.1,-.5,.2,-.8,.2h-.3Zm14.4,-10c.1,.9,.2,1.8,.2,2.8c.1,1,.1,2,.2,3.1c0,.4,0,.9,0,1.5c0,1.3,-.1,2.9,-.2,4.6l2.1,-.3c0,-.4,.1,-.8,.1,-1.3c0,-.5,0,-1,0,-1.6c0,-.5,0,-1.1,0,-1.7c0,-.7,0,-1.4,0,-2.1c0,-.9,0,-1.8,-.1,-2.7c0,-.9,-.1,-1.9,-.2,-2.9l-2.1,.6Zm13.9,10h-.4c-.2,0,-.4,0,-.5,-.1c-.2,0,-.3,-.1,-.4,-.2c-.1,-.1,-.2,-.2,-.2,-.3c-.1,-.2,-.1,-.4,-.1,-.5v-.2c0,-.1,0,-.3,0,-.5c0,-.1,0,-.3,0,-.4c0,-.2,0,-.4,0,-.6c0,-.1,0,-.3,0,-.5c0,-.3,0,-.5,0,-.9c0,-.3,0,-.6,0,-.9c0,-.4,0,-.9,0,-1.4c0,-.6,0,-1.1,-.1,-1.6c0,-.5,-.1,-1,-.1,-1.4c-.1,-.4,-.1,-.8,-.2,-1.1l-2,.6c.1,.2,.1,.5,.2,.8c0,.4,0,.7,.1,1.1c0,.4,0,.7,0,1.2c0,.4,.1,.8,.1,1.2c0,.4,0,.7,0,1.1c0,.4,0,.8,0,1.1c0,.6,0,1.1,0,1.4c0,.4,0,.7,0,.9c0,1.1,.3,1.9,.8,2.4c.6,.6,1.4,.9,2.5,.9h.3V70.9Zm3.9,-1.7c.1,-.2,.3,-.5,.4,-.7c.1,-.2,.3,-.3,.4,-.5c.2,-.1,.4,-.2,.6,-.2c.2,0,.4,.1,.5,.2c.2,0,.3,.2,.4,.3c.1,.2,.2,.4,.3,.6c.1,.2,.2,.4,.2,.6c.1,.2,.2,.5,.2,.7c.1,.3,.1,.5,.2,.7c-.3,0,-.6,-.1,-.9,-.2c-.3,0,-.7,-.1,-1,-.2c-.3,-.2,-.6,-.3,-.9,-.4c-.2,-.1,-.5,-.2,-.6,-.3c0,-.2,.1,-.4,.2,-.6Zm3.1,3.6c0,-.1,.1,-.1,.2,-.2c.1,-.1,.2,-.2,.3,-.3c0,-.1,.1,-.2,.2,-.2c.2,.2,.4,.5,.6,.6c.2,.2,.5,.2,.8,.3h.3V70.9h-.3c-.1,0,-.2,0,-.2,-.1c-.1,-.1,-.2,-.2,-.2,-.3c-.1,-.2,-.1,-.4,-.2,-.6c0,-.2,-.1,-.4,-.1,-.7c-.1,-.5,-.2,-.9,-.4,-1.3c-.1,-.4,-.3,-.8,-.5,-1.1c-.2,-.3,-.5,-.5,-.9,-.7c-.3,-.1,-.7,-.2,-1.2,-.2c-.4,0,-.7,0,-1,.2c-.3,.2,-.6,.4,-.8,.6c-.3,.2,-.5,.5,-.7,.8c-.2,.3,-.4,.6,-.5,1c-.2,.2,-.3,.5,-.4,.8c-.2,.3,-.3,.6,-.5,.8c-.2,.3,-.4,.4,-.7,.6c-.3,.1,-.6,.2,-1,.2h-.1V73h.1c.3,0,.6,-.1,.9,-.1c.2,-.1,.4,-.2,.7,-.3c.2,-.1,.4,-.2,.6,-.4c.2,-.1,.4,-.3,.6,-.5c.2,.1,.5,.3,.9,.4c.3,.2,.7,.3,1.1,.4c.4,.1,.7,.2,1.1,.3c.4,.1,.7,.1,1,.1c.1,0,.2,0,.3,-.1Zm2.1,.2h2.6c.5,0,1,-.1,1.5,-.3c.5,-.2,.9,-.4,1.2,-.7c.4,-.4,.7,-.7,.9,-1.2c.2,-.4,.3,-.9,.3,-1.5c0,-.3,0,-.6,-.1,-.9c-.1,-.4,-.2,-.7,-.4,-1.1c-.1,-.4,-.3,-.8,-.6,-1.2c-.2,-.4,-.5,-.8,-.9,-1.2c-.3,-.3,-.5,-.5,-.7,-.8c-.3,-.2,-.5,-.4,-.7,-.6l5.2,-2.2L525,59.4l-6.3,2.8l-.2,1.9c.5,.5,1,.9,1.4,1.4c.4,.4,.8,.8,1.1,1.3c.4,.4,.6,.8,.8,1.2c.2,.4,.3,.8,.3,1.2c0,.3,-.1,.5,-.2,.7c-.1,.2,-.2,.4,-.4,.5c-.2,.1,-.4,.2,-.6,.3c-.2,.1,-.5,.1,-.7,.1c-.3,.1,-.6,.1,-.8,.1c-.3,0,-.6,0,-.8,0h-1V73Zm9.3,-12.1c.1,.9,.2,1.8,.2,2.8c.1,1,.1,2,.2,3.1c0,.4,0,.9,0,1.5c0,1.3,0,2.9,-.2,4.6l2.1,-.3c.1,-.4,.1,-.8,.1,-1.3c0,-.5,0,-1,0,-1.6c.1,-.5,.1,-1.1,.1,-1.7c0,-.7,0,-1.4,0,-2.1c-.1,-.9,-.1,-1.8,-.1,-2.7c-.1,-.9,-.2,-1.9,-.3,-2.9l-2.1,.6ZM545,66.5c-.5,.4,-.9,.7,-1.3,1.2c-.3,.5,-.6,1,-.9,1.5c-.2,.6,-.3,1.1,-.3,1.7c0,.5,.1,1,.2,1.3c.2,.4,.4,.7,.7,.9c.3,.2,.6,.4,1,.6c.4,.1,.8,.2,1.2,.3c.2,.1,.3,.1,.5,.2c.2,0,.4,0,.5,.1c.1,0,.3,.1,.4,.1c0,0,.1,.1,.1,.1c0,.3,-.2,.5,-.4,.7c-.3,.3,-.7,.5,-1.1,.6c-.5,.2,-1,.4,-1.6,.5c-.6,.1,-1.3,.1,-2,.1c-.6,0,-1.1,0,-1.7,-.2c-.5,-.1,-.9,-.3,-1.3,-.6c-.3,-.3,-.6,-.6,-.7,-1c-.2,-.4,-.2,-.8,-.2,-1.1c0,-.2,0,-.4,0,-.6c0,-.3,.1,-.7,.2,-1c0,-.4,.1,-.7,.2,-1c.1,-.4,.2,-.7,.3,-1.1c.1,-.3,.2,-.7,.3,-1.1L537.4,68c0,0,-.1,.1,-.1,.3c-.1,.1,-.1,.3,-.2,.5c-.1,.2,-.2,.5,-.3,.8c0,.3,-.1,.6,-.2,1c-.1,.3,-.2,.7,-.3,1c0,.4,-.1,.7,-.1,1.1c-.1,.3,-.1,.6,-.1,.9c0,.6,.1,1.2,.2,1.6c.3,.8,.7,1.4,1.2,1.9c.5,.5,1.2,.8,2,1.1c.7,.2,1.6,.4,2.5,.4c.5,0,1,-.1,1.5,-.1c.5,-.1,1,-.2,1.5,-.3c.5,-.1,1,-.3,1.4,-.5c.5,-.2,.9,-.5,1.2,-.8c.4,-.3,.7,-.7,.9,-1.1c.2,-.4,.4,-.9,.4,-1.5c0,0,0,-.1,0,-.1c0,-.4,-.1,-.7,-.2,-.9c-.1,-.3,-.4,-.5,-.6,-.7c-.3,-.1,-.6,-.3,-.9,-.4c-.3,-.1,-.6,-.1,-1,-.2c-.2,-.1,-.5,-.1,-.7,-.2c-.2,0,-.5,-.1,-.6,-.2c-.2,-.1,-.4,-.2,-.5,-.3c-.1,-.1,-.1,-.3,-.1,-.6c0,-.2,0,-.4,.1,-.6c.1,-.2,.2,-.4,.3,-.6c.2,-.2,.3,-.4,.5,-.6c.2,-.2,.4,-.3,.6,-.5c.2,-.1,.4,-.2,.6,-.3c.2,-.1,.4,-.2,.6,-.2c.2,0,.4,0,.6,0c.1,0,.2,0,.3,0c.3,0,.6,.1,.9,.2l.7,-1.9c-.2,-.1,-.4,-.2,-.7,-.3c-.2,0,-.4,-.1,-.6,-.1c-.2,0,-.4,-.1,-.6,-.1c-.1,0,-.2,0,-.2,.1c-.3,0,-.5,0,-.8,.1c-.5,.1,-1.1,.3,-1.6,.6Zm9.9,4.4h-.3c-.2,0,-.4,0,-.6,-.1c-.1,0,-.2,-.1,-.3,-.2c-.1,-.1,-.2,-.2,-.3,-.3c0,-.2,0,-.4,0,-.5v-.2c0,-.1,0,-.3,0,-.5c0,-.1,0,-.3,0,-.4c0,-.2,0,-.4,0,-.6c0,-.1,0,-.3,0,-.5c0,-.3,0,-.5,0,-.9c0,-.3,0,-.6,0,-.9c0,-.4,0,-.9,0,-1.4c-.1,-.6,-.1,-1.1,-.1,-1.6c-.1,-.5,-.1,-1,-.1,-1.4c-.1,-.4,-.1,-.8,-.2,-1.1l-2,.6c0,.2,.1,.5,.1,.8c.1,.4,.1,.7,.1,1.1c0,.4,.1,.7,.1,1.2c0,.4,0,.8,0,1.2c0,.4,0,.7,.1,1.1c0,.4,0,.8,0,1.1c0,.6,0,1.1,-.1,1.4c0,.4,0,.7,0,.9c0,1.1,.3,1.9,.9,2.4c.5,.6,1.3,.9,2.4,.9h.3V70.9Zm-.3,2.1h.2c.8,0,1.5,-.1,2.2,-.2c.7,-.1,1.3,-.2,1.8,-.3c.2,.1,.5,.1,.7,.2c.3,.1,.6,.1,.8,.2c.3,0,.6,0,.9,0c.3,.1,.5,.1,.7,.1c.2,0,.4,0,.6,-.1c.3,0,.5,0,.8,-.1c.2,0,.4,0,.7,-.1c.2,-.1,.4,-.1,.5,-.2c.5,-.3,.8,-.6,1.1,-1.1c.3,-.4,.5,-.7,.5,-1.1c.1,-.3,.1,-.6,.1,-.8c0,-.2,0,-.5,-.1,-.7c-.1,-.5,-.3,-.9,-.6,-1.3c-.2,-.3,-.4,-.5,-.7,-.7c-.2,-.2,-.5,-.4,-.8,-.5c-.3,-.2,-.6,-.4,-1,-.6c-.3,-.1,-.8,-.3,-1.3,-.5c-.2,-.1,-.5,-.3,-.8,-.4c-.2,-.1,-.5,-.3,-.8,-.4c-.3,-.1,-.5,-.3,-.8,-.4c-.2,-.1,-.5,-.2,-.7,-.3c-.2,-.2,-.3,-.2,-.5,-.3c-.1,-.1,-.2,-.1,-.2,-.1l-1.2,2c.2,0,.3,.1,.4,.1q.1,.1,.2,.1c-.3,.2,-.5,.4,-.7,.6c-.2,.2,-.3,.5,-.5,.7c-.1,.3,-.2,.6,-.3,.8c0,.3,0,.6,0,.9c0,.4,0,.8,.1,1.2c.2,.4,.4,.8,.6,1.1c-.2,.1,-.3,.1,-.5,.1c-.1,0,-.2,0,-.4,0c-.1,0,-.2,0,-.3,0c-.2,0,-.3,0,-.5,0h-.2V73Zm8,-5.1c0,-.1,0,-.2,0,-.3c.2,.1,.5,.2,.7,.4c.3,.2,.5,.3,.7,.5c.1,.2,.3,.3,.4,.5c.1,.2,.1,.4,.1,.5c0,.2,0,.4,-.2,.6c-.1,.2,-.2,.3,-.5,.4c-.2,.2,-.4,.3,-.7,.3c-.3,.1,-.6,.2,-1,.2c0,0,-.1,0,-.2,0c-.1,-.1,-.2,-.1,-.3,-.1c.4,-.4,.6,-.8,.8,-1.3c.1,-.5,.2,-1,.2,-1.5q0,-.1,0,-.2Zm-2.9,-1.2c.2,.1,.3,.2,.5,.4c.1,.1,.2,.3,.3,.5c.1,.1,.1,.3,.1,.5q0,.1,0,.2c0,.3,-.1,.6,-.2,.8c-.1,.3,-.3,.5,-.4,.6c-.2,.2,-.4,.3,-.6,.4c-.1,.1,-.3,.2,-.6,.3c-.1,-.1,-.3,-.2,-.4,-.3c-.1,-.1,-.3,-.2,-.4,-.4c-.1,-.1,-.2,-.3,-.3,-.5c0,-.1,-.1,-.3,-.1,-.5c0,0,0,-.1,0,-.2c0,-.1,0,-.3,.1,-.5c.1,-.3,.2,-.5,.4,-.8c.1,-.2,.3,-.3,.5,-.4c.2,-.2,.3,-.2,.5,-.2c0,0,.1,0,.1,0c.2,0,.3,.1,.5,.1Zm17.9,5.1c.3,0,.5,0,.8,-.1c.2,.3,.4,.6,.6,.7c.2,.2,.4,.3,.7,.4c.2,.1,.4,.1,.7,.1c.2,0,.5,0,.8,.1h.1V70.9h-.1c-.2,0,-.4,0,-.5,0c-.1,0,-.2,-.1,-.3,-.1c-.1,-.1,-.2,-.1,-.2,-.2c-.1,-.1,-.2,-.2,-.2,-.3c0,0,-.1,-.1,-.1,-.2c0,-.1,-.1,-.3,-.1,-.5c-.1,-.3,-.1,-.6,-.2,-1c-.1,-.5,-.1,-1,-.2,-1.7c0,0,0,-.1,0,-.3c-.1,-.2,-.1,-.4,-.1,-.6c0,-.2,0,-.4,-.1,-.7c0,-.2,0,-.5,0,-.7c-.1,-.2,-.1,-.4,-.1,-.6c0,-.1,0,-.3,0,-.3l-2.1,.4l.1,1.2c-.2,.1,-.5,.3,-.8,.4c-.3,.2,-.6,.3,-.9,.5c-.3,.2,-.5,.4,-.8,.6c-.2,.2,-.5,.5,-.7,.7c-.2,.3,-.3,.6,-.4,.9c-.2,.3,-.2,.6,-.2,.9c0,.3,0,.6,.1,.9c.1,.2,.3,.4,.4,.6c.2,.2,.4,.3,.6,.5c.2,.1,.5,.2,.7,.3c.3,.1,.6,.1,.9,.2c.2,0,.5,0,.8,0c.3,0,.5,0,.8,0Zm-.3,-2c-.2,0,-.4,0,-.5,0c-.2,0,-.4,0,-.6,0c-.2,0,-.4,-.1,-.6,-.1c-.2,-.1,-.3,-.1,-.5,-.2c-.1,-.1,-.1,-.2,-.1,-.3c0,-.1,0,-.2,.1,-.4c.1,-.1,.2,-.3,.3,-.4c.1,-.1,.3,-.3,.5,-.4c.1,-.1,.3,-.2,.5,-.4c.2,-.1,.4,-.2,.5,-.3c.2,0,.4,-.1,.5,-.2c0,.3,.1,.5,.1,.8c0,.2,0,.5,.1,.7c0,.2,0,.4,0,.6c.1,.2,.1,.4,.1,.5c-.1,.1,-.3,.1,-.4,.1ZM581,73h1.6c.7,0,1.4,-.1,2.1,-.2c.7,-.1,1.3,-.3,1.9,-.5c.6,-.2,1.2,-.4,1.8,-.7c.6,-.2,1.1,-.5,1.7,-.7c.3,.6,.8,1.2,1.5,1.5c.8,.4,1.6,.6,2.7,.6h.3V70.9h-.3c-.1,0,-.3,0,-.5,0c-.3,0,-.5,-.1,-.7,-.1c-.3,-.1,-.5,-.2,-.7,-.3c-.2,-.1,-.4,-.3,-.5,-.5c.2,-.1,.4,-.2,.6,-.3c.2,-.1,.4,-.2,.6,-.3l.3,-1.9c-.3,0,-.7,-.1,-1.1,-.2c-.4,0,-.8,-.1,-1.2,-.2c-.4,-.1,-.7,-.3,-1.1,-.4c-.4,-.2,-.7,-.3,-1,-.5c-.3,-.1,-.6,-.2,-.9,-.4c-.3,-.1,-.5,-.2,-.8,-.3c-.3,-.1,-.6,-.2,-.9,-.2c-.2,-.1,-.5,-.1,-.8,-.1c-.3,0,-.6,0,-1,.2c-.3,.1,-.7,.3,-1,.6c-.4,.2,-.7,.5,-.9,.8c-.3,.3,-.6,.7,-.8,1l1.6,.9l.1,-.1c.1,-.1,.1,-.2,.2,-.3c.1,-.1,.2,-.2,.3,-.3c.2,-.2,.3,-.3,.5,-.4c.1,-.1,.3,-.2,.5,-.3c.1,0,.3,-.1,.5,-.1c.3,0,.5,.1,.8,.1c.3,.1,.5,.2,.8,.3c.2,.1,.5,.2,.8,.3c.2,.1,.5,.2,.7,.4c.3,.1,.5,.2,.8,.2c.2,.1,.4,.2,.6,.2c-.5,.3,-1.1,.5,-1.7,.8c-.6,.3,-1.2,.5,-1.8,.7c-.7,.2,-1.3,.4,-2,.5c-.7,.1,-1.3,.2,-2,.2H581V73Zm4.5,-11.9L584,62.6l1.5,1.5L587,62.6l-1.5,-1.5Zm8.8,9.8V73h.3c.6,0,1.1,-.1,1.5,-.4c.4,-.2,.7,-.5,1,-1c.1,.2,.2,.4,.4,.6c.1,.2,.3,.3,.5,.4c.2,.1,.4,.2,.6,.3c.2,0,.5,.1,.7,.1c.3,0,.5,-.1,.7,-.1c.3,-.1,.5,-.2,.7,-.3c.2,-.1,.4,-.3,.5,-.4c.2,-.2,.4,-.4,.5,-.6c.3,.4,.6,.8,1,1c.4,.2,.9,.4,1.4,.4c.5,0,.9,-.2,1.3,-.4c.5,-.3,.8,-.6,1,-1c.2,.2,.4,.4,.6,.6c.2,.2,.4,.3,.6,.4c.2,.1,.5,.2,.7,.3c.3,0,.5,.1,.8,.1h.3V70.9h-.3c-.2,0,-.4,0,-.6,-.1c-.1,-.1,-.3,-.2,-.5,-.3c-.1,-.1,-.3,-.3,-.4,-.5c-.1,-.2,-.2,-.5,-.2,-.7c-.1,-.3,-.1,-.5,-.1,-.7c0,-.2,-.1,-.4,-.1,-.6c0,-.1,0,-.3,0,-.5c0,-.1,-.1,-.3,-.1,-.5l-2,.2c0,.1,0,.2,0,.2c0,.1,0,.2,0,.2q0,.1,0,.2q0,.1,0,.2c0,.4,0,.7,0,1c0,.4,-.1,.7,-.2,.9c0,.3,-.1,.5,-.3,.7c-.1,.2,-.3,.3,-.5,.3c-.2,0,-.4,-.1,-.5,-.2c-.1,-.1,-.2,-.2,-.3,-.4c-.1,-.2,-.1,-.3,-.1,-.5c-.1,-.2,-.1,-.3,-.1,-.5q0,-.1,0,-.2c0,-.3,.1,-.5,.1,-.8c.1,-.3,.1,-.6,.2,-.9L601.5,67c0,.2,-.1,.5,-.2,.8c0,.2,-.1,.5,-.2,.8c-.1,.3,-.2,.6,-.3,.8c-.2,.3,-.3,.6,-.5,.8c-.1,.2,-.3,.4,-.4,.5c-.2,.1,-.4,.2,-.6,.2c-.1,0,-.2,0,-.3,-.1c-.1,0,-.1,-.1,-.2,-.2c0,-.1,-.1,-.2,-.1,-.3c0,-.1,0,-.2,0,-.3c0,-.3,.1,-.7,.2,-1.1c.1,-.4,.2,-.8,.3,-1.3l-1.9,-.5c-.2,.8,-.4,1.4,-.6,1.9c-.2,.5,-.4,.9,-.6,1.2c-.2,.2,-.5,.4,-.7,.5c-.3,.2,-.5,.2,-.8,.2h-.3ZM609,73h1.3c.6,0,1.2,-.1,1.7,-.2c.5,-.2,.9,-.4,1.3,-.6c.3,-.3,.6,-.7,.8,-1.1c.2,-.4,.3,-.9,.3,-1.5c0,-.4,0,-.7,-.1,-1.1c-.1,-.4,-.1,-.7,-.2,-1.1c-.1,-.3,-.3,-.7,-.4,-1c-.1,-.4,-.3,-.7,-.4,-1l-1.8,.9c.1,.3,.2,.6,.4,.9c.1,.4,.2,.7,.3,1c.1,.3,.2,.6,.2,.8c.1,.3,.1,.4,.1,.6c0,.3,0,.5,-.2,.7c-.1,.2,-.3,.3,-.5,.4c-.2,.1,-.4,.1,-.7,.2c-.3,0,-.5,0,-.8,0H609V73Zm2.6,-11.8l-1.5,1.5l1.5,1.5l1.5,-1.5l-1.5,-1.5Z" class="g3_184"/>
</svg>