<?xml version="1.0" encoding="UTF-8" standalone="no"?>
<!DOCTYPE svg PUBLIC "-//W3C//DTD SVG 1.1//EN"
"http://www.w3.org/Graphics/SVG/1.1/DTD/svg11.dtd">
<svg viewBox="0 0 714 1017" version="1.1" xmlns="http://www.w3.org/2000/svg" xmlns:xlink="http://www.w3.org/1999/xlink">
<defs>
<style type="text/css"><![CDATA[
.g0_80{
fill: #F1EFEE;
}
.g1_80{
fill: #D0D1D0;
}
.g2_80{
fill: #D1D3D4;
}
.g3_80{
fill: none;
stroke: #D0D1D0;
stroke-width: 6.111;
stroke-linecap: butt;
stroke-linejoin: round;
stroke-miterlimit: 4;
}
]]></style>
</defs>
<image preserveAspectRatio="none" x="640" y="30" width="49" height="82" xlink:href="img/1.png"/>
<image preserveAspectRatio="none" x="514" y="861" width="202" height="159" xlink:href="img/2.png"/>
<path d="M99.6,129.9H615V242.1H99.6V129.9Z" class="g0_80"/>
<path d="M99.6,465H615V833.9H99.6V465Z" class="g0_80"/>
<image preserveAspectRatio="none" x="621" y="130" width="52" height="52" xlink:href="img/3.png"/>
<image preserveAspectRatio="none" x="620" y="465" width="52" height="52" xlink:href="img/4.png"/>
<path d="M410.1,74.5c-3.3,0,-6,-2.5,-6,-5.6c0,-3.2,2.7,-5.7,6,-5.7c3.3,0,5.9,2.5,5.9,5.7c0,3.1,-2.6,5.6,-5.9,5.6Z" class="g1_80"/>
<path d="M411.4,69.8H4.7V67.9H411.4v1.9Z" class="g1_80"/>
<path d="M654.9,48.9c0,0,-18.5,0,-18.5,15.4v7.2c0,0,0,15.4,18.5,15.4h60.2c0,0,18.5,0,18.5,-15.4V64.3c0,0,0,-15.4,-18.5,-15.4Z" class="g2_80"/>
<path d="M435.7,69.2h-.4c-.2,0,-.4,0,-.5,0c-.2,-.1,-.3,-.1,-.4,-.2c-.1,-.1,-.2,-.2,-.2,-.4c-.1,-.1,-.1,-.3,-.1,-.5V68c0,-.2,0,-.4,0,-.5c0,-.2,0,-.3,0,-.5c0,-.2,0,-.3,0,-.5c0,-.2,0,-.4,0,-.6c0,-.2,0,-.5,0,-.8c0,-.3,0,-.6,0,-.9c0,-.5,0,-1,0,-1.5c0,-.5,-.1,-1,-.1,-1.5c0,-.5,-.1,-1,-.1,-1.5c-.1,-.4,-.1,-.8,-.2,-1.1l-2,.6c.1,.3,.1,.5,.1,.9c.1,.3,.1,.6,.1,1c.1,.4,.1,.8,.1,1.2c0,.4,0,.8,0,1.2c.1,.4,.1,.8,.1,1.2c0,.4,0,.7,0,1.1c0,.5,0,1,0,1.4c0,.4,-.1,.7,-.1,.8c.1,1.1,.3,1.9,.9,2.5c.5,.5,1.4,.8,2.4,.8h.4V69.2Zm-.4,2.1h1.5c.1,.5,.4,1,.6,1.5c.3,.5,.6,.9,.9,1.3c.4,.4,.8,.8,1.2,1.2c.4,.4,.9,.7,1.4,1l1.3,-1.5c-.1,-.1,-.2,-.2,-.3,-.3c0,-.1,-.1,-.2,-.1,-.3c-.1,-.1,-.1,-.2,-.1,-.3c0,-.1,0,-.2,0,-.3c0,-.3,0,-.6,.2,-.8c.1,-.3,.2,-.6,.4,-.8c.2,-.2,.4,-.4,.7,-.5c.2,-.1,.5,-.2,.7,-.2h.2V69.2h-.1c-.3,0,-.6,.1,-.9,.2c-.3,.1,-.6,.3,-.9,.5c-.3,.1,-.5,.4,-.8,.6c-.2,.3,-.4,.6,-.6,.8c-.1,.4,-.3,.6,-.3,.9c-.1,.3,-.2,.6,-.2,.9c0,0,0,.1,0,.2c-.1,-.1,-.2,-.3,-.3,-.5c-.1,-.2,-.3,-.4,-.4,-.6c-.1,-.2,-.3,-.4,-.4,-.6c-.1,-.2,-.2,-.3,-.2,-.5c.4,-.1,.8,-.3,1.2,-.5c.4,-.3,.7,-.6,1,-1c.3,-.3,.6,-.7,.7,-1.1c.2,-.4,.4,-.8,.5,-1.2c0,-.2,0,-.4,0,-.6c0,-.1,0,-.2,0,-.3c0,-.3,-.1,-.6,-.2,-.8c-.1,-.3,-.2,-.6,-.3,-.8c-.2,-.3,-.3,-.5,-.5,-.7c-.2,-.2,-.4,-.3,-.7,-.4c-.2,-.1,-.4,-.2,-.6,-.2h-.1c-.3,0,-.6,.1,-.9,.3c-.3,.2,-.6,.5,-.8,.8c-.3,.3,-.5,.6,-.7,1.1c-.2,.4,-.4,.8,-.6,1.2c-.1,.4,-.2,.8,-.3,1.2c-.1,.4,-.1,.8,-.1,1.1h-1.1v2.1Zm5.1,-3.5c-.2,.3,-.4,.6,-.6,.8c-.2,.2,-.5,.4,-.8,.5c-.3,.1,-.5,.2,-.8,.2v-.2c0,-.1,0,-.3,0,-.5c.1,-.3,.1,-.6,.2,-.9c.1,-.2,.2,-.5,.3,-.8c.1,-.3,.2,-.5,.3,-.8c.1,-.2,.3,-.4,.4,-.5c.1,-.2,.3,-.3,.4,-.3c.1,0,.2,.1,.3,.3c.1,.1,.2,.2,.3,.4c.1,.1,.1,.3,.2,.4c0,.2,0,.3,0,.5V67c0,.3,-.1,.6,-.2,.8Zm3.2,3.5h1.3c.6,0,1.1,-.1,1.6,-.2c.5,-.1,.9,-.3,1.3,-.6c.4,-.3,.7,-.6,.9,-1.1c.2,-.4,.3,-.9,.3,-1.5c0,-.3,-.1,-.7,-.1,-1.1c-.1,-.3,-.2,-.7,-.3,-1c-.1,-.4,-.2,-.7,-.3,-1.1c-.2,-.3,-.3,-.6,-.4,-1l-1.9,1c.2,.2,.3,.5,.4,.9c.2,.3,.3,.6,.4,.9c.1,.3,.1,.6,.2,.8c.1,.3,.1,.5,.1,.6c0,.3,-.1,.5,-.2,.7c-.2,.2,-.3,.3,-.5,.4c-.3,.1,-.5,.2,-.8,.2c-.2,0,-.5,0,-.7,0h-1.3v2.1Zm2.5,-11.8L444.6,61l1.5,1.6L447.7,61l-1.6,-1.5Zm5.3,.9c.1,1.3,.3,3,.3,5.2c.1,.6,.1,1.2,.1,1.9c0,.2,0,.4,0,.7c0,.9,-.1,1.9,-.1,3l2.1,-.3c0,-.7,0,-1.4,0,-2.2c0,-.8,0,-1.5,0,-2.1c0,-.6,0,-1.2,0,-1.9c0,-.8,0,-1.7,-.1,-2.5c0,-.8,-.1,-1.6,-.2,-2.4l-2.1,.6Zm-.8,-1.1c0,-.1,0,-.2,0,-.3c.1,-.1,.1,-.2,.1,-.4c.1,-.1,.2,-.2,.2,-.3c.1,0,.2,-.1,.4,-.1c.2,0,.4,0,.5,.1c.2,0,.4,.1,.5,.2c.2,0,.4,.1,.5,.1c.2,.1,.4,.1,.6,.1c.2,0,.4,0,.6,-.1c.2,-.1,.4,-.2,.6,-.3c.1,-.1,.3,-.2,.4,-.3c.1,-.1,.3,-.2,.4,-.3c0,-.1,.1,-.2,.2,-.3c0,-.1,.1,-.1,.1,-.1l-1.1,-.7c-.2,.2,-.3,.3,-.5,.4c-.1,.2,-.2,.2,-.3,.3c-.2,0,-.3,0,-.4,0c0,0,-.1,0,-.2,0c-.1,0,-.3,-.1,-.6,-.2c-.1,0,-.3,-.1,-.5,-.2c-.2,0,-.4,-.1,-.7,-.1c-.2,0,-.5,.1,-.7,.2c-.2,.1,-.4,.3,-.6,.5c-.2,.1,-.4,.4,-.5,.6c-.2,.2,-.2,.5,-.3,.8l1.3,.4ZM469,76.4c.5,-.1,.9,-.1,1.4,-.3c.4,-.1,.9,-.2,1.3,-.4c.5,-.2,.8,-.5,1.2,-.7c.3,-.3,.6,-.6,.8,-1c.3,-.4,.4,-.8,.4,-1.3c0,-.2,-.1,-.4,-.1,-.6c-.1,-.3,-.2,-.6,-.5,-.8H475V69.2h-6.3l-.3,2c.4,.1,.8,.2,1.1,.2c.4,.1,.7,.2,1.1,.3c.3,.1,.5,.2,.7,.3c.2,.1,.4,.2,.6,.3c.1,.1,.3,.2,.4,.3c.1,0,.1,.1,.1,.1c0,.3,-.1,.5,-.3,.6c-.2,.2,-.4,.3,-.7,.5c-.3,.1,-.6,.2,-1,.3c-.3,.1,-.7,.1,-1,.2c-.3,0,-.6,.1,-.9,.1c-.3,0,-.5,0,-.7,0c-.2,0,-.5,0,-.9,0c-.3,0,-.6,0,-1,-.1c-.3,-.1,-.7,-.2,-1,-.3c-.3,-.2,-.5,-.4,-.8,-.7c-.1,-.2,-.2,-.5,-.3,-.8c-.1,-.3,-.2,-.6,-.2,-1c0,-.3,0,-.7,.1,-1c0,-.4,.1,-.7,.1,-1.1c.1,-.4,.2,-.9,.4,-1.3c.1,-.5,.3,-1,.5,-1.5l-1.6,-.8c-.3,.6,-.4,1.1,-.6,1.6c-.2,.4,-.3,.9,-.4,1.3c-.1,.4,-.2,.8,-.2,1.2c-.1,.4,-.1,.8,-.1,1.1c-.1,.2,-.1,.4,-.1,.6c0,.7,.1,1.3,.4,1.8c.2,.7,.7,1.3,1.2,1.7c.6,.5,1.2,.8,2,1c.8,.3,1.6,.4,2.5,.4c.4,0,.8,0,1.2,-.1Zm5.7,-5.1H476c.6,0,1.1,-.1,1.6,-.2c.5,-.1,1,-.3,1.3,-.6c.4,-.3,.7,-.6,.9,-1.1c.2,-.4,.3,-.9,.3,-1.5c0,-.3,0,-.7,-.1,-1.1c-.1,-.3,-.2,-.7,-.3,-1c-.1,-.4,-.2,-.7,-.3,-1.1c-.1,-.3,-.3,-.6,-.4,-1l-1.9,1c.2,.2,.3,.5,.5,.9c.1,.3,.2,.6,.3,.9c.1,.3,.2,.6,.2,.8c.1,.3,.1,.5,.1,.6c0,.3,-.1,.5,-.2,.7c-.1,.2,-.3,.3,-.5,.4c-.2,.1,-.5,.2,-.7,.2c-.3,0,-.5,0,-.8,0h-1.3v2.1Zm2.6,-11.8L475.7,61l1.6,1.6L478.8,61l-1.5,-1.5Zm7.9,6.8c.2,.1,.3,.2,.5,.4c.1,.1,.2,.3,.3,.5c.2,.3,.3,.5,.4,.7c.1,.2,.1,.5,.2,.7c.1,.2,.1,.5,.1,.7c-.1,0,-.2,-.1,-.4,-.1c-.1,0,-.2,0,-.4,0c-.1,0,-.3,0,-.4,0c-.1,0,-.2,0,-.4,0c-.2,0,-.4,0,-.6,-.1c-.2,0,-.4,-.1,-.5,-.2c-.2,-.1,-.3,-.2,-.4,-.3c-.1,-.2,-.2,-.4,-.2,-.6c0,-.2,.1,-.4,.2,-.7c0,-.2,.2,-.4,.3,-.6c.1,-.1,.3,-.3,.4,-.4c.2,-.1,.3,-.2,.5,-.2c.1,0,.3,.1,.4,.2Zm-3.6,10.6c.6,-.1,1.2,-.3,1.8,-.5c.6,-.2,1.2,-.4,1.7,-.7c.5,-.4,1,-.7,1.4,-1.1c.4,-.4,.8,-.9,1.1,-1.4c.3,-.5,.6,-1,.7,-1.6c.2,-.6,.3,-1.2,.3,-1.9c0,-.4,0,-.9,-.1,-1.3c-.1,-.4,-.2,-.8,-.3,-1.2c-.2,-.4,-.3,-.8,-.5,-1.1c-.2,-.4,-.4,-.7,-.7,-.9c-.7,-.8,-1.4,-1.1,-2.2,-1.1c-.3,0,-.6,0,-.9,.1c-.3,.2,-.5,.3,-.8,.5c-.2,.3,-.4,.5,-.6,.8c-.2,.2,-.3,.5,-.4,.8c-.1,.3,-.2,.7,-.3,1c-.1,.3,-.1,.6,-.1,.9c0,.4,.1,.8,.2,1.2c.1,.3,.3,.6,.5,.8c.2,.2,.5,.4,.8,.6c.3,.1,.6,.2,1,.3c.4,.1,.7,.1,1.2,.2c.4,0,.8,0,1.2,0c-.1,.4,-.3,.7,-.6,1.1c-.3,.3,-.6,.7,-1.1,1c-.5,.3,-1,.6,-1.6,.9c-.7,.2,-1.4,.4,-2.1,.6l.4,2ZM491.7,66.6c0,.3,.1,.5,.2,.8c.1,.3,.2,.7,.3,1c.1,.3,.2,.6,.3,1c0,.3,.1,.6,.1,.9c0,.4,-.1,.7,-.2,1c-.1,.3,-.3,.6,-.5,.9c-.2,.3,-.4,.6,-.7,.9c-.3,.3,-.6,.6,-.9,.8c-.4,.3,-.7,.5,-1.1,.7c-.3,.3,-.7,.5,-1.1,.7l.9,1.8c.5,-.3,1,-.5,1.4,-.8c.5,-.3,.9,-.6,1.3,-1c.4,-.3,.8,-.7,1.2,-1c.3,-.4,.6,-.8,.9,-1.3c.3,-.4,.5,-.8,.6,-1.3c.2,-.4,.2,-.9,.2,-1.4c0,-.3,0,-.7,-.1,-1c0,-.4,-.1,-.8,-.2,-1.2c-.1,-.3,-.2,-.7,-.3,-1.1c-.1,-.3,-.2,-.7,-.3,-1l-2,.6Zm3.9,3.5c.3,.2,.6,.3,.9,.5c.4,.1,.7,.3,1,.4c.4,.1,.7,.2,1.1,.3c.4,0,.7,.1,1.1,.1c.1,0,.2,0,.3,0c.5,0,1,-.1,1.5,-.3c.5,-.2,.9,-.4,1.3,-.8c.3,-.4,.5,-.7,.6,-1.1c.1,-.4,.2,-.7,.2,-.9c0,-.3,0,-.6,-.1,-.9c-.1,-.5,-.4,-1.1,-.6,-1.6c-.3,-.5,-.7,-1,-1.1,-1.5c-.4,-.4,-.8,-.9,-1.3,-1.3c-.5,-.4,-1,-.8,-1.5,-1.1l-1.1,1.7c.2,.2,.5,.4,.8,.6c.3,.2,.6,.5,.9,.8c.3,.2,.5,.5,.8,.8c.3,.3,.5,.6,.7,.9c.2,.3,.4,.6,.5,.9c.1,.2,.2,.5,.2,.7c0,.2,0,.3,-.1,.4c-.1,.1,-.2,.2,-.3,.3c-.1,0,-.3,.1,-.4,.1c-.2,.1,-.3,.1,-.5,.1c-.1,0,-.3,.1,-.4,.1c-.1,0,-.2,0,-.3,0c-.2,0,-.5,-.1,-.8,-.1c-.3,-.1,-.6,-.2,-.9,-.3c-.3,-.1,-.6,-.2,-.9,-.4c-.3,-.1,-.5,-.2,-.7,-.3l-.9,1.9Zm16.5,-3.5c.1,.3,.1,.5,.2,.8c.2,.3,.3,.7,.4,1c0,.3,.1,.6,.2,1c.1,.3,.1,.6,.1,.9c0,.4,-.1,.7,-.2,1c-.1,.3,-.2,.6,-.5,.9c-.2,.3,-.4,.6,-.7,.9c-.3,.3,-.6,.6,-.9,.8c-.3,.3,-.7,.5,-1.1,.7c-.3,.3,-.7,.5,-1.1,.7l.9,1.8c.5,-.3,1,-.5,1.4,-.8c.5,-.3,.9,-.6,1.4,-1c.4,-.3,.8,-.7,1.1,-1c.4,-.4,.7,-.8,.9,-1.3c.3,-.4,.5,-.8,.6,-1.3c.2,-.4,.2,-.9,.2,-1.4c0,-.3,0,-.7,0,-1c-.1,-.4,-.2,-.8,-.3,-1.2c-.1,-.3,-.2,-.7,-.3,-1.1c-.1,-.3,-.2,-.7,-.3,-1l-2,.6Zm8.6,2.6h-.4c-.2,0,-.4,0,-.5,0c-.2,-.1,-.3,-.1,-.4,-.2c-.1,-.1,-.2,-.2,-.2,-.4c-.1,-.1,-.1,-.3,-.1,-.5V68c0,-.2,0,-.4,0,-.5c0,-.2,0,-.3,0,-.5c0,-.2,0,-.3,0,-.5c0,-.2,0,-.4,0,-.6c0,-.2,0,-.5,0,-.8c0,-.3,0,-.6,0,-.9c0,-.5,0,-1,0,-1.5c0,-.5,0,-1,-.1,-1.5c0,-.5,-.1,-1,-.1,-1.5c-.1,-.4,-.1,-.8,-.2,-1.1l-2,.6c.1,.3,.1,.5,.2,.9c0,.3,0,.6,.1,1c0,.4,0,.8,0,1.2c0,.4,.1,.8,.1,1.2c0,.4,0,.8,0,1.2c0,.4,0,.7,0,1.1c0,.5,0,1,0,1.4c0,.4,0,.7,0,.8c0,1.1,.2,1.9,.8,2.5c.6,.5,1.4,.8,2.5,.8h.3V69.2Zm6.6,0c-.2,0,-.4,0,-.6,-.1c-.1,-.1,-.3,-.3,-.4,-.4c-.1,-.2,-.2,-.4,-.2,-.6c-.1,-.1,-.1,-.3,-.2,-.5c0,-.3,0,-.5,0,-.7c0,-.2,-.1,-.4,-.1,-.6c0,-.2,0,-.4,-.1,-.5c0,-.2,-.1,-.4,-.1,-.7l-2,.6c.1,.5,.2,.9,.3,1.2c.1,.3,.1,.5,.1,.7c0,.3,-.1,.5,-.2,.7c-.1,.2,-.3,.4,-.5,.5c-.3,.2,-.6,.3,-1.1,.3c-.4,.1,-.9,.1,-1.5,.1h-.3v2.1h.3c.3,0,.7,0,1.2,0c.4,0,.9,-.1,1.3,-.1c.4,-.1,.8,-.2,1.1,-.3c.4,-.1,.6,-.3,.8,-.5c.2,.3,.5,.5,.9,.6c.4,.2,.8,.3,1.3,.3h.2V69.2h-.2Zm-4.7,-8.4l-1.4,1.4l1.4,1.3l1.3,-1.3l-1.3,-1.4Zm3,0l-1.4,1.4l1.4,1.4l1.3,-1.4l-1.3,-1.4Zm1.6,10.5h1.7c1,0,2,-.2,3,-.4c1,-.2,1.9,-.5,2.8,-.8c.8,-.4,1.7,-.7,2.5,-1.1c.8,-.4,1.6,-.8,2.3,-1.2l.2,-2c-.4,0,-.9,-.1,-1.3,-.2c-.4,-.1,-.8,-.3,-1.2,-.4c-.4,-.2,-.8,-.4,-1.2,-.6c-.4,-.2,-.8,-.3,-1.2,-.5c-.4,-.2,-.8,-.3,-1.2,-.4c-.4,-.1,-.8,-.2,-1.2,-.2c-.4,0,-.8,.1,-1.2,.2c-.3,.2,-.7,.4,-1,.6c-.3,.2,-.5,.5,-.8,.8c-.2,.3,-.5,.6,-.6,.9l1.6,1.1c0,0,.1,-.1,.1,-.2c.1,-.1,.2,-.2,.2,-.3c.1,-.1,.2,-.2,.3,-.4c.1,-.1,.3,-.2,.4,-.3c.1,-.1,.3,-.2,.4,-.2c.2,-.1,.4,-.1,.6,-.1c.3,0,.6,0,.9,.1c.4,.2,.7,.3,1,.4c.4,.2,.8,.4,1.2,.5c.4,.2,.8,.3,1.2,.4c-.5,.3,-1.1,.6,-1.8,.9c-.6,.2,-1.3,.5,-2,.7c-.6,.2,-1.3,.3,-2,.5c-.7,.1,-1.4,.1,-2,.1h-1.7v2.1Zm5.1,-11.9L530.8,61l1.5,1.5L533.8,61l-1.5,-1.6Zm12.8,9.8h-.4c-.2,0,-.4,0,-.5,0c-.2,-.1,-.3,-.1,-.4,-.2c-.1,-.1,-.2,-.2,-.2,-.4c0,-.1,-.1,-.3,-.1,-.5V68c0,-.2,0,-.4,0,-.5c0,-.2,0,-.3,0,-.5c0,-.2,.1,-.3,.1,-.5c0,-.2,0,-.4,0,-.6c0,-.2,0,-.5,0,-.8c-.1,-.3,-.1,-.6,-.1,-.9c0,-.5,0,-1,0,-1.5c0,-.5,0,-1,-.1,-1.5c0,-.5,-.1,-1,-.1,-1.5c0,-.4,-.1,-.8,-.2,-1.1l-2,.6c.1,.3,.1,.5,.2,.9c0,.3,0,.6,.1,1c0,.4,0,.8,0,1.2c.1,.4,.1,.8,.1,1.2c0,.4,0,.8,0,1.2c0,.4,0,.7,0,1.1c0,.5,0,1,0,1.4c0,.4,0,.7,0,.8c0,1.1,.3,1.9,.8,2.5c.6,.5,1.4,.8,2.5,.8h.3V69.2Zm-.3,0v2.1h.3c.3,0,.7,0,.9,-.1c.3,-.1,.6,-.2,.8,-.3c.2,-.1,.3,-.2,.5,-.3c.1,-.2,.2,-.3,.3,-.5c.2,.2,.3,.4,.4,.5c.2,.2,.3,.3,.5,.4c.2,.1,.4,.2,.6,.3c.2,.1,.4,.1,.6,.1h.1c.3,0,.6,-.1,.8,-.1c.2,-.1,.4,-.2,.6,-.3c.2,-.1,.4,-.2,.5,-.4c.2,-.1,.3,-.3,.4,-.5c.1,.2,.3,.3,.4,.5c.1,.2,.3,.3,.5,.4c.1,.1,.3,.2,.5,.3c.2,.1,.5,.1,.7,.1h.1c.6,0,1,-.1,1.5,-.2c.4,-.2,.7,-.4,1,-.7c.3,-.3,.6,-.6,.7,-1c.2,-.4,.2,-.8,.2,-1.3c0,-.4,0,-.7,0,-1c-.1,-.3,-.2,-.6,-.2,-1c-.1,-.3,-.2,-.6,-.3,-.8c-.1,-.3,-.2,-.6,-.3,-.8c-.1,-.2,-.2,-.4,-.2,-.6c-.1,-.1,-.2,-.2,-.2,-.3l-1.7,1c.1,.2,.2,.4,.3,.7c.1,.2,.3,.5,.4,.9c.1,.3,.2,.6,.2,.9c.1,.4,.2,.7,.2,1c0,.4,-.2,.7,-.4,.9c-.2,.1,-.5,.2,-.9,.2c-.2,0,-.4,0,-.5,-.1c-.2,0,-.3,-.1,-.4,-.3c-.1,-.1,-.1,-.2,-.1,-.3c-.1,-.2,-.1,-.3,-.1,-.4V68c0,-.2,.1,-.4,.1,-.6c0,-.3,0,-.5,.1,-.7c0,-.2,0,-.4,.1,-.5c0,-.2,0,-.4,0,-.5L552,65.3c-.1,.3,-.1,.5,-.2,.8c0,.3,-.1,.6,-.2,.9c0,.3,-.1,.5,-.3,.8c-.1,.3,-.2,.6,-.4,.8c-.1,.2,-.3,.4,-.5,.5c-.2,.2,-.4,.2,-.6,.2c-.2,0,-.4,0,-.5,-.2c-.1,-.1,-.2,-.2,-.2,-.4c0,-.1,0,-.2,0,-.2c0,-.2,0,-.4,.1,-.6c0,-.3,.1,-.5,.2,-.8c0,-.2,.1,-.5,.2,-.7c.1,-.2,.1,-.4,.2,-.6l-2,-.4c-.1,.2,-.1,.5,-.2,.7c-.1,.3,-.2,.6,-.3,.9c-.1,.3,-.2,.6,-.3,.8c-.2,.3,-.3,.5,-.5,.7c-.2,.3,-.4,.4,-.6,.6c-.3,.1,-.5,.1,-.8,.1h-.3Zm23.5,-2.9c.1,.1,.3,.2,.4,.4c.1,.1,.3,.3,.4,.5c.1,.3,.2,.5,.3,.7c.1,.2,.2,.5,.3,.7c0,.2,.1,.5,.1,.7c-.1,0,-.3,-.1,-.4,-.1c-.1,0,-.3,0,-.4,0c-.2,0,-.3,0,-.4,0c-.2,0,-.3,0,-.4,0c-.2,0,-.4,0,-.6,-.1c-.2,0,-.4,-.1,-.6,-.2c-.1,-.1,-.3,-.2,-.4,-.3c-.1,-.2,-.1,-.4,-.1,-.6c0,-.2,0,-.4,.1,-.7c.1,-.2,.2,-.4,.3,-.6c.2,-.1,.3,-.3,.5,-.4c.1,-.1,.3,-.2,.4,-.2c.2,0,.3,.1,.5,.2Zm-3.6,10.6c.6,-.1,1.2,-.3,1.8,-.5c.6,-.2,1.1,-.4,1.6,-.7c.6,-.4,1,-.7,1.5,-1.1c.4,-.4,.8,-.9,1.1,-1.4c.3,-.5,.5,-1,.7,-1.6c.2,-.6,.3,-1.2,.3,-1.9c0,-.4,-.1,-.9,-.2,-1.3c0,-.4,-.1,-.8,-.3,-1.2c-.1,-.4,-.3,-.8,-.5,-1.1c-.2,-.4,-.4,-.7,-.6,-.9c-.7,-.8,-1.4,-1.1,-2.3,-1.1c-.3,0,-.6,0,-.9,.1c-.2,.2,-.5,.3,-.7,.5c-.2,.3,-.5,.5,-.6,.8c-.2,.2,-.3,.5,-.5,.8c-.1,.3,-.2,.7,-.2,1c-.1,.3,-.1,.6,-.1,.9c0,.4,0,.8,.1,1.2c.2,.3,.3,.6,.6,.8c.2,.2,.4,.4,.7,.6c.4,.1,.7,.2,1.1,.3c.3,.1,.7,.1,1.1,.2c.4,0,.8,0,1.3,0c-.1,.4,-.3,.7,-.6,1.1c-.3,.3,-.7,.7,-1.1,1c-.5,.3,-1,.6,-1.7,.9c-.6,.2,-1.3,.4,-2.1,.6l.5,2Zm17.9,-1.6c-.2,0,-.4,-.1,-.6,-.3c-.2,-.1,-.5,-.2,-.7,-.4c-.2,-.1,-.4,-.3,-.5,-.5c-.2,-.2,-.3,-.4,-.4,-.6c-.1,-.3,-.2,-.5,-.2,-.7c0,-.5,.2,-.9,.4,-1.2c.2,-.4,.4,-.7,.8,-.9c.3,-.3,.6,-.6,1,-.8c.4,-.2,.8,-.3,1.2,-.5c.4,.3,.8,.5,1.2,.8c.4,.2,.8,.4,1.2,.6c.4,.1,.8,.3,1.3,.4c.4,0,.8,.1,1.2,.1h.3v-2h-.3c-.4,0,-.9,-.1,-1.4,-.3c-.5,-.1,-.9,-.3,-1.4,-.5c.4,-.2,.7,-.4,1,-.6c.2,-.2,.5,-.4,.7,-.7c.2,-.2,.4,-.5,.5,-.9c.2,-.3,.2,-.6,.3,-1v-.1c0,-.3,-.1,-.5,-.2,-.8c-.1,-.2,-.2,-.4,-.4,-.6c-.2,-.2,-.4,-.3,-.6,-.5c-.2,-.1,-.5,-.2,-.7,-.3c-.3,-.1,-.6,-.1,-.9,-.2c-.2,0,-.5,0,-.8,0c-.8,0,-1.7,.1,-2.5,.5c-.8,.3,-1.5,.7,-2.2,1.3l.1,1.7c.1,.1,.2,.2,.4,.3c.1,.2,.3,.3,.4,.4c.2,.2,.4,.3,.5,.5c.2,.1,.4,.3,.6,.4c-.5,.3,-1,.5,-1.4,.9c-.4,.3,-.8,.6,-1.1,1.1c-.4,.4,-.6,.8,-.8,1.3c-.2,.5,-.3,1,-.3,1.6c0,.5,.1,1,.2,1.4c.2,.5,.4,.9,.7,1.2c.3,.4,.6,.7,1,1c.4,.2,.8,.5,1.3,.6c.4,.2,.9,.4,1.4,.5c.5,0,1,.1,1.5,.1h.1c.4,0,.7,0,1,-.1c.4,0,.8,-.1,1.1,-.2c.4,-.1,.7,-.3,1,-.4c.4,-.2,.7,-.4,1,-.5l-1.1,-1.8c-.3,.2,-.6,.3,-.9,.5c-.4,.1,-.7,.2,-1.1,.3c-.4,.1,-.7,.1,-.9,.2c-.2,0,-.4,0,-.5,0c-.3,0,-.6,-.1,-.9,-.1c-.2,0,-.4,-.1,-.6,-.2Zm2.8,-10.5c.2,0,.4,.1,.6,.1c.1,.1,.2,.1,.3,.2c0,0,.1,0,.1,.1c0,.1,-.1,.3,-.2,.5c-.2,.2,-.3,.3,-.6,.5c-.2,.2,-.5,.3,-.8,.5c-.3,.1,-.6,.3,-.9,.4c-.2,-.1,-.4,-.3,-.5,-.4c-.2,-.2,-.4,-.3,-.5,-.5c-.2,-.2,-.3,-.3,-.5,-.5c-.1,-.1,-.2,-.3,-.3,-.4c.1,-.1,.3,-.1,.5,-.2c.2,-.1,.4,-.1,.7,-.2c.2,0,.4,-.1,.7,-.1c.2,0,.4,-.1,.6,-.1c.3,0,.6,.1,.8,.1Zm3.1,6.5h1.3c.6,0,1.1,-.1,1.6,-.2c.5,-.1,1,-.3,1.3,-.6c.4,-.3,.7,-.6,.9,-1.1c.2,-.4,.3,-.9,.3,-1.5c0,-.3,-.1,-.7,-.1,-1.1c-.1,-.3,-.2,-.7,-.3,-1c-.1,-.4,-.2,-.7,-.3,-1.1c-.2,-.3,-.3,-.6,-.4,-1l-1.9,1c.2,.2,.3,.5,.4,.9c.2,.3,.3,.6,.4,.9c.1,.3,.1,.6,.2,.8c.1,.3,.1,.5,.1,.6c0,.3,-.1,.5,-.2,.7c-.2,.2,-.3,.3,-.5,.4c-.2,.1,-.5,.2,-.8,.2c-.2,0,-.5,0,-.7,0h-1.3v2.1Zm2.6,1.1l-1.5,1.5l1.5,1.5l1.5,-1.5l-1.5,-1.5Zm4.3,-13.1c.1,.9,.2,1.8,.2,2.7c.1,1,.1,2,.2,3.1c0,.5,0,1,0,1.5c0,1.4,0,2.9,-.2,4.7l2.1,-.3c.1,-.5,.1,-.9,.1,-1.4c0,-.5,0,-1,0,-1.5c.1,-.6,.1,-1.2,.1,-1.8c0,-.6,0,-1.3,0,-2.1c-.1,-.9,-.1,-1.8,-.1,-2.7c-.1,-.9,-.2,-1.9,-.3,-2.9l-2.1,.7Zm4.2,17.6c.8,-.2,1.6,-.4,2.3,-.7c.8,-.3,1.4,-.7,2,-1.1c.6,-.5,1.2,-1.1,1.6,-1.7c.4,-.6,.7,-1.3,.9,-2.1h.7V69.2h-.5c-.1,-.3,-.1,-.7,-.2,-1.1c-.1,-.4,-.2,-.8,-.3,-1.1c-.1,-.4,-.3,-.7,-.5,-1c-.2,-.3,-.4,-.6,-.6,-.8c-.7,-.8,-1.4,-1.1,-2.2,-1.1c-.4,0,-.7,0,-.9,.1c-.3,.2,-.6,.3,-.8,.5c-.2,.3,-.4,.5,-.6,.8c-.2,.2,-.3,.5,-.4,.8c-.2,.3,-.3,.7,-.3,1c-.1,.3,-.1,.6,-.1,.9c0,.4,0,.8,.2,1.2c.1,.3,.3,.6,.5,.8c.2,.2,.5,.4,.8,.6c.3,.1,.6,.2,1,.3c.3,.1,.7,.1,1.1,.2c.4,0,.9,0,1.3,0c-.1,.4,-.3,.7,-.6,1.1c-.3,.3,-.6,.7,-1.1,1c-.5,.3,-1,.6,-1.6,.9c-.7,.2,-1.4,.4,-2.2,.6l.5,2Zm3.6,-10.6c.2,.1,.3,.2,.4,.4c.2,.1,.3,.3,.4,.5c.2,.3,.3,.5,.4,.7c.1,.2,.1,.5,.2,.7c.1,.2,.1,.5,.1,.6h-.4c-.1,0,-.3,0,-.4,0c-.1,0,-.3,0,-.4,0c-.1,0,-.3,0,-.4,0c-.2,0,-.4,0,-.6,-.1c-.2,0,-.4,-.1,-.5,-.2c-.2,-.1,-.3,-.2,-.4,-.3c-.1,-.2,-.2,-.4,-.2,-.6c0,-.2,.1,-.4,.1,-.7c.1,-.2,.2,-.4,.4,-.6c.1,-.1,.3,-.3,.4,-.4c.2,-.1,.3,-.2,.5,-.2c.1,0,.3,.1,.4,.2Zm3.6,5h1.7c.6,0,1.1,-.1,1.7,-.2c.5,-.1,.9,-.3,1.3,-.6c.4,-.2,.8,-.6,1,-1c.2,-.5,.3,-1,.3,-1.6c0,-.3,0,-.7,-.1,-1.1c0,-.3,-.1,-.7,-.2,-1c-.1,-.4,-.2,-.7,-.4,-1.1c-.1,-.3,-.2,-.6,-.4,-1l-1.8,1c.1,.2,.3,.5,.4,.9c.1,.3,.2,.6,.3,.9c.1,.3,.2,.6,.3,.8c0,.3,.1,.5,.1,.6c0,.3,-.1,.5,-.3,.7c-.2,.2,-.4,.3,-.6,.4c-.3,.1,-.5,.2,-.8,.2c-.3,0,-.6,0,-.8,0h-1.7v2.1ZM609,59.6l-1.4,1.3l1.4,1.4l1.4,-1.4L609,59.6Zm3,0l-1.4,1.3l1.4,1.4L613.4,61L612,59.6Z" class="g3_80"/>
</svg>